G04 Generated by Ultiboard 14.0 *
%FSLAX33Y33*%
%MOMM*%

%ADD10C,0.001*%
%ADD11C,0.001*%
%ADD12C,0.127*%


G04 ColorRGB 00FFFF for the following layer *
%LNBoard Outline*%
%LPD*%
G54D10*
G54D11*
X-1500Y-20000D02*
X88500Y-20000D01*
X88500Y100000D01*
X-1500Y100000D01*
X-1500Y-20000D01*
G54D12*
X-1754Y-20254D02*
X-1754Y-8203D01*
X-1754Y-20254D02*
X7297Y-20254D01*
X88754Y-20254D02*
X79703Y-20254D01*
X88754Y-20254D02*
X88754Y-8203D01*
X88754Y100254D02*
X88754Y88203D01*
X88754Y100254D02*
X79703Y100254D01*
X-1754Y100254D02*
X7297Y100254D01*
X-1754Y100254D02*
X-1754Y88203D01*
X-6754Y-20254D02*
X-16754Y-20254D01*
X-11754Y-25254D02*
X-11754Y-15254D01*
X-15504Y-20254D02*
G75*
D01*
G02X-15504Y-20254I3750J0*
G01*
X93754Y-20254D02*
X103754Y-20254D01*
X98754Y-25254D02*
X98754Y-15254D01*
X95004Y-20254D02*
G75*
D01*
G02X95004Y-20254I3750J0*
G01*
X97504Y-20254D02*
G75*
D01*
G02X97504Y-20254I1250J0*
G01*
X-6754Y100254D02*
X-16754Y100254D01*
X-11754Y95254D02*
X-11754Y105254D01*
X-15504Y100254D02*
G75*
D01*
G02X-15504Y100254I3750J0*
G01*
X-14254Y100254D02*
G75*
D01*
G02X-14254Y100254I2500J0*
G01*
X-13004Y100254D02*
G75*
D01*
G02X-13004Y100254I1250J0*
G01*

M02*
