G04 Generated by Ultiboard 14.0 *
%FSLAX33Y33*%
%MOMM*%

%ADD10C,0.001*%
%ADD11C,0.127*%
%ADD12C,2.794*%
%ADD13C,1.800*%
%ADD14C,1.270*%
%ADD15C,1.600*%
%ADD16R,1.600X1.800*%
%ADD17R,1.164X1.164*%
%ADD18C,0.995*%
%ADD19C,2.159*%
%ADD20C,2.286*%
%ADD21C,3.356*%
%ADD22C,3.048*%
%ADD23C,2.500*%
%ADD24R,1.270X1.270*%
%ADD25C,0.889*%
%ADD26R,1.100X1.500*%
%ADD27R,1.778X3.810*%
%ADD28C,1.143*%
%ADD29C,4.191*%


G04 ColorRGB FF00CC for the following layer *
%LNSolder Mask Top*%
%LPD*%
G54D10*
G54D11*
X-1754Y-20254D02*
X-1754Y-8203D01*
X-1754Y-20254D02*
X7297Y-20254D01*
X88754Y-20254D02*
X79703Y-20254D01*
X88754Y-20254D02*
X88754Y-8203D01*
X88754Y100254D02*
X88754Y88203D01*
X88754Y100254D02*
X79703Y100254D01*
X-1754Y100254D02*
X7297Y100254D01*
X-1754Y100254D02*
X-1754Y88203D01*
X-6754Y-20254D02*
X-16754Y-20254D01*
X-11754Y-25254D02*
X-11754Y-15254D01*
X-15504Y-20254D02*
G75*
D01*
G02X-15504Y-20254I3750J0*
G01*
X93754Y-20254D02*
X103754Y-20254D01*
X98754Y-25254D02*
X98754Y-15254D01*
X95004Y-20254D02*
G75*
D01*
G02X95004Y-20254I3750J0*
G01*
X97504Y-20254D02*
G75*
D01*
G02X97504Y-20254I1250J0*
G01*
X-6754Y100254D02*
X-16754Y100254D01*
X-11754Y95254D02*
X-11754Y105254D01*
X-15504Y100254D02*
G75*
D01*
G02X-15504Y100254I3750J0*
G01*
X-14254Y100254D02*
G75*
D01*
G02X-14254Y100254I2500J0*
G01*
X-13004Y100254D02*
G75*
D01*
G02X-13004Y100254I1250J0*
G01*
G54D12*
X9144Y34629D03*
X15663Y34629D03*
X9144Y39116D03*
X15663Y39116D03*
X39624Y34629D03*
X46143Y34629D03*
X39624Y39116D03*
X46143Y39116D03*
X70104Y34629D03*
X76623Y34629D03*
X70104Y39116D03*
X76623Y39116D03*
X39624Y16849D03*
X46143Y16849D03*
X39624Y21336D03*
X46143Y21336D03*
G54D13*
X4572Y89154D03*
X9652Y89154D03*
X7112Y86614D03*
X11176Y52578D03*
X16256Y52578D03*
X13716Y55118D03*
X18796Y52578D03*
X23876Y52578D03*
X21336Y55118D03*
X24892Y19558D03*
X19812Y19558D03*
X22352Y22098D03*
G54D14*
X33782Y63754D03*
X29972Y61722D03*
X31242Y65278D03*
X26162Y59436D03*
X8636Y67056D03*
X18288Y60960D03*
X22606Y75438D03*
X34036Y68834D03*
X36068Y59436D03*
X34290Y56134D03*
X50800Y56388D03*
X45974Y69088D03*
X68580Y58928D03*
X35814Y66548D03*
X74422Y60960D03*
X74168Y56896D03*
X78232Y57658D03*
X60198Y75692D03*
X52070Y81026D03*
X33020Y67056D03*
X58928Y29718D03*
X76962Y18542D03*
X5334Y10414D03*
X762Y13208D03*
X15240Y23368D03*
G54D15*
X5080Y58654D03*
X5080Y56154D03*
G54D16*
X38992Y49276D03*
X36192Y49276D03*
X38992Y53340D03*
X36192Y53340D03*
X47876Y53340D03*
X50676Y53340D03*
X20952Y34544D03*
X23752Y34544D03*
X33912Y34544D03*
X31112Y34544D03*
X33912Y17272D03*
X31112Y17272D03*
X65408Y34544D03*
X62608Y34544D03*
G54D17*
X57912Y52324D03*
X78232Y46228D03*
G54D18*
X57330Y51742D02*
X58494Y51742D01*
X58494Y52906D01*
X57330Y52906D01*
X57330Y51742D01*D02*
X77650Y45646D02*
X78814Y45646D01*
X78814Y46810D01*
X77650Y46810D01*
X77650Y45646D01*D02*
G54D19*
X57912Y54864D03*
X57912Y57404D03*
X57912Y59944D03*
X60452Y46228D03*
X62992Y46228D03*
X65532Y46228D03*
X68072Y46228D03*
X70612Y46228D03*
X73152Y46228D03*
X75692Y46228D03*
X15748Y3048D03*
G54D20*
X11430Y95250D03*
X13970Y95250D03*
X16510Y95250D03*
X19050Y95250D03*
X21590Y95250D03*
X24130Y95250D03*
X36830Y95250D03*
X39370Y95250D03*
X41910Y95250D03*
X44450Y95250D03*
X46990Y95250D03*
X49530Y95250D03*
G54D21*
X80010Y23368D03*
G54D22*
X70104Y19418D03*
X70104Y27318D03*
G54D23*
X19050Y-6476D03*
X19050Y-11176D03*
X19050Y-15876D03*
X6350Y-13716D03*
X6350Y-8636D03*
G54D24*
X13208Y3048D03*
G54D25*
X12573Y2413D02*
X13843Y2413D01*
X13843Y3683D01*
X12573Y3683D01*
X12573Y2413D01*D02*
G54D26*
X42430Y49808D03*
X42430Y52808D03*
X43930Y52808D03*
G54D27*
X44304Y49430D03*
G54D28*
X5080Y46676D03*
X5080Y47976D03*
X5080Y50576D03*
X5080Y49276D03*
X5080Y51876D03*
G54D29*
X43688Y-16764D03*

M02*
