M48
INCH,TZ
VER,1
FMAT,2
DETECT,ON
ATC,ON
T1C0.0500
T2C0.0295
T3C0.0236
T4C0.0276
T5C0.0400
T6C0.0450
T7C0.1181
T8C0.0550
T9C0.0512
T10C0.0160
T11C0.1575
%
T1
X3600Y13633
X6167
X3600Y15400
X6167
X15600Y13633
X18167
X15600Y15400
X18167
X27600Y13633
X30167
X27600Y15400
X30167
X15600Y6633
X18167
X15600Y8400
X18167
T2
X1800Y35100
X3800
X2800Y34100
X4400Y20700
X6400
X5400Y21700
X7400Y20700
X9400
X8400Y21700
X9800Y7700
X7800
X8800Y8700
T3
X13300Y25100
X11800Y24300
X12300Y25700
X10300Y23400
X3400Y26400
X7200Y24000
X8900Y29700
X13400Y27100
X14200Y23400
X13500Y22100
X20000Y22200
X18100Y27200
X27000Y23200
X14100Y26200
X29300Y24000
X29200Y22400
X30800Y22700
X23700Y29800
X20500Y31900
X13000Y26400
X23200Y11700
X30300Y7300
X2100Y4100
X300Y5200
X6000Y9200
T4
X2000Y23092
Y22108
T5
X22800Y20600
Y21600
Y22600
Y23600
X23800Y18200
X24800
X25800
X26800
X27800
X28800
X29800
X30800
X5200Y1200
X6200
T6
X4500Y37500
X5500
X6500
X7500
X8500
X9500
X14500
X15500
X16500
X17500
X18500
X19500
T7
X31500Y9200
T8
X27600Y7645
Y10755
T9
X7500Y-2550
Y-4400
Y-6250
X2500Y-5400
Y-3400
T10
X2000Y18376
Y18888
Y19912
Y19400
Y20424
T11
X17200Y-6600
M30
