G04 Generated by Ultiboard 14.0 *
%FSLAX33Y33*%
%MOMM*%

%ADD10C,0.001*%
%ADD11C,0.127*%
%ADD12R,1.600X1.800*%
%ADD13R,0.021X1.016*%
%ADD14C,0.593*%
%ADD15R,1.800X1.600*%
%ADD16R,2.100X1.300*%
%ADD17R,4.500X4.500*%
%ADD18C,2.794*%
%ADD19R,1.016X0.021*%
%ADD20R,2.200X0.600*%
%ADD21C,1.800*%
%ADD22C,1.270*%
%ADD23C,1.600*%
%ADD24R,0.600X1.550*%
%ADD25R,1.164X1.164*%
%ADD26C,0.995*%
%ADD27C,2.159*%
%ADD28R,1.000X0.600*%
%ADD29C,2.286*%
%ADD30C,3.356*%
%ADD31C,3.048*%
%ADD32C,2.500*%
%ADD33R,1.397X2.413*%
%ADD34R,4.741X3.725*%
%ADD35R,1.270X1.270*%
%ADD36C,0.889*%
%ADD37R,1.778X1.651*%
%ADD38R,2.667X2.413*%
%ADD39C,1.143*%
%ADD40R,3.000X3.000*%
%ADD41C,4.191*%


G04 ColorRGB 9900CC for the following layer *
%LNSolder Mask Bottom*%
%LPD*%
G54D10*
G54D11*
X-1754Y-20254D02*
X-1754Y-8203D01*
X-1754Y-20254D02*
X7297Y-20254D01*
X88754Y-20254D02*
X79703Y-20254D01*
X88754Y-20254D02*
X88754Y-8203D01*
X88754Y100254D02*
X88754Y88203D01*
X88754Y100254D02*
X79703Y100254D01*
X-1754Y100254D02*
X7297Y100254D01*
X-1754Y100254D02*
X-1754Y88203D01*
X-6754Y-20254D02*
X-16754Y-20254D01*
X-11754Y-25254D02*
X-11754Y-15254D01*
X-15504Y-20254D02*
G75*
D01*
G02X-15504Y-20254I3750J0*
G01*
X93754Y-20254D02*
X103754Y-20254D01*
X98754Y-25254D02*
X98754Y-15254D01*
X95004Y-20254D02*
G75*
D01*
G02X95004Y-20254I3750J0*
G01*
X97504Y-20254D02*
G75*
D01*
G02X97504Y-20254I1250J0*
G01*
X-6754Y100254D02*
X-16754Y100254D01*
X-11754Y95254D02*
X-11754Y105254D01*
X-15504Y100254D02*
G75*
D01*
G02X-15504Y100254I3750J0*
G01*
X-14254Y100254D02*
G75*
D01*
G02X-14254Y100254I2500J0*
G01*
X-13004Y100254D02*
G75*
D01*
G02X-13004Y100254I1250J0*
G01*
G54D12*
X72768Y54864D03*
X75568Y54864D03*
X72768Y58928D03*
X75568Y58928D03*
X72768Y62992D03*
X75568Y62992D03*
X13592Y60452D03*
X10792Y60452D03*
X4696Y70612D03*
X7496Y70612D03*
X46860Y80264D03*
X49660Y80264D03*
X17904Y75184D03*
X20704Y75184D03*
X1648Y43180D03*
X4448Y43180D03*
X82172Y18796D03*
X79372Y18796D03*
X10284Y21336D03*
X13084Y21336D03*
G54D13*
X74549Y73364D03*
X74549Y67860D03*
X73279Y73364D03*
X73279Y67860D03*
X75819Y73364D03*
X77089Y73364D03*
X75819Y67860D03*
X77089Y67860D03*
G54D14*
X74539Y72856D02*
X74559Y72856D01*
X74559Y73872D01*
X74539Y73872D01*
X74539Y72856D01*D02*
X74539Y67352D02*
X74559Y67352D01*
X74559Y68368D01*
X74539Y68368D01*
X74539Y67352D01*D02*
X73269Y72856D02*
X73289Y72856D01*
X73289Y73872D01*
X73269Y73872D01*
X73269Y72856D01*D02*
X73269Y67352D02*
X73289Y67352D01*
X73289Y68368D01*
X73269Y68368D01*
X73269Y67352D01*D02*
X75809Y72856D02*
X75829Y72856D01*
X75829Y73872D01*
X75809Y73872D01*
X75809Y72856D01*D02*
X77079Y72856D02*
X77099Y72856D01*
X77099Y73872D01*
X77079Y73872D01*
X77079Y72856D01*D02*
X75809Y67352D02*
X75829Y67352D01*
X75829Y68368D01*
X75809Y68368D01*
X75809Y67352D01*D02*
X77079Y67352D02*
X77099Y67352D01*
X77099Y68368D01*
X77079Y68368D01*
X77079Y67352D01*D02*
X70908Y21453D02*
X71924Y21453D01*
X71924Y21473D01*
X70908Y21473D01*
X70908Y21453D01*D02*
X70908Y22723D02*
X71924Y22723D01*
X71924Y22743D01*
X70908Y22743D01*
X70908Y22723D01*D02*
X70908Y23993D02*
X71924Y23993D01*
X71924Y24013D01*
X70908Y24013D01*
X70908Y23993D01*D02*
X70908Y25263D02*
X71924Y25263D01*
X71924Y25283D01*
X70908Y25283D01*
X70908Y25263D01*D02*
X76412Y21453D02*
X77428Y21453D01*
X77428Y21473D01*
X76412Y21473D01*
X76412Y21453D01*D02*
X76412Y22723D02*
X77428Y22723D01*
X77428Y22743D01*
X76412Y22743D01*
X76412Y22723D01*D02*
X76412Y23993D02*
X77428Y23993D01*
X77428Y24013D01*
X76412Y24013D01*
X76412Y23993D01*D02*
X76412Y25263D02*
X77428Y25263D01*
X77428Y25283D01*
X76412Y25283D01*
X76412Y25263D01*D02*
X3620Y4054D02*
X5016Y4054D01*
X5016Y6466D01*
X3620Y6466D01*
X3620Y4054D01*D02*
X8192Y4054D02*
X9588Y4054D01*
X9588Y6466D01*
X8192Y6466D01*
X8192Y4054D01*D02*
X11980Y26279D02*
X12996Y26279D01*
X12996Y26299D01*
X11980Y26299D01*
X11980Y26279D01*D02*
X11980Y25009D02*
X12996Y25009D01*
X12996Y25029D01*
X11980Y25029D01*
X11980Y25009D01*D02*
X17484Y26279D02*
X18500Y26279D01*
X18500Y26299D01*
X17484Y26299D01*
X17484Y26279D01*D02*
X17484Y25009D02*
X18500Y25009D01*
X18500Y25029D01*
X17484Y25029D01*
X17484Y25009D01*D02*
X11980Y27549D02*
X12996Y27549D01*
X12996Y27569D01*
X11980Y27569D01*
X11980Y27549D01*D02*
X17484Y27549D02*
X18500Y27549D01*
X18500Y27569D01*
X17484Y27569D01*
X17484Y27549D01*D02*
X11980Y28819D02*
X12996Y28819D01*
X12996Y28839D01*
X11980Y28839D01*
X11980Y28819D01*D02*
X17484Y28819D02*
X18500Y28819D01*
X18500Y28839D01*
X17484Y28839D01*
X17484Y28819D01*D02*
G54D15*
X65532Y70228D03*
X65532Y73028D03*
X74676Y29080D03*
X74676Y31880D03*
X24384Y64640D03*
X24384Y67440D03*
X5080Y64900D03*
X5080Y62100D03*
X8636Y64900D03*
X8636Y62100D03*
X8128Y52200D03*
X8128Y49400D03*
X8636Y27308D03*
X8636Y24508D03*
X65532Y79124D03*
X65532Y76324D03*
G54D16*
X69088Y73476D03*
X69088Y75876D03*
G54D17*
X75692Y79018D03*
X75692Y86868D03*
X75692Y94718D03*
G54D18*
X9144Y34629D03*
X15663Y34629D03*
X9144Y39116D03*
X15663Y39116D03*
X39624Y34629D03*
X46143Y34629D03*
X39624Y39116D03*
X46143Y39116D03*
X70104Y34629D03*
X76623Y34629D03*
X70104Y39116D03*
X76623Y39116D03*
X39624Y16849D03*
X46143Y16849D03*
X39624Y21336D03*
X46143Y21336D03*
G54D19*
X71416Y21463D03*
X71416Y22733D03*
X71416Y24003D03*
X71416Y25273D03*
X76920Y21463D03*
X76920Y22733D03*
X76920Y24003D03*
X76920Y25273D03*
X12488Y26289D03*
X12488Y25019D03*
X17992Y26289D03*
X17992Y25019D03*
X12488Y27559D03*
X17992Y27559D03*
X12488Y28829D03*
X17992Y28829D03*
G54D20*
X39596Y58801D03*
X39596Y60071D03*
X48796Y58801D03*
X48796Y60071D03*
X39596Y61341D03*
X48796Y61341D03*
X39596Y62611D03*
X39596Y63881D03*
X48796Y62611D03*
X48796Y63881D03*
X39596Y65151D03*
X48796Y65151D03*
X39596Y66421D03*
X39596Y67691D03*
X48796Y66421D03*
X48796Y67691D03*
X39596Y70231D03*
X39596Y68961D03*
X48796Y70231D03*
X48796Y68961D03*
X39596Y71501D03*
X48796Y71501D03*
X39596Y72771D03*
X39596Y74041D03*
X48796Y72771D03*
X48796Y74041D03*
X39596Y75311D03*
X48796Y75311D03*
G54D21*
X4572Y89154D03*
X9652Y89154D03*
X7112Y86614D03*
X11176Y52578D03*
X16256Y52578D03*
X13716Y55118D03*
X18796Y52578D03*
X23876Y52578D03*
X21336Y55118D03*
X24892Y19558D03*
X19812Y19558D03*
X22352Y22098D03*
G54D22*
X33782Y63754D03*
X29972Y61722D03*
X31242Y65278D03*
X26162Y59436D03*
X8636Y67056D03*
X18288Y60960D03*
X22606Y75438D03*
X34036Y68834D03*
X36068Y59436D03*
X34290Y56134D03*
X50800Y56388D03*
X45974Y69088D03*
X68580Y58928D03*
X35814Y66548D03*
X74422Y60960D03*
X74168Y56896D03*
X78232Y57658D03*
X60198Y75692D03*
X52070Y81026D03*
X33020Y67056D03*
X58928Y29718D03*
X76962Y18542D03*
X5334Y10414D03*
X4234Y8605D02*
X8974Y8605D01*
X8974Y12329D01*
X4234Y12329D01*
X4234Y8605D01*D02*
X762Y13208D03*
X15240Y23368D03*
G54D23*
X5080Y58654D03*
X5080Y56154D03*
G54D24*
X14478Y63340D03*
X15748Y63340D03*
X18288Y63340D03*
X17018Y63340D03*
X19558Y63340D03*
X20828Y63340D03*
X22098Y63340D03*
X14478Y68740D03*
X15748Y68740D03*
X18288Y68740D03*
X17018Y68740D03*
X19558Y68740D03*
X20828Y68740D03*
X22098Y68740D03*
G54D25*
X57912Y52324D03*
X78232Y46228D03*
G54D26*
X57330Y51742D02*
X58494Y51742D01*
X58494Y52906D01*
X57330Y52906D01*
X57330Y51742D01*D02*
X77650Y45646D02*
X78814Y45646D01*
X78814Y46810D01*
X77650Y46810D01*
X77650Y45646D01*D02*
G54D27*
X57912Y54864D03*
X57912Y57404D03*
X57912Y59944D03*
X60452Y46228D03*
X62992Y46228D03*
X65532Y46228D03*
X68072Y46228D03*
X70612Y46228D03*
X73152Y46228D03*
X75692Y46228D03*
X15748Y3048D03*
G54D28*
X49650Y91506D03*
X49650Y93406D03*
X51950Y92456D03*
G54D29*
X11430Y95250D03*
X13970Y95250D03*
X16510Y95250D03*
X19050Y95250D03*
X21590Y95250D03*
X24130Y95250D03*
X36830Y95250D03*
X39370Y95250D03*
X41910Y95250D03*
X44450Y95250D03*
X46990Y95250D03*
X49530Y95250D03*
G54D30*
X80010Y23368D03*
G54D31*
X70104Y19418D03*
X70104Y27318D03*
G54D32*
X19050Y-6476D03*
X19050Y-11176D03*
X19050Y-15876D03*
X6350Y-13716D03*
X6350Y-8636D03*
G54D33*
X4318Y5260D03*
X8890Y5260D03*
G54D34*
X6604Y10467D03*
G54D35*
X13208Y3048D03*
G54D36*
X12573Y2413D02*
X13843Y2413D01*
X13843Y3683D01*
X12573Y3683D01*
X12573Y2413D01*D02*
G54D37*
X3048Y28358D03*
G54D38*
X3048Y23458D03*
G54D39*
X5080Y46676D03*
X5080Y47976D03*
X5080Y50576D03*
X5080Y49276D03*
X5080Y51876D03*
G54D40*
X84328Y23708D03*
X84328Y28108D03*
G54D41*
X43688Y-16764D03*

M02*
