G04 Generated by Ultiboard 14.0 *
%FSLAX33Y33*%
%MOMM*%

%ADD10C,0.001*%
%ADD11C,0.508*%
%ADD12C,0.635*%
%ADD13C,0.254*%
%ADD14C,0.889*%
%ADD15C,0.762*%
%ADD16C,1.016*%
%ADD17C,0.127*%
%ADD18C,2.794*%
%ADD19C,1.800*%
%ADD20C,1.270*%
%ADD21C,1.600*%
%ADD22R,1.600X1.800*%
%ADD23R,1.164X1.164*%
%ADD24C,0.995*%
%ADD25C,2.159*%
%ADD26C,2.286*%
%ADD27C,3.356*%
%ADD28C,3.048*%
%ADD29C,2.500*%
%ADD30R,1.270X1.270*%
%ADD31C,0.889*%
%ADD32R,1.100X1.500*%
%ADD33R,1.778X3.810*%
%ADD34C,1.143*%
%ADD35C,4.191*%


G04 ColorRGB 00FF00 for the following layer *
%LNCopper Top*%
%LPD*%
G54D10*
G36*
X44528Y-19362D02*
X44528Y-19362D01*
X87862Y-19362D01*
X87862Y99362D01*
X-862Y99362D01*
X-862Y-19362D01*
X42848Y-19362D01*
G75*
D01*
G02X44528Y-19362I840J2598*
G01*
D02*
G37*
%LPC*%
G36*
X45720Y96494D02*
G75*
D01*
G02X48260Y96494I1270J-1243*
G01*
G75*
D01*
G02X48260Y94006I1269J-1244*
G01*
G74*
D01*
G02X48011Y93794I1272J1241*
G01*
X48011Y93794D01*
X48011Y91440D01*
G75*
D01*
G02X47711Y90717I-1021J0*
G01*
X47711Y90717D01*
X45862Y88868D01*
X45862Y88868D01*
X45427Y88433D01*
G74*
D01*
G02X44704Y88133I723J721*
G01*
X44704Y88133D01*
X10798Y88133D01*
G75*
D01*
G02X8506Y88133I-1146J1020*
G01*
X8506Y88133D01*
X7535Y88133D01*
X7501Y88099D01*
G75*
D01*
G02X5627Y86225I-389J-1485*
G01*
X5627Y86225D01*
X2291Y82889D01*
X2291Y53001D01*
X3695Y51597D01*
X3906Y51597D01*
G75*
D01*
G02X6254Y51597I1174J276*
G01*
X6254Y51597D01*
X8751Y51597D01*
X9644Y52489D01*
G75*
D01*
G02X10956Y54097I1531J90*
G01*
X10956Y54097D01*
X10414Y54097D01*
G75*
D01*
G02X10089Y54150I0J1021*
G01*
G74*
D01*
G02X9692Y54396I325J968*
G01*
X9692Y54396D01*
X6256Y57832D01*
G74*
D01*
G02X5785Y57404I1176J821*
G01*
G75*
D01*
G02X4375Y57404I-705J-1250*
G01*
G75*
D01*
G02X5837Y59873I706J1250*
G01*
X5837Y59873D01*
X5837Y65531D01*
G75*
D01*
G02X6136Y66254I1021J1*
G01*
X6136Y66254D01*
X7494Y67612D01*
G75*
D01*
G02X8558Y65788I1142J-556*
G01*
X8558Y65788D01*
X7879Y65109D01*
X7879Y59097D01*
X10837Y56139D01*
X12570Y56139D01*
G75*
D01*
G02X15110Y55760I1146J-1020*
G01*
X15110Y55760D01*
X17331Y57980D01*
X17331Y60125D01*
G75*
D01*
G02X19245Y60125I957J835*
G01*
X19245Y60125D01*
X19245Y57584D01*
G75*
D01*
G02X18964Y56906I-957J-1*
G01*
X18964Y56906D01*
X15712Y53654D01*
X15712Y53122D01*
X15180Y53122D01*
X14214Y52156D01*
G74*
D01*
G02X13749Y51899I677J676*
G01*
G75*
D01*
G02X13536Y51875I-213J933*
G01*
X13536Y51875D01*
X12541Y51875D01*
G75*
D01*
G02X11087Y51046I-1364J703*
G01*
X11087Y51046D01*
X9897Y49855D01*
G74*
D01*
G02X9174Y49555I723J721*
G01*
X9174Y49555D01*
X5723Y49555D01*
G74*
D01*
G02X5253Y49382I643J1021*
G01*
G75*
D01*
G02X5253Y49170I-172J-106*
G01*
G74*
D01*
G02X5914Y48848I173J1194*
G01*
X5914Y48848D01*
X6208Y48848D01*
G74*
D01*
G02X6096Y48626I1127J429*
G01*
G75*
D01*
G02X6096Y47326I-1016J-650*
G01*
G75*
D01*
G02X4064Y47326I-1016J-650*
G01*
G75*
D01*
G02X4064Y48626I1016J650*
G01*
G74*
D01*
G02X3952Y48848I1015J651*
G01*
X3952Y48848D01*
X4246Y48848D01*
G74*
D01*
G02X4907Y49170I834J872*
G01*
G75*
D01*
G02X4907Y49382I172J106*
G01*
G74*
D01*
G02X4437Y49555I173J1194*
G01*
X4437Y49555D01*
X3272Y49555D01*
G75*
D01*
G02X2931Y49614I1J1021*
G01*
G74*
D01*
G02X2550Y49854I340J962*
G01*
X2550Y49854D01*
X1042Y51362D01*
X1042Y51362D01*
X548Y51856D01*
G75*
D01*
G02X249Y52580I722J722*
G01*
X249Y52580D01*
X249Y83311D01*
G75*
D01*
G02X548Y84034I1021J1*
G01*
X548Y84034D01*
X5116Y88602D01*
X5116Y88610D01*
X5124Y88610D01*
X6390Y89876D01*
G75*
D01*
G02X7113Y90175I722J-722*
G01*
X7113Y90175D01*
X8506Y90175D01*
G75*
D01*
G02X10798Y90175I1146J-1020*
G01*
X10798Y90175D01*
X44281Y90175D01*
X45862Y91756D01*
X45862Y91756D01*
X45969Y91863D01*
X45969Y93794D01*
G74*
D01*
G02X45720Y94006I1023J1454*
G01*
G75*
D01*
G02X43180Y94006I-1270J1243*
G01*
G75*
D01*
G02X40640Y94006I-1270J1243*
G01*
G75*
D01*
G02X38100Y94006I-1270J1243*
G01*
G75*
D01*
G02X38100Y96494I-1269J1244*
G01*
G75*
D01*
G02X40640Y96494I1270J-1243*
G01*
G75*
D01*
G02X43180Y96494I1270J-1243*
G01*
G75*
D01*
G02X45720Y96494I1270J-1243*
G01*
D02*
G37*
G36*
X72195Y47650D02*
X72195Y47650D01*
X72195Y49388D01*
X70221Y51362D01*
X70221Y51362D01*
X70216Y51367D01*
X69597Y51367D01*
X69595Y51367D01*
X69595Y51367D01*
X59568Y51367D01*
G74*
D01*
G02X58494Y50604I1074J374*
G01*
X58494Y50604D01*
X57330Y50604D01*
G75*
D01*
G02X56256Y51367I0J1138*
G01*
X56256Y51367D01*
X53482Y51367D01*
X53477Y51362D01*
X50870Y48754D01*
G74*
D01*
G02X50192Y48473I677J676*
G01*
X50192Y48473D01*
X45831Y48473D01*
X45831Y47525D01*
G75*
D01*
G02X45193Y46887I-638J0*
G01*
X45193Y46887D01*
X43415Y46887D01*
G75*
D01*
G02X42777Y47525I0J638*
G01*
X42777Y47525D01*
X42777Y48420D01*
X41880Y48420D01*
G75*
D01*
G02X41276Y48851I-1J638*
G01*
X41276Y48851D01*
X41060Y48851D01*
X40810Y48600D01*
G74*
D01*
G02X40430Y48366I678J675*
G01*
G74*
D01*
G02X39792Y47738I638J10*
G01*
X39792Y47738D01*
X38192Y47738D01*
G75*
D01*
G02X37592Y48159I0J638*
G01*
G74*
D01*
G02X36992Y47738I600J217*
G01*
X36992Y47738D01*
X35392Y47738D01*
G75*
D01*
G02X34759Y48298I0J638*
G01*
G74*
D01*
G02X34330Y48554I292J977*
G01*
X34330Y48554D01*
X33568Y49316D01*
G75*
D01*
G02X33269Y50039I722J722*
G01*
X33269Y50039D01*
X33269Y55379D01*
G75*
D01*
G02X35171Y57049I1013J765*
G01*
X35171Y57049D01*
X35171Y58537D01*
G75*
D01*
G02X37213Y58886I897J897*
G01*
X37213Y58886D01*
X37213Y54839D01*
G74*
D01*
G02X37592Y54457I221J598*
G01*
G75*
D01*
G02X38192Y54878I600J-217*
G01*
X38192Y54878D01*
X39792Y54878D01*
G74*
D01*
G02X40428Y54296I0J638*
G01*
G74*
D01*
G02X41064Y54016I41J955*
G01*
X41064Y54016D01*
X41287Y53793D01*
G75*
D01*
G02X41880Y54196I592J-234*
G01*
X41880Y54196D01*
X42980Y54196D01*
G74*
D01*
G02X43180Y54164I0J638*
G01*
G75*
D01*
G02X43380Y54196I200J-606*
G01*
X43380Y54196D01*
X44480Y54196D01*
G74*
D01*
G02X45084Y53765I1J638*
G01*
X45084Y53765D01*
X45554Y53765D01*
X45805Y54017D01*
G74*
D01*
G02X46440Y54296I676J677*
G01*
G75*
D01*
G02X47076Y54878I636J-56*
G01*
X47076Y54878D01*
X48676Y54878D01*
G74*
D01*
G02X49276Y54457I0J638*
G01*
G74*
D01*
G02X49719Y54858I600J217*
G01*
X49719Y54858D01*
X49719Y55722D01*
G75*
D01*
G02X49664Y56955I1080J666*
G01*
X49664Y56955D01*
X46736Y56955D01*
G75*
D01*
G02X46543Y56975I2J957*
G01*
G74*
D01*
G02X46059Y57235I191J937*
G01*
X46059Y57235D01*
X45297Y57997D01*
G75*
D01*
G02X45017Y58676I677J676*
G01*
X45017Y58676D01*
X45017Y68253D01*
G75*
D01*
G02X46931Y68253I957J835*
G01*
X46931Y68253D01*
X46931Y59070D01*
X47132Y58869D01*
X51815Y58869D01*
G75*
D01*
G02X52017Y58848I3J-957*
G01*
G74*
D01*
G02X52494Y58588I201J936*
G01*
X52494Y58588D01*
X53762Y57320D01*
G74*
D01*
G02X54043Y56642I676J677*
G01*
X54043Y56642D01*
X54043Y53482D01*
X54244Y53281D01*
X56256Y53281D01*
G74*
D01*
G02X56591Y53771I1074J374*
G01*
G74*
D01*
G02X56309Y54256I1321J1092*
G01*
X56309Y54256D01*
X57304Y54256D01*
X57304Y54044D01*
G75*
D01*
G02X57330Y54044I13J-1138*
G01*
X57330Y54044D01*
X58494Y54044D01*
G74*
D01*
G02X58520Y54044I13J1138*
G01*
X58520Y54044D01*
X58520Y54256D01*
X59515Y54256D01*
G74*
D01*
G02X59233Y53771I1603J607*
G01*
G74*
D01*
G02X59568Y53281I739J864*
G01*
X59568Y53281D01*
X67168Y53281D01*
X67623Y53736D01*
X67623Y58093D01*
G75*
D01*
G02X67611Y59749I957J835*
G01*
X67611Y59749D01*
X66944Y59749D01*
X63924Y56728D01*
G74*
D01*
G02X63455Y56470I677J676*
G01*
G75*
D01*
G02X63245Y56447I-209J934*
G01*
X63245Y56447D01*
X59334Y56447D01*
G74*
D01*
G02X59064Y56134I1423J955*
G01*
G74*
D01*
G02X59515Y55472I1152J1269*
G01*
X59515Y55472D01*
X58520Y55472D01*
X58520Y55801D01*
G75*
D01*
G02X57304Y55801I-608J1603*
G01*
X57304Y55801D01*
X57304Y55472D01*
X56309Y55472D01*
G74*
D01*
G02X56760Y56134I1603J607*
G01*
G75*
D01*
G02X56760Y58674I1151J1270*
G01*
G75*
D01*
G02X59334Y60901I1154J1268*
G01*
X59334Y60901D01*
X61580Y60901D01*
X63331Y62653D01*
G75*
D01*
G02X64008Y62933I676J-677*
G01*
X64008Y62933D01*
X70104Y62933D01*
G74*
D01*
G02X70782Y62652I1J957*
G01*
X70782Y62652D01*
X73294Y60139D01*
X73453Y60139D01*
G75*
D01*
G02X73465Y61795I969J821*
G01*
X73465Y61795D01*
X73465Y67422D01*
X69862Y71025D01*
X68946Y71941D01*
X44846Y71941D01*
X44391Y71486D01*
X44391Y68326D01*
G75*
D01*
G02X44110Y67648I-957J-1*
G01*
X44110Y67648D01*
X42334Y65872D01*
G74*
D01*
G02X41656Y65591I677J676*
G01*
X41656Y65591D01*
X36649Y65591D01*
G75*
D01*
G02X36649Y67505I-835J957*
G01*
X36649Y67505D01*
X41260Y67505D01*
X42477Y68722D01*
X42477Y71881D01*
G75*
D01*
G02X42757Y72559I957J2*
G01*
X42757Y72559D01*
X43773Y73575D01*
G75*
D01*
G02X44451Y73855I676J-677*
G01*
X44451Y73855D01*
X69342Y73855D01*
G74*
D01*
G02X70020Y73574I1J957*
G01*
X70020Y73574D01*
X75098Y68496D01*
G74*
D01*
G02X75379Y67818I676J677*
G01*
X75379Y67818D01*
X75379Y61795D01*
G75*
D01*
G02X75391Y60139I-957J-835*
G01*
X75391Y60139D01*
X76708Y60139D01*
G74*
D01*
G02X77386Y59858I1J957*
G01*
X77386Y59858D01*
X78319Y58925D01*
G75*
D01*
G02X76965Y57571I-88J-1266*
G01*
X76965Y57571D01*
X76312Y58225D01*
X72899Y58225D01*
G75*
D01*
G02X72221Y58505I-2J957*
G01*
X72221Y58505D01*
X70807Y59919D01*
X70807Y58054D01*
X71008Y57853D01*
X73333Y57853D01*
G75*
D01*
G02X73333Y55939I835J-957*
G01*
X73333Y55939D01*
X70612Y55939D01*
G75*
D01*
G02X70419Y55959I2J957*
G01*
G74*
D01*
G02X69935Y56219I191J937*
G01*
X69935Y56219D01*
X69862Y56293D01*
X69537Y56617D01*
X69537Y53736D01*
X69862Y53412D01*
X69992Y53281D01*
X70612Y53281D01*
G74*
D01*
G02X71290Y53000I1J957*
G01*
X71290Y53000D01*
X72928Y51362D01*
X73828Y50462D01*
G74*
D01*
G02X74109Y49784I676J677*
G01*
X74109Y49784D01*
X74109Y47650D01*
G74*
D01*
G02X74422Y47380I955J1423*
G01*
G75*
D01*
G02X76785Y47549I1270J-1151*
G01*
G74*
D01*
G02X77622Y47948I865J738*
G01*
X77622Y47948D01*
X77622Y46838D01*
X77294Y46838D01*
G75*
D01*
G02X77294Y45618I-1602J-610*
G01*
X77294Y45618D01*
X77622Y45618D01*
X77622Y44508D01*
G74*
D01*
G02X77566Y44511I33J1138*
G01*
G74*
D01*
G02X77685Y44409I602J823*
G01*
X77685Y44409D01*
X79969Y42125D01*
G74*
D01*
G02X80269Y41402I721J723*
G01*
X80269Y41402D01*
X80269Y36068D01*
G75*
D01*
G02X79969Y35345I-1021J0*
G01*
X79969Y35345D01*
X78531Y33907D01*
G74*
D01*
G02X78518Y33894I728J715*
G01*
G75*
D01*
G02X74831Y33672I-1894J735*
G01*
X74831Y33672D01*
X71896Y33672D01*
G75*
D01*
G02X68442Y33459I-1792J955*
G01*
X68442Y33459D01*
X66819Y33459D01*
G74*
D01*
G02X66208Y33006I611J185*
G01*
X66208Y33006D01*
X64608Y33006D01*
G75*
D01*
G02X64008Y33427I0J638*
G01*
G74*
D01*
G02X63408Y33006I600J217*
G01*
X63408Y33006D01*
X62931Y33006D01*
X60647Y30722D01*
X60647Y29718D01*
G75*
D01*
G02X60366Y29040I-957J-1*
G01*
X60366Y29040D01*
X59987Y28661D01*
G74*
D01*
G02X59985Y28659I678J676*
G01*
X59985Y28659D01*
X59247Y27922D01*
X59247Y18158D01*
G75*
D01*
G02X58966Y17480I-957J-1*
G01*
X58966Y17480D01*
X54018Y12532D01*
G74*
D01*
G02X53340Y12251I677J676*
G01*
X53340Y12251D01*
X33528Y12251D01*
G75*
D01*
G02X32851Y12531I-1J957*
G01*
X32851Y12531D01*
X30435Y14947D01*
G75*
D01*
G02X30155Y15625I677J676*
G01*
X30155Y15625D01*
X30155Y15754D01*
G74*
D01*
G02X29724Y16123I155J618*
G01*
X29724Y16123D01*
X28540Y16123D01*
X24813Y12397D01*
G74*
D01*
G02X24000Y12059I814J810*
G01*
X24000Y12059D01*
X1304Y12059D01*
G75*
D01*
G02X1304Y14357I-541J1149*
G01*
X1304Y14357D01*
X18247Y14357D01*
X18791Y14901D01*
X18791Y18412D01*
G75*
D01*
G02X20833Y18412I1021J1145*
G01*
X20833Y18412D01*
X20833Y14901D01*
X21377Y14357D01*
X23524Y14357D01*
X27252Y18084D01*
G75*
D01*
G02X28064Y18421I813J-811*
G01*
X28064Y18421D01*
X29724Y18421D01*
G74*
D01*
G02X30027Y18743I587J249*
G01*
X30027Y18743D01*
X30027Y33073D01*
G74*
D01*
G02X29701Y33459I285J571*
G01*
X29701Y33459D01*
X25163Y33459D01*
G74*
D01*
G02X24552Y33006I611J185*
G01*
X24552Y33006D01*
X22952Y33006D01*
G75*
D01*
G02X22352Y33427I0J638*
G01*
G74*
D01*
G02X21752Y33006I600J217*
G01*
X21752Y33006D01*
X20152Y33006D01*
G75*
D01*
G02X19522Y33544I0J638*
G01*
X19522Y33544D01*
X17382Y33544D01*
G75*
D01*
G02X17382Y35713I-1718J1085*
G01*
X17382Y35713D01*
X19574Y35713D01*
G75*
D01*
G02X20152Y36082I578J-268*
G01*
X20152Y36082D01*
X21752Y36082D01*
G74*
D01*
G02X22352Y35661I0J638*
G01*
G75*
D01*
G02X22952Y36082I600J-217*
G01*
X22952Y36082D01*
X24552Y36082D01*
G74*
D01*
G02X25163Y35629I0J638*
G01*
X25163Y35629D01*
X29701Y35629D01*
G75*
D01*
G02X30312Y36082I611J-185*
G01*
X30312Y36082D01*
X31912Y36082D01*
G74*
D01*
G02X32512Y35661I0J638*
G01*
G75*
D01*
G02X33112Y36082I600J-217*
G01*
X33112Y36082D01*
X34712Y36082D01*
G74*
D01*
G02X35323Y35629I0J638*
G01*
X35323Y35629D01*
X37855Y35629D01*
G75*
D01*
G02X41143Y35978I1769J-1000*
G01*
X41143Y35978D01*
X41143Y37766D01*
G74*
D01*
G02X40345Y37216I1519J1350*
G01*
X40345Y37216D01*
X40345Y38395D01*
X41143Y38395D01*
X41143Y39201D01*
X40508Y39837D01*
X40345Y39837D01*
X40345Y40000D01*
X40217Y40127D01*
X38903Y40127D01*
X38903Y39837D01*
X37724Y39837D01*
G74*
D01*
G02X37861Y40127I1900J720*
G01*
X37861Y40127D01*
X32004Y40127D01*
G75*
D01*
G02X31282Y40426I0J1021*
G01*
X31282Y40426D01*
X27218Y44490D01*
G74*
D01*
G02X27120Y44604I723J721*
G01*
G74*
D01*
G02X26883Y44235I958J354*
G01*
X26883Y44235D01*
X23837Y41189D01*
G74*
D01*
G02X23114Y40889I723J721*
G01*
X23114Y40889D01*
X16656Y40889D01*
G74*
D01*
G02X17563Y39837I993J1773*
G01*
X17563Y39837D01*
X16384Y39837D01*
X16384Y40889D01*
X14943Y40889D01*
X14943Y39837D01*
X13975Y39837D01*
X13975Y38395D01*
X14943Y38395D01*
X14943Y37216D01*
G74*
D01*
G02X13975Y37985I719J1899*
G01*
X13975Y37985D01*
X13975Y37592D01*
G75*
D01*
G02X13675Y36869I-1021J0*
G01*
X13675Y36869D01*
X11157Y34351D01*
G75*
D01*
G02X8080Y32897I-2013J277*
G01*
X8080Y32897D01*
X15916Y25062D01*
G74*
D01*
G02X16197Y24384I676J677*
G01*
X16197Y24384D01*
X16197Y24203D01*
G75*
D01*
G02X14189Y24081I-957J-835*
G01*
X14189Y24081D01*
X10909Y27362D01*
X5673Y32597D01*
G75*
D01*
G02X5393Y33275I677J676*
G01*
X5393Y33275D01*
X5393Y40131D01*
G75*
D01*
G02X5673Y40809I957J2*
G01*
X5673Y40809D01*
X16226Y51362D01*
X16341Y51477D01*
G74*
D01*
G02X16800Y51732I676J677*
G01*
X16800Y51732D01*
X16800Y52034D01*
X17361Y52034D01*
G75*
D01*
G02X17361Y53122I1434J544*
G01*
X17361Y53122D01*
X16800Y53122D01*
X16800Y54013D01*
G74*
D01*
G02X17526Y53440I543J1435*
G01*
G75*
D01*
G02X20298Y52894I1270J-860*
G01*
X20298Y52894D01*
X21020Y53616D01*
G75*
D01*
G02X20379Y56318I314J1502*
G01*
X20379Y56318D01*
X20379Y72643D01*
G75*
D01*
G02X20659Y73321I957J2*
G01*
X20659Y73321D01*
X21649Y74310D01*
X21649Y74603D01*
G75*
D01*
G02X23563Y74603I957J835*
G01*
X23563Y74603D01*
X23563Y73914D01*
G75*
D01*
G02X23282Y73236I-957J-1*
G01*
X23282Y73236D01*
X22293Y72248D01*
X22293Y61493D01*
X30311Y69511D01*
G75*
D01*
G02X30988Y69791I676J-677*
G01*
X30988Y69791D01*
X33201Y69791D01*
G75*
D01*
G02X34180Y67572I835J-957*
G01*
G74*
D01*
G02X34207Y67506I1161J513*
G01*
X34207Y67506D01*
X33470Y67506D01*
X33470Y67697D01*
G74*
D01*
G02X33201Y67877I566J1137*
G01*
X33201Y67877D01*
X32570Y67877D01*
X32570Y67506D01*
X31833Y67506D01*
G74*
D01*
G02X32051Y67877I1187J448*
G01*
X32051Y67877D01*
X31384Y67877D01*
X29790Y66283D01*
G75*
D01*
G02X29972Y66299I180J-1005*
G01*
X29972Y66299D01*
X30487Y66299D01*
G75*
D01*
G02X32004Y66294I755J-1020*
G01*
G74*
D01*
G02X31833Y66606I1017J760*
G01*
X31833Y66606D01*
X32570Y66606D01*
X32570Y65869D01*
G74*
D01*
G02X32258Y66040I448J1187*
G01*
G75*
D01*
G02X30487Y64257I-1016J-762*
G01*
X30487Y64257D01*
X30395Y64257D01*
X28961Y62823D01*
X28961Y62491D01*
G75*
D01*
G02X31021Y62437I1011J-769*
G01*
G74*
D01*
G02X31028Y62444I725J718*
G01*
X31028Y62444D01*
X32526Y63942D01*
G75*
D01*
G02X33970Y62498I1255J-189*
G01*
X33970Y62498D01*
X32771Y61299D01*
X32771Y46651D01*
X34713Y44709D01*
X59657Y44709D01*
G75*
D01*
G02X61722Y47380I798J1517*
G01*
G75*
D01*
G02X64262Y47380I1270J-1151*
G01*
G74*
D01*
G02X64924Y47831I1269J1152*
G01*
X64924Y47831D01*
X64924Y46836D01*
X64595Y46836D01*
G75*
D01*
G02X64595Y45620I-1603J-608*
G01*
X64595Y45620D01*
X64924Y45620D01*
X64924Y44709D01*
X66140Y44709D01*
X66140Y45620D01*
X66469Y45620D01*
G75*
D01*
G02X66469Y46836I1603J608*
G01*
X66469Y46836D01*
X66140Y46836D01*
X66140Y47831D01*
G74*
D01*
G02X66802Y47380I607J1603*
G01*
G75*
D01*
G02X69342Y47380I1270J-1151*
G01*
G75*
D01*
G02X71882Y47380I1270J-1151*
G01*
G74*
D01*
G02X72195Y47650I1268J1153*
G01*
D02*
G37*
G36*
X21862Y94747D02*
G75*
D01*
G02X21862Y94747I-272J503*
G01*
D02*
G37*
G36*
X72263Y27362D02*
G75*
D01*
G02X72263Y27362I-2159J-44*
G01*
D02*
G37*
G36*
X15712Y51143D02*
G74*
D01*
G02X14821Y52034I543J1434*
G01*
X14821Y52034D01*
X15712Y52034D01*
X15712Y51143D01*
D02*
G37*
G36*
X21862Y20643D02*
G75*
D01*
G02X21862Y20643I490J1455*
G01*
D02*
G37*
G36*
X69862Y17273D02*
G75*
D01*
G02X69862Y17273I242J2145*
G01*
D02*
G37*
G36*
X11488Y3683D02*
G75*
D01*
G02X12573Y4768I1085J0*
G01*
X12573Y4768D01*
X13843Y4768D01*
G74*
D01*
G02X14672Y4383I0J1085*
G01*
G74*
D01*
G02X15140Y4651I1075J1335*
G01*
X15140Y4651D01*
X15140Y3656D01*
X14928Y3656D01*
X14928Y2440D01*
X15140Y2440D01*
X15140Y1445D01*
G74*
D01*
G02X14672Y1713I607J1603*
G01*
G74*
D01*
G02X13843Y1328I829J700*
G01*
X13843Y1328D01*
X12573Y1328D01*
G75*
D01*
G02X11488Y2413I0J1085*
G01*
X11488Y2413D01*
X11488Y3683D01*
D02*
G37*
G36*
X15349Y3362D02*
G75*
D01*
G02X15349Y3362I399J-314*
G01*
D02*
G37*
G36*
X61385Y75242D02*
G74*
D01*
G02X60648Y74505I1187J450*
G01*
X60648Y74505D01*
X60648Y75242D01*
X61385Y75242D01*
D02*
G37*
G36*
X59748Y74505D02*
G74*
D01*
G02X59011Y75242I450J1187*
G01*
X59011Y75242D01*
X59748Y75242D01*
X59748Y74505D01*
D02*
G37*
G36*
X24348Y18123D02*
G74*
D01*
G02X23457Y19014I543J1434*
G01*
X23457Y19014D01*
X24348Y19014D01*
X24348Y18123D01*
D02*
G37*
G36*
X26327Y19014D02*
G74*
D01*
G02X25436Y18123I1434J543*
G01*
X25436Y18123D01*
X25436Y19014D01*
X26327Y19014D01*
D02*
G37*
G36*
X24517Y19558D02*
G75*
D01*
G02X24517Y19558I375J0*
G01*
D02*
G37*
G36*
X23457Y20102D02*
G74*
D01*
G02X24348Y20993I1434J543*
G01*
X24348Y20993D01*
X24348Y20102D01*
X23457Y20102D01*
D02*
G37*
G36*
X25436Y20993D02*
G74*
D01*
G02X26327Y20102I543J1434*
G01*
X26327Y20102D01*
X25436Y20102D01*
X25436Y20993D01*
D02*
G37*
G36*
X65024Y46228D02*
G75*
D01*
G02X65024Y46228I508J0*
G01*
D02*
G37*
G36*
X38989Y39116D02*
G75*
D01*
G02X38989Y39116I635J0*
G01*
D02*
G37*
G36*
X38903Y37216D02*
G74*
D01*
G02X37724Y38395I721J1900*
G01*
X37724Y38395D01*
X38903Y38395D01*
X38903Y37216D01*
D02*
G37*
G36*
X15028Y39116D02*
G75*
D01*
G02X15028Y39116I635J0*
G01*
D02*
G37*
G36*
X17563Y38395D02*
G74*
D01*
G02X16384Y37216I1900J721*
G01*
X16384Y37216D01*
X16384Y38395D01*
X17563Y38395D01*
D02*
G37*
G36*
X22468Y95880D02*
X22468Y95880D01*
X22220Y95880D01*
X22220Y96912D01*
G74*
D01*
G02X22860Y96494I629J1662*
G01*
G75*
D01*
G02X22860Y94006I1269J-1244*
G01*
G74*
D01*
G02X22220Y93588I1269J1244*
G01*
X22220Y93588D01*
X22220Y94620D01*
X22468Y94620D01*
G75*
D01*
G02X22468Y95880I1662J630*
G01*
D02*
G37*
G36*
X76512Y17355D02*
G74*
D01*
G02X75775Y18092I450J1187*
G01*
X75775Y18092D01*
X76512Y18092D01*
X76512Y17355D01*
D02*
G37*
G36*
X78149Y18092D02*
G74*
D01*
G02X77412Y17355I1187J450*
G01*
X77412Y17355D01*
X77412Y18092D01*
X78149Y18092D01*
D02*
G37*
G36*
X75775Y18992D02*
G74*
D01*
G02X76512Y19729I1187J450*
G01*
X76512Y19729D01*
X76512Y18992D01*
X75775Y18992D01*
D02*
G37*
G36*
X77412Y19729D02*
G74*
D01*
G02X78149Y18992I450J1187*
G01*
X78149Y18992D01*
X77412Y18992D01*
X77412Y19729D01*
D02*
G37*
G36*
X76662Y18542D02*
G75*
D01*
G02X76662Y18542I300J0*
G01*
D02*
G37*
G36*
X77697Y23368D02*
G75*
D01*
G02X77697Y23368I2313J0*
G01*
D02*
G37*
G36*
X78842Y44508D02*
X78842Y44508D01*
X78842Y45618D01*
X79952Y45618D01*
G74*
D01*
G02X78842Y44508I1138J28*
G01*
D02*
G37*
G36*
X77724Y46228D02*
G75*
D01*
G02X77724Y46228I508J0*
G01*
D02*
G37*
G36*
X79952Y46838D02*
X79952Y46838D01*
X78842Y46838D01*
X78842Y47948D01*
G74*
D01*
G02X79952Y46838I28J1138*
G01*
D02*
G37*
G36*
X57404Y54864D02*
G75*
D01*
G02X57404Y54864I508J0*
G01*
D02*
G37*
G36*
X15881Y52578D02*
G75*
D01*
G02X15881Y52578I375J0*
G01*
D02*
G37*
G36*
X17165Y-15876D02*
G75*
D01*
G02X17165Y-15876I1885J0*
G01*
D02*
G37*
G36*
X4465Y-13716D02*
G75*
D01*
G02X4465Y-13716I1885J0*
G01*
D02*
G37*
G36*
X17165Y-11176D02*
G75*
D01*
G02X17165Y-11176I1885J0*
G01*
D02*
G37*
G36*
X4465Y-8636D02*
G75*
D01*
G02X4465Y-8636I1885J0*
G01*
D02*
G37*
G36*
X17165Y-6476D02*
G75*
D01*
G02X17165Y-6476I1885J0*
G01*
D02*
G37*
G36*
X17351Y2440D02*
G74*
D01*
G02X16356Y1445I1603J608*
G01*
X16356Y1445D01*
X16356Y2440D01*
X17351Y2440D01*
D02*
G37*
G36*
X4028Y87719D02*
G74*
D01*
G02X3137Y88610I543J1434*
G01*
X3137Y88610D01*
X4028Y88610D01*
X4028Y87719D01*
D02*
G37*
G36*
X3137Y89698D02*
G74*
D01*
G02X4028Y90589I1434J543*
G01*
X4028Y90589D01*
X4028Y89698D01*
X3137Y89698D01*
D02*
G37*
G36*
X5116Y90589D02*
G74*
D01*
G02X6007Y89698I543J1434*
G01*
X6007Y89698D01*
X5116Y89698D01*
X5116Y90589D01*
D02*
G37*
G36*
X4197Y89154D02*
G75*
D01*
G02X4197Y89154I375J0*
G01*
D02*
G37*
G36*
X10800Y93588D02*
G74*
D01*
G02X9768Y94620I630J1662*
G01*
X9768Y94620D01*
X10800Y94620D01*
X10800Y93588D01*
D02*
G37*
G36*
X20320Y96494D02*
G74*
D01*
G02X20960Y96912I1269J1244*
G01*
X20960Y96912D01*
X20960Y95880D01*
X20712Y95880D01*
G75*
D01*
G02X20712Y94620I-1662J-630*
G01*
X20712Y94620D01*
X20960Y94620D01*
X20960Y93588D01*
G74*
D01*
G02X20320Y94006I629J1662*
G01*
G75*
D01*
G02X17780Y94006I-1270J1243*
G01*
G75*
D01*
G02X15240Y94006I-1270J1243*
G01*
G75*
D01*
G02X12700Y94006I-1270J1243*
G01*
G74*
D01*
G02X12060Y93588I1269J1244*
G01*
X12060Y93588D01*
X12060Y94620D01*
X12308Y94620D01*
G75*
D01*
G02X12308Y95880I1662J630*
G01*
X12308Y95880D01*
X12060Y95880D01*
X12060Y96912D01*
G74*
D01*
G02X12700Y96494I629J1662*
G01*
G75*
D01*
G02X15240Y96494I1270J-1243*
G01*
G75*
D01*
G02X17780Y96494I1270J-1243*
G01*
G75*
D01*
G02X20320Y96494I1270J-1243*
G01*
D02*
G37*
G36*
X9768Y95880D02*
G74*
D01*
G02X10800Y96912I1662J630*
G01*
X10800Y96912D01*
X10800Y95880D01*
X9768Y95880D01*
D02*
G37*
G36*
X10859Y95250D02*
G75*
D01*
G02X10859Y95250I571J0*
G01*
D02*
G37*
G36*
X16356Y4651D02*
G74*
D01*
G02X17351Y3656I608J1603*
G01*
X17351Y3656D01*
X16356Y3656D01*
X16356Y4651D01*
D02*
G37*
G36*
X6521Y9964D02*
G74*
D01*
G02X5784Y9227I1187J450*
G01*
X5784Y9227D01*
X5784Y9964D01*
X6521Y9964D01*
D02*
G37*
G36*
X4884Y9227D02*
G74*
D01*
G02X4147Y9964I450J1187*
G01*
X4147Y9964D01*
X4884Y9964D01*
X4884Y9227D01*
D02*
G37*
G36*
X5784Y11601D02*
G74*
D01*
G02X6521Y10864I450J1187*
G01*
X6521Y10864D01*
X5784Y10864D01*
X5784Y11601D01*
D02*
G37*
G36*
X4147Y10864D02*
G74*
D01*
G02X4884Y11601I1187J450*
G01*
X4884Y11601D01*
X4884Y10864D01*
X4147Y10864D01*
D02*
G37*
G36*
X5034Y10414D02*
G75*
D01*
G02X5034Y10414I300J0*
G01*
D02*
G37*
G36*
X32720Y67056D02*
G75*
D01*
G02X32720Y67056I300J0*
G01*
D02*
G37*
G36*
X34207Y66606D02*
G74*
D01*
G02X33470Y65869I1187J450*
G01*
X33470Y65869D01*
X33470Y66606D01*
X34207Y66606D01*
D02*
G37*
G36*
X59898Y75692D02*
G75*
D01*
G02X59898Y75692I300J0*
G01*
D02*
G37*
G36*
X59011Y76142D02*
G74*
D01*
G02X59748Y76879I1187J450*
G01*
X59748Y76879D01*
X59748Y76142D01*
X59011Y76142D01*
D02*
G37*
G36*
X60648Y76879D02*
G74*
D01*
G02X61385Y76142I450J1187*
G01*
X61385Y76142D01*
X60648Y76142D01*
X60648Y76879D01*
D02*
G37*
G36*
X51620Y79839D02*
G74*
D01*
G02X50883Y80576I450J1187*
G01*
X50883Y80576D01*
X51620Y80576D01*
X51620Y79839D01*
D02*
G37*
G36*
X53257Y80576D02*
G74*
D01*
G02X52520Y79839I1187J450*
G01*
X52520Y79839D01*
X52520Y80576D01*
X53257Y80576D01*
D02*
G37*
G36*
X50883Y81476D02*
G74*
D01*
G02X51620Y82213I1187J450*
G01*
X51620Y82213D01*
X51620Y81476D01*
X50883Y81476D01*
D02*
G37*
G36*
X51770Y81026D02*
G75*
D01*
G02X51770Y81026I300J0*
G01*
D02*
G37*
G36*
X52520Y82213D02*
G74*
D01*
G02X53257Y81476I450J1187*
G01*
X53257Y81476D01*
X52520Y81476D01*
X52520Y82213D01*
D02*
G37*
%LPD*%
G36*
X44179Y35149D02*
X44179Y35149D01*
X43185Y36143D01*
X43185Y19389D01*
G75*
D01*
G02X42885Y18666I-1021J0*
G01*
X42885Y18666D01*
X41588Y17369D01*
G75*
D01*
G02X37703Y16187I-1957J-544*
G01*
X37703Y16187D01*
X35323Y16187D01*
G74*
D01*
G02X34712Y15734I611J185*
G01*
X34712Y15734D01*
X33112Y15734D01*
G75*
D01*
G02X32512Y16155I0J638*
G01*
G74*
D01*
G02X32255Y15834I600J217*
G01*
X32255Y15834D01*
X33924Y14165D01*
X52944Y14165D01*
X57333Y18554D01*
X57333Y28316D01*
G75*
D01*
G02X57333Y28320I957J2*
G01*
X57333Y28320D01*
X57333Y29079D01*
G75*
D01*
G02X57333Y29081I957J1*
G01*
X57333Y29081D01*
X57333Y29717D01*
G75*
D01*
G02X57613Y30395I957J2*
G01*
X57613Y30395D01*
X61170Y33951D01*
X61170Y35444D01*
G75*
D01*
G02X61808Y36082I638J0*
G01*
X61808Y36082D01*
X63408Y36082D01*
G74*
D01*
G02X64008Y35661I0J638*
G01*
G75*
D01*
G02X64608Y36082I600J-217*
G01*
X64608Y36082D01*
X66208Y36082D01*
G74*
D01*
G02X66819Y35629I0J638*
G01*
X66819Y35629D01*
X68335Y35629D01*
G75*
D01*
G02X71896Y35586I1769J-1000*
G01*
X71896Y35586D01*
X74831Y35586D01*
G75*
D01*
G02X77925Y36189I1792J-956*
G01*
X77925Y36189D01*
X78227Y36491D01*
X78227Y37868D01*
G74*
D01*
G02X77344Y37216I1604J1248*
G01*
X77344Y37216D01*
X77344Y38395D01*
X78227Y38395D01*
X78227Y39837D01*
X77344Y39837D01*
X77344Y41016D01*
G74*
D01*
G02X78227Y40364I721J1900*
G01*
X78227Y40364D01*
X78227Y40979D01*
X76539Y42667D01*
X42343Y42667D01*
X44409Y40601D01*
G74*
D01*
G02X44567Y40398I720J724*
G01*
G74*
D01*
G02X45423Y41016I1576J1281*
G01*
X45423Y41016D01*
X45423Y39837D01*
X44709Y39837D01*
X44709Y38395D01*
X45423Y38395D01*
X45423Y37216D01*
G74*
D01*
G02X44709Y37677I720J1899*
G01*
X44709Y37677D01*
X44709Y37507D01*
X45623Y36593D01*
G75*
D01*
G02X44179Y35149I519J-1963*
G01*
D02*
G37*
%LPC*%
G36*
X45862Y38547D02*
G75*
D01*
G02X45862Y38547I281J569*
G01*
D02*
G37*
G36*
X45862Y21905D02*
G75*
D01*
G02X45862Y21905I281J-569*
G01*
D02*
G37*
G36*
X45862Y18861D02*
G75*
D01*
G02X45862Y18861I281J-2012*
G01*
D02*
G37*
G36*
X69862Y39703D02*
G75*
D01*
G02X69862Y39703I242J-587*
G01*
D02*
G37*
G36*
X72004Y38395D02*
G74*
D01*
G02X70825Y37216I1900J721*
G01*
X70825Y37216D01*
X70825Y38395D01*
X72004Y38395D01*
D02*
G37*
G36*
X75903Y37216D02*
G74*
D01*
G02X74723Y38395I719J1900*
G01*
X74723Y38395D01*
X75903Y38395D01*
X75903Y37216D01*
D02*
G37*
G36*
X70825Y41016D02*
G74*
D01*
G02X72004Y39837I721J1900*
G01*
X72004Y39837D01*
X70825Y39837D01*
X70825Y41016D01*
D02*
G37*
G36*
X74723Y39837D02*
G74*
D01*
G02X75903Y41016I1900J721*
G01*
X75903Y41016D01*
X75903Y39837D01*
X74723Y39837D01*
D02*
G37*
G36*
X75988Y39116D02*
G75*
D01*
G02X75988Y39116I635J0*
G01*
D02*
G37*
G36*
X48043Y20615D02*
G74*
D01*
G02X46864Y19436I1900J721*
G01*
X46864Y19436D01*
X46864Y20615D01*
X48043Y20615D01*
D02*
G37*
G36*
X46864Y23236D02*
G74*
D01*
G02X48043Y22057I721J1900*
G01*
X48043Y22057D01*
X46864Y22057D01*
X46864Y23236D01*
D02*
G37*
G36*
X44243Y22057D02*
G74*
D01*
G02X45423Y23236I1900J721*
G01*
X45423Y23236D01*
X45423Y22057D01*
X44243Y22057D01*
D02*
G37*
G36*
X45423Y19436D02*
G74*
D01*
G02X44243Y20615I719J1900*
G01*
X44243Y20615D01*
X45423Y20615D01*
X45423Y19436D01*
D02*
G37*
G36*
X48043Y38395D02*
G74*
D01*
G02X46864Y37216I1900J721*
G01*
X46864Y37216D01*
X46864Y38395D01*
X48043Y38395D01*
D02*
G37*
G36*
X69383Y37216D02*
G74*
D01*
G02X68204Y38395I721J1900*
G01*
X68204Y38395D01*
X69383Y38395D01*
X69383Y37216D01*
D02*
G37*
G36*
X46864Y41016D02*
G74*
D01*
G02X48043Y39837I721J1900*
G01*
X48043Y39837D01*
X46864Y39837D01*
X46864Y41016D01*
D02*
G37*
G36*
X68204Y39837D02*
G74*
D01*
G02X69383Y41016I1900J721*
G01*
X69383Y41016D01*
X69383Y39837D01*
X68204Y39837D01*
D02*
G37*
%LPD*%
G36*
X22374Y52262D02*
X22374Y52262D01*
X20236Y50124D01*
G74*
D01*
G02X19558Y49843I677J676*
G01*
X19558Y49843D01*
X17414Y49843D01*
X8423Y40852D01*
X8423Y39837D01*
X7408Y39837D01*
X7307Y39736D01*
X7307Y38395D01*
X8423Y38395D01*
X8423Y37216D01*
G74*
D01*
G02X7307Y38247I721J1900*
G01*
X7307Y38247D01*
X7307Y35497D01*
G75*
D01*
G02X10251Y36333I1837J-867*
G01*
X10251Y36333D01*
X11933Y38015D01*
X11933Y40639D01*
G75*
D01*
G02X12232Y41362I1021J1*
G01*
X12232Y41362D01*
X13502Y42632D01*
G75*
D01*
G02X14225Y42931I722J-722*
G01*
X14225Y42931D01*
X22691Y42931D01*
X25141Y45381D01*
X25141Y51709D01*
G75*
D01*
G02X22374Y52262I-1265J867*
G01*
D02*
G37*
%LPC*%
G36*
X11044Y38395D02*
G74*
D01*
G02X9865Y37216I1900J721*
G01*
X9865Y37216D01*
X9865Y38395D01*
X11044Y38395D01*
D02*
G37*
G36*
X8509Y39116D02*
G75*
D01*
G02X8509Y39116I635J0*
G01*
D02*
G37*
G36*
X9865Y41016D02*
G74*
D01*
G02X11044Y39837I721J1900*
G01*
X11044Y39837D01*
X9865Y39837D01*
X9865Y41016D01*
D02*
G37*
%LPD*%
G36*
X32197Y18743D02*
G74*
D01*
G02X32512Y18389I285J571*
G01*
G75*
D01*
G02X33112Y18810I600J-217*
G01*
X33112Y18810D01*
X34712Y18810D01*
G74*
D01*
G02X35323Y18357I0J638*
G01*
X35323Y18357D01*
X38262Y18357D01*
G75*
D01*
G02X40144Y18813I1362J-1508*
G01*
X40144Y18813D01*
X41143Y19812D01*
X41143Y19986D01*
G74*
D01*
G02X40345Y19436I1519J1350*
G01*
X40345Y19436D01*
X40345Y20615D01*
X41143Y20615D01*
X41143Y22057D01*
X40345Y22057D01*
X40345Y23236D01*
G74*
D01*
G02X41143Y22686I721J1900*
G01*
X41143Y22686D01*
X41143Y33279D01*
G75*
D01*
G02X37962Y33459I-1519J1349*
G01*
X37962Y33459D01*
X35323Y33459D01*
G74*
D01*
G02X34712Y33006I611J185*
G01*
X34712Y33006D01*
X33112Y33006D01*
G75*
D01*
G02X32512Y33427I0J638*
G01*
G74*
D01*
G02X32197Y33073I600J217*
G01*
X32197Y33073D01*
X32197Y18743D01*
D02*
G37*
%LPC*%
G36*
X38903Y19436D02*
G74*
D01*
G02X37724Y20615I721J1900*
G01*
X37724Y20615D01*
X38903Y20615D01*
X38903Y19436D01*
D02*
G37*
G36*
X38989Y21336D02*
G75*
D01*
G02X38989Y21336I635J0*
G01*
D02*
G37*
G36*
X37724Y22057D02*
G74*
D01*
G02X38903Y23236I1900J721*
G01*
X38903Y23236D01*
X38903Y22057D01*
X37724Y22057D01*
D02*
G37*
%LPD*%
G54D11*
X45720Y96494D02*
G75*
D01*
G02X48260Y96494I1270J-1243*
G01*
G75*
D01*
G02X48260Y94006I1269J-1244*
G01*
G74*
D01*
G02X48011Y93794I1272J1241*
G01*
X48011Y91440D01*
G75*
D01*
G02X47711Y90717I-1021J0*
G01*
X45862Y88868D01*
X45862Y88868D01*
X45427Y88433D01*
G74*
D01*
G02X44704Y88133I723J721*
G01*
X10798Y88133D01*
G75*
D01*
G02X8506Y88133I-1146J1020*
G01*
X7535Y88133D01*
X7501Y88099D01*
G75*
D01*
G02X5627Y86225I-389J-1485*
G01*
X2291Y82889D01*
X2291Y53001D01*
X3695Y51597D01*
X3906Y51597D01*
G75*
D01*
G02X6254Y51597I1174J276*
G01*
X8751Y51597D01*
X9644Y52489D01*
G75*
D01*
G02X10956Y54097I1531J90*
G01*
X10414Y54097D01*
G75*
D01*
G02X10089Y54150I0J1021*
G01*
G74*
D01*
G02X9692Y54396I325J968*
G01*
X6256Y57832D01*
G74*
D01*
G02X5785Y57404I1176J821*
G01*
G75*
D01*
G02X4375Y57404I-705J-1250*
G01*
G75*
D01*
G02X5837Y59873I706J1250*
G01*
X5837Y65531D01*
G75*
D01*
G02X6136Y66254I1021J1*
G01*
X7494Y67612D01*
G75*
D01*
G02X8558Y65788I1142J-556*
G01*
X7879Y65109D01*
X7879Y59097D01*
X10837Y56139D01*
X12570Y56139D01*
G75*
D01*
G02X15110Y55760I1146J-1020*
G01*
X17331Y57980D01*
X17331Y60125D01*
G75*
D01*
G02X19245Y60125I957J835*
G01*
X19245Y57584D01*
G75*
D01*
G02X18964Y56906I-957J-1*
G01*
X15712Y53654D01*
X15712Y53122D01*
X15180Y53122D01*
X14214Y52156D01*
G74*
D01*
G02X13749Y51899I677J676*
G01*
G75*
D01*
G02X13536Y51875I-213J933*
G01*
X12541Y51875D01*
G75*
D01*
G02X11087Y51046I-1364J703*
G01*
X9897Y49855D01*
G74*
D01*
G02X9174Y49555I723J721*
G01*
X5723Y49555D01*
G74*
D01*
G02X5253Y49382I643J1021*
G01*
G75*
D01*
G02X5253Y49170I-172J-106*
G01*
G74*
D01*
G02X5914Y48848I173J1194*
G01*
X6208Y48848D01*
G74*
D01*
G02X6096Y48626I1127J429*
G01*
G75*
D01*
G02X6096Y47326I-1016J-650*
G01*
G75*
D01*
G02X4064Y47326I-1016J-650*
G01*
G75*
D01*
G02X4064Y48626I1016J650*
G01*
G74*
D01*
G02X3952Y48848I1015J651*
G01*
X4246Y48848D01*
G74*
D01*
G02X4907Y49170I834J872*
G01*
G75*
D01*
G02X4907Y49382I172J106*
G01*
G74*
D01*
G02X4437Y49555I173J1194*
G01*
X3272Y49555D01*
G75*
D01*
G02X2931Y49614I1J1021*
G01*
G74*
D01*
G02X2550Y49854I340J962*
G01*
X1042Y51362D01*
X1042Y51362D01*
X548Y51856D01*
G75*
D01*
G02X249Y52580I722J722*
G01*
X249Y83311D01*
G75*
D01*
G02X548Y84034I1021J1*
G01*
X5116Y88602D01*
X5116Y88610D01*
X5124Y88610D01*
X6390Y89876D01*
G75*
D01*
G02X7113Y90175I722J-722*
G01*
X8506Y90175D01*
G75*
D01*
G02X10798Y90175I1146J-1020*
G01*
X44281Y90175D01*
X45862Y91756D01*
X45862Y91756D01*
X45969Y91863D01*
X45969Y93794D01*
G74*
D01*
G02X45720Y94006I1023J1454*
G01*
G75*
D01*
G02X43180Y94006I-1270J1243*
G01*
G75*
D01*
G02X40640Y94006I-1270J1243*
G01*
G75*
D01*
G02X38100Y94006I-1270J1243*
G01*
G75*
D01*
G02X38100Y96494I-1269J1244*
G01*
G75*
D01*
G02X40640Y96494I1270J-1243*
G01*
G75*
D01*
G02X43180Y96494I1270J-1243*
G01*
G75*
D01*
G02X45720Y96494I1270J-1243*
G01*
X72195Y47650D02*
X72195Y49388D01*
X70221Y51362D01*
X70221Y51362D01*
X70216Y51367D01*
X69597Y51367D01*
X69595Y51367D01*
X59568Y51367D01*
G74*
D01*
G02X58494Y50604I1074J374*
G01*
X57330Y50604D01*
G75*
D01*
G02X56256Y51367I0J1138*
G01*
X53482Y51367D01*
X53477Y51362D01*
X50870Y48754D01*
G74*
D01*
G02X50192Y48473I677J676*
G01*
X45831Y48473D01*
X45831Y47525D01*
G75*
D01*
G02X45193Y46887I-638J0*
G01*
X43415Y46887D01*
G75*
D01*
G02X42777Y47525I0J638*
G01*
X42777Y48420D01*
X41880Y48420D01*
G75*
D01*
G02X41276Y48851I-1J638*
G01*
X41060Y48851D01*
X40810Y48600D01*
G74*
D01*
G02X40430Y48366I678J675*
G01*
G74*
D01*
G02X39792Y47738I638J10*
G01*
X38192Y47738D01*
G75*
D01*
G02X37592Y48159I0J638*
G01*
G74*
D01*
G02X36992Y47738I600J217*
G01*
X35392Y47738D01*
G75*
D01*
G02X34759Y48298I0J638*
G01*
G74*
D01*
G02X34330Y48554I292J977*
G01*
X33568Y49316D01*
G75*
D01*
G02X33269Y50039I722J722*
G01*
X33269Y55379D01*
G75*
D01*
G02X35171Y57049I1013J765*
G01*
X35171Y58537D01*
G75*
D01*
G02X37213Y58886I897J897*
G01*
X37213Y54839D01*
G74*
D01*
G02X37592Y54457I221J598*
G01*
G75*
D01*
G02X38192Y54878I600J-217*
G01*
X39792Y54878D01*
G74*
D01*
G02X40428Y54296I0J638*
G01*
G74*
D01*
G02X41064Y54016I41J955*
G01*
X41287Y53793D01*
G75*
D01*
G02X41880Y54196I592J-234*
G01*
X42980Y54196D01*
G74*
D01*
G02X43180Y54164I0J638*
G01*
G75*
D01*
G02X43380Y54196I200J-606*
G01*
X44480Y54196D01*
G74*
D01*
G02X45084Y53765I1J638*
G01*
X45554Y53765D01*
X45805Y54017D01*
G74*
D01*
G02X46440Y54296I676J677*
G01*
G75*
D01*
G02X47076Y54878I636J-56*
G01*
X48676Y54878D01*
G74*
D01*
G02X49276Y54457I0J638*
G01*
G74*
D01*
G02X49719Y54858I600J217*
G01*
X49719Y55722D01*
G75*
D01*
G02X49664Y56955I1080J666*
G01*
X46736Y56955D01*
G75*
D01*
G02X46543Y56975I2J957*
G01*
G74*
D01*
G02X46059Y57235I191J937*
G01*
X45297Y57997D01*
G75*
D01*
G02X45017Y58676I677J676*
G01*
X45017Y68253D01*
G75*
D01*
G02X46931Y68253I957J835*
G01*
X46931Y59070D01*
X47132Y58869D01*
X51815Y58869D01*
G75*
D01*
G02X52017Y58848I3J-957*
G01*
G74*
D01*
G02X52494Y58588I201J936*
G01*
X53762Y57320D01*
G74*
D01*
G02X54043Y56642I676J677*
G01*
X54043Y53482D01*
X54244Y53281D01*
X56256Y53281D01*
G74*
D01*
G02X56591Y53771I1074J374*
G01*
G74*
D01*
G02X56309Y54256I1321J1092*
G01*
X57304Y54256D01*
X57304Y54044D01*
G75*
D01*
G02X57330Y54044I13J-1138*
G01*
X58494Y54044D01*
G74*
D01*
G02X58520Y54044I13J1138*
G01*
X58520Y54256D01*
X59515Y54256D01*
G74*
D01*
G02X59233Y53771I1603J607*
G01*
G74*
D01*
G02X59568Y53281I739J864*
G01*
X67168Y53281D01*
X67623Y53736D01*
X67623Y58093D01*
G75*
D01*
G02X67611Y59749I957J835*
G01*
X66944Y59749D01*
X63924Y56728D01*
G74*
D01*
G02X63455Y56470I677J676*
G01*
G75*
D01*
G02X63245Y56447I-209J934*
G01*
X59334Y56447D01*
G74*
D01*
G02X59064Y56134I1423J955*
G01*
G74*
D01*
G02X59515Y55472I1152J1269*
G01*
X58520Y55472D01*
X58520Y55801D01*
G75*
D01*
G02X57304Y55801I-608J1603*
G01*
X57304Y55472D01*
X56309Y55472D01*
G74*
D01*
G02X56760Y56134I1603J607*
G01*
G75*
D01*
G02X56760Y58674I1151J1270*
G01*
G75*
D01*
G02X59334Y60901I1154J1268*
G01*
X61580Y60901D01*
X63331Y62653D01*
G75*
D01*
G02X64008Y62933I676J-677*
G01*
X70104Y62933D01*
G74*
D01*
G02X70782Y62652I1J957*
G01*
X73294Y60139D01*
X73453Y60139D01*
G75*
D01*
G02X73465Y61795I969J821*
G01*
X73465Y67422D01*
X69862Y71025D01*
X68946Y71941D01*
X44846Y71941D01*
X44391Y71486D01*
X44391Y68326D01*
G75*
D01*
G02X44110Y67648I-957J-1*
G01*
X42334Y65872D01*
G74*
D01*
G02X41656Y65591I677J676*
G01*
X36649Y65591D01*
G75*
D01*
G02X36649Y67505I-835J957*
G01*
X41260Y67505D01*
X42477Y68722D01*
X42477Y71881D01*
G75*
D01*
G02X42757Y72559I957J2*
G01*
X43773Y73575D01*
G75*
D01*
G02X44451Y73855I676J-677*
G01*
X69342Y73855D01*
G74*
D01*
G02X70020Y73574I1J957*
G01*
X75098Y68496D01*
G74*
D01*
G02X75379Y67818I676J677*
G01*
X75379Y61795D01*
G75*
D01*
G02X75391Y60139I-957J-835*
G01*
X76708Y60139D01*
G74*
D01*
G02X77386Y59858I1J957*
G01*
X78319Y58925D01*
G75*
D01*
G02X76965Y57571I-88J-1266*
G01*
X76312Y58225D01*
X72899Y58225D01*
G75*
D01*
G02X72221Y58505I-2J957*
G01*
X70807Y59919D01*
X70807Y58054D01*
X71008Y57853D01*
X73333Y57853D01*
G75*
D01*
G02X73333Y55939I835J-957*
G01*
X70612Y55939D01*
G75*
D01*
G02X70419Y55959I2J957*
G01*
G74*
D01*
G02X69935Y56219I191J937*
G01*
X69862Y56293D01*
X69537Y56617D01*
X69537Y53736D01*
X69862Y53412D01*
X69992Y53281D01*
X70612Y53281D01*
G74*
D01*
G02X71290Y53000I1J957*
G01*
X72928Y51362D01*
X73828Y50462D01*
G74*
D01*
G02X74109Y49784I676J677*
G01*
X74109Y47650D01*
G74*
D01*
G02X74422Y47380I955J1423*
G01*
G75*
D01*
G02X76785Y47549I1270J-1151*
G01*
G74*
D01*
G02X77622Y47948I865J738*
G01*
X77622Y46838D01*
X77294Y46838D01*
G75*
D01*
G02X77294Y45618I-1602J-610*
G01*
X77622Y45618D01*
X77622Y44508D01*
G74*
D01*
G02X77566Y44511I33J1138*
G01*
G74*
D01*
G02X77685Y44409I602J823*
G01*
X79969Y42125D01*
G74*
D01*
G02X80269Y41402I721J723*
G01*
X80269Y36068D01*
G75*
D01*
G02X79969Y35345I-1021J0*
G01*
X78531Y33907D01*
G74*
D01*
G02X78518Y33894I728J715*
G01*
G75*
D01*
G02X74831Y33672I-1894J735*
G01*
X71896Y33672D01*
G75*
D01*
G02X68442Y33459I-1792J955*
G01*
X66819Y33459D01*
G74*
D01*
G02X66208Y33006I611J185*
G01*
X64608Y33006D01*
G75*
D01*
G02X64008Y33427I0J638*
G01*
G74*
D01*
G02X63408Y33006I600J217*
G01*
X62931Y33006D01*
X60647Y30722D01*
X60647Y29718D01*
G75*
D01*
G02X60366Y29040I-957J-1*
G01*
X59987Y28661D01*
G74*
D01*
G02X59985Y28659I678J676*
G01*
X59247Y27922D01*
X59247Y18158D01*
G75*
D01*
G02X58966Y17480I-957J-1*
G01*
X54018Y12532D01*
G74*
D01*
G02X53340Y12251I677J676*
G01*
X33528Y12251D01*
G75*
D01*
G02X32851Y12531I-1J957*
G01*
X30435Y14947D01*
G75*
D01*
G02X30155Y15625I677J676*
G01*
X30155Y15754D01*
G74*
D01*
G02X29724Y16123I155J618*
G01*
X28540Y16123D01*
X24813Y12397D01*
G74*
D01*
G02X24000Y12059I814J810*
G01*
X1304Y12059D01*
G75*
D01*
G02X1304Y14357I-541J1149*
G01*
X18247Y14357D01*
X18791Y14901D01*
X18791Y18412D01*
G75*
D01*
G02X20833Y18412I1021J1145*
G01*
X20833Y14901D01*
X21377Y14357D01*
X23524Y14357D01*
X27252Y18084D01*
G75*
D01*
G02X28064Y18421I813J-811*
G01*
X29724Y18421D01*
G74*
D01*
G02X30027Y18743I587J249*
G01*
X30027Y33073D01*
G74*
D01*
G02X29701Y33459I285J571*
G01*
X25163Y33459D01*
G74*
D01*
G02X24552Y33006I611J185*
G01*
X22952Y33006D01*
G75*
D01*
G02X22352Y33427I0J638*
G01*
G74*
D01*
G02X21752Y33006I600J217*
G01*
X20152Y33006D01*
G75*
D01*
G02X19522Y33544I0J638*
G01*
X17382Y33544D01*
G75*
D01*
G02X17382Y35713I-1718J1085*
G01*
X19574Y35713D01*
G75*
D01*
G02X20152Y36082I578J-268*
G01*
X21752Y36082D01*
G74*
D01*
G02X22352Y35661I0J638*
G01*
G75*
D01*
G02X22952Y36082I600J-217*
G01*
X24552Y36082D01*
G74*
D01*
G02X25163Y35629I0J638*
G01*
X29701Y35629D01*
G75*
D01*
G02X30312Y36082I611J-185*
G01*
X31912Y36082D01*
G74*
D01*
G02X32512Y35661I0J638*
G01*
G75*
D01*
G02X33112Y36082I600J-217*
G01*
X34712Y36082D01*
G74*
D01*
G02X35323Y35629I0J638*
G01*
X37855Y35629D01*
G75*
D01*
G02X41143Y35978I1769J-1000*
G01*
X41143Y37766D01*
G74*
D01*
G02X40345Y37216I1519J1350*
G01*
X40345Y38395D01*
X41143Y38395D01*
X41143Y39201D01*
X40508Y39837D01*
X40345Y39837D01*
X40345Y40000D01*
X40217Y40127D01*
X38903Y40127D01*
X38903Y39837D01*
X37724Y39837D01*
G74*
D01*
G02X37861Y40127I1900J720*
G01*
X32004Y40127D01*
G75*
D01*
G02X31282Y40426I0J1021*
G01*
X27218Y44490D01*
G74*
D01*
G02X27120Y44604I723J721*
G01*
G74*
D01*
G02X26883Y44235I958J354*
G01*
X23837Y41189D01*
G74*
D01*
G02X23114Y40889I723J721*
G01*
X16656Y40889D01*
G74*
D01*
G02X17563Y39837I993J1773*
G01*
X16384Y39837D01*
X16384Y40889D01*
X14943Y40889D01*
X14943Y39837D01*
X13975Y39837D01*
X13975Y38395D01*
X14943Y38395D01*
X14943Y37216D01*
G74*
D01*
G02X13975Y37985I719J1899*
G01*
X13975Y37592D01*
G75*
D01*
G02X13675Y36869I-1021J0*
G01*
X11157Y34351D01*
G75*
D01*
G02X8080Y32897I-2013J277*
G01*
X15916Y25062D01*
G74*
D01*
G02X16197Y24384I676J677*
G01*
X16197Y24203D01*
G75*
D01*
G02X14189Y24081I-957J-835*
G01*
X10909Y27362D01*
X5673Y32597D01*
G75*
D01*
G02X5393Y33275I677J676*
G01*
X5393Y40131D01*
G75*
D01*
G02X5673Y40809I957J2*
G01*
X16226Y51362D01*
X16341Y51477D01*
G74*
D01*
G02X16800Y51732I676J677*
G01*
X16800Y52034D01*
X17361Y52034D01*
G75*
D01*
G02X17361Y53122I1434J544*
G01*
X16800Y53122D01*
X16800Y54013D01*
G74*
D01*
G02X17526Y53440I543J1435*
G01*
G75*
D01*
G02X20298Y52894I1270J-860*
G01*
X21020Y53616D01*
G75*
D01*
G02X20379Y56318I314J1502*
G01*
X20379Y72643D01*
G75*
D01*
G02X20659Y73321I957J2*
G01*
X21649Y74310D01*
X21649Y74603D01*
G75*
D01*
G02X23563Y74603I957J835*
G01*
X23563Y73914D01*
G75*
D01*
G02X23282Y73236I-957J-1*
G01*
X22293Y72248D01*
X22293Y61493D01*
X30311Y69511D01*
G75*
D01*
G02X30988Y69791I676J-677*
G01*
X33201Y69791D01*
G75*
D01*
G02X34180Y67572I835J-957*
G01*
G74*
D01*
G02X34207Y67506I1161J513*
G01*
X33470Y67506D01*
X33470Y67697D01*
G74*
D01*
G02X33201Y67877I566J1137*
G01*
X32570Y67877D01*
X32570Y67506D01*
X31833Y67506D01*
G74*
D01*
G02X32051Y67877I1187J448*
G01*
X31384Y67877D01*
X29790Y66283D01*
G75*
D01*
G02X29972Y66299I180J-1005*
G01*
X30487Y66299D01*
G75*
D01*
G02X32004Y66294I755J-1020*
G01*
G74*
D01*
G02X31833Y66606I1017J760*
G01*
X32570Y66606D01*
X32570Y65869D01*
G74*
D01*
G02X32258Y66040I448J1187*
G01*
G75*
D01*
G02X30487Y64257I-1016J-762*
G01*
X30395Y64257D01*
X28961Y62823D01*
X28961Y62491D01*
G75*
D01*
G02X31021Y62437I1011J-769*
G01*
G74*
D01*
G02X31028Y62444I725J718*
G01*
X32526Y63942D01*
G75*
D01*
G02X33970Y62498I1255J-189*
G01*
X32771Y61299D01*
X32771Y46651D01*
X34713Y44709D01*
X59657Y44709D01*
G75*
D01*
G02X61722Y47380I798J1517*
G01*
G75*
D01*
G02X64262Y47380I1270J-1151*
G01*
G74*
D01*
G02X64924Y47831I1269J1152*
G01*
X64924Y46836D01*
X64595Y46836D01*
G75*
D01*
G02X64595Y45620I-1603J-608*
G01*
X64924Y45620D01*
X64924Y44709D01*
X66140Y44709D01*
X66140Y45620D01*
X66469Y45620D01*
G75*
D01*
G02X66469Y46836I1603J608*
G01*
X66140Y46836D01*
X66140Y47831D01*
G74*
D01*
G02X66802Y47380I607J1603*
G01*
G75*
D01*
G02X69342Y47380I1270J-1151*
G01*
G75*
D01*
G02X71882Y47380I1270J-1151*
G01*
G74*
D01*
G02X72195Y47650I1268J1153*
G01*
X21862Y94747D02*
G75*
D01*
G02X21862Y94747I-272J503*
G01*
X72263Y27362D02*
G75*
D01*
G02X72263Y27362I-2159J-44*
G01*
X15712Y51143D02*
G74*
D01*
G02X14821Y52034I543J1434*
G01*
X15712Y52034D01*
X15712Y51143D01*
X21862Y20643D02*
G75*
D01*
G02X21862Y20643I490J1455*
G01*
X69862Y17273D02*
G75*
D01*
G02X69862Y17273I242J2145*
G01*
X11488Y3683D02*
G75*
D01*
G02X12573Y4768I1085J0*
G01*
X13843Y4768D01*
G74*
D01*
G02X14672Y4383I0J1085*
G01*
G74*
D01*
G02X15140Y4651I1075J1335*
G01*
X15140Y3656D01*
X14928Y3656D01*
X14928Y2440D01*
X15140Y2440D01*
X15140Y1445D01*
G74*
D01*
G02X14672Y1713I607J1603*
G01*
G74*
D01*
G02X13843Y1328I829J700*
G01*
X12573Y1328D01*
G75*
D01*
G02X11488Y2413I0J1085*
G01*
X11488Y3683D01*
X15349Y3362D02*
G75*
D01*
G02X15349Y3362I399J-314*
G01*
X61385Y75242D02*
G74*
D01*
G02X60648Y74505I1187J450*
G01*
X60648Y75242D01*
X61385Y75242D01*
X59748Y74505D02*
G74*
D01*
G02X59011Y75242I450J1187*
G01*
X59748Y75242D01*
X59748Y74505D01*
X24348Y18123D02*
G74*
D01*
G02X23457Y19014I543J1434*
G01*
X24348Y19014D01*
X24348Y18123D01*
X26327Y19014D02*
G74*
D01*
G02X25436Y18123I1434J543*
G01*
X25436Y19014D01*
X26327Y19014D01*
X24517Y19558D02*
G75*
D01*
G02X24517Y19558I375J0*
G01*
X23457Y20102D02*
G74*
D01*
G02X24348Y20993I1434J543*
G01*
X24348Y20102D01*
X23457Y20102D01*
X25436Y20993D02*
G74*
D01*
G02X26327Y20102I543J1434*
G01*
X25436Y20102D01*
X25436Y20993D01*
X65024Y46228D02*
G75*
D01*
G02X65024Y46228I508J0*
G01*
X38989Y39116D02*
G75*
D01*
G02X38989Y39116I635J0*
G01*
X38903Y37216D02*
G74*
D01*
G02X37724Y38395I721J1900*
G01*
X38903Y38395D01*
X38903Y37216D01*
X15028Y39116D02*
G75*
D01*
G02X15028Y39116I635J0*
G01*
X17563Y38395D02*
G74*
D01*
G02X16384Y37216I1900J721*
G01*
X16384Y38395D01*
X17563Y38395D01*
X22468Y95880D02*
X22220Y95880D01*
X22220Y96912D01*
G74*
D01*
G02X22860Y96494I629J1662*
G01*
G75*
D01*
G02X22860Y94006I1269J-1244*
G01*
G74*
D01*
G02X22220Y93588I1269J1244*
G01*
X22220Y94620D01*
X22468Y94620D01*
G75*
D01*
G02X22468Y95880I1662J630*
G01*
X76512Y17355D02*
G74*
D01*
G02X75775Y18092I450J1187*
G01*
X76512Y18092D01*
X76512Y17355D01*
X78149Y18092D02*
G74*
D01*
G02X77412Y17355I1187J450*
G01*
X77412Y18092D01*
X78149Y18092D01*
X75775Y18992D02*
G74*
D01*
G02X76512Y19729I1187J450*
G01*
X76512Y18992D01*
X75775Y18992D01*
X77412Y19729D02*
G74*
D01*
G02X78149Y18992I450J1187*
G01*
X77412Y18992D01*
X77412Y19729D01*
X76662Y18542D02*
G75*
D01*
G02X76662Y18542I300J0*
G01*
X77697Y23368D02*
G75*
D01*
G02X77697Y23368I2313J0*
G01*
X78842Y44508D02*
X78842Y45618D01*
X79952Y45618D01*
G74*
D01*
G02X78842Y44508I1138J28*
G01*
X77724Y46228D02*
G75*
D01*
G02X77724Y46228I508J0*
G01*
X79952Y46838D02*
X78842Y46838D01*
X78842Y47948D01*
G74*
D01*
G02X79952Y46838I28J1138*
G01*
X57404Y54864D02*
G75*
D01*
G02X57404Y54864I508J0*
G01*
X15881Y52578D02*
G75*
D01*
G02X15881Y52578I375J0*
G01*
X17165Y-15876D02*
G75*
D01*
G02X17165Y-15876I1885J0*
G01*
X4465Y-13716D02*
G75*
D01*
G02X4465Y-13716I1885J0*
G01*
X17165Y-11176D02*
G75*
D01*
G02X17165Y-11176I1885J0*
G01*
X4465Y-8636D02*
G75*
D01*
G02X4465Y-8636I1885J0*
G01*
X17165Y-6476D02*
G75*
D01*
G02X17165Y-6476I1885J0*
G01*
X17351Y2440D02*
G74*
D01*
G02X16356Y1445I1603J608*
G01*
X16356Y2440D01*
X17351Y2440D01*
X4028Y87719D02*
G74*
D01*
G02X3137Y88610I543J1434*
G01*
X4028Y88610D01*
X4028Y87719D01*
X3137Y89698D02*
G74*
D01*
G02X4028Y90589I1434J543*
G01*
X4028Y89698D01*
X3137Y89698D01*
X5116Y90589D02*
G74*
D01*
G02X6007Y89698I543J1434*
G01*
X5116Y89698D01*
X5116Y90589D01*
X4197Y89154D02*
G75*
D01*
G02X4197Y89154I375J0*
G01*
X10800Y93588D02*
G74*
D01*
G02X9768Y94620I630J1662*
G01*
X10800Y94620D01*
X10800Y93588D01*
X20320Y96494D02*
G74*
D01*
G02X20960Y96912I1269J1244*
G01*
X20960Y95880D01*
X20712Y95880D01*
G75*
D01*
G02X20712Y94620I-1662J-630*
G01*
X20960Y94620D01*
X20960Y93588D01*
G74*
D01*
G02X20320Y94006I629J1662*
G01*
G75*
D01*
G02X17780Y94006I-1270J1243*
G01*
G75*
D01*
G02X15240Y94006I-1270J1243*
G01*
G75*
D01*
G02X12700Y94006I-1270J1243*
G01*
G74*
D01*
G02X12060Y93588I1269J1244*
G01*
X12060Y94620D01*
X12308Y94620D01*
G75*
D01*
G02X12308Y95880I1662J630*
G01*
X12060Y95880D01*
X12060Y96912D01*
G74*
D01*
G02X12700Y96494I629J1662*
G01*
G75*
D01*
G02X15240Y96494I1270J-1243*
G01*
G75*
D01*
G02X17780Y96494I1270J-1243*
G01*
G75*
D01*
G02X20320Y96494I1270J-1243*
G01*
X9768Y95880D02*
G74*
D01*
G02X10800Y96912I1662J630*
G01*
X10800Y95880D01*
X9768Y95880D01*
X10859Y95250D02*
G75*
D01*
G02X10859Y95250I571J0*
G01*
X16356Y4651D02*
G74*
D01*
G02X17351Y3656I608J1603*
G01*
X16356Y3656D01*
X16356Y4651D01*
X6521Y9964D02*
G74*
D01*
G02X5784Y9227I1187J450*
G01*
X5784Y9964D01*
X6521Y9964D01*
X4884Y9227D02*
G74*
D01*
G02X4147Y9964I450J1187*
G01*
X4884Y9964D01*
X4884Y9227D01*
X5784Y11601D02*
G74*
D01*
G02X6521Y10864I450J1187*
G01*
X5784Y10864D01*
X5784Y11601D01*
X4147Y10864D02*
G74*
D01*
G02X4884Y11601I1187J450*
G01*
X4884Y10864D01*
X4147Y10864D01*
X5034Y10414D02*
G75*
D01*
G02X5034Y10414I300J0*
G01*
X32720Y67056D02*
G75*
D01*
G02X32720Y67056I300J0*
G01*
X34207Y66606D02*
G74*
D01*
G02X33470Y65869I1187J450*
G01*
X33470Y66606D01*
X34207Y66606D01*
X59898Y75692D02*
G75*
D01*
G02X59898Y75692I300J0*
G01*
X59011Y76142D02*
G74*
D01*
G02X59748Y76879I1187J450*
G01*
X59748Y76142D01*
X59011Y76142D01*
X60648Y76879D02*
G74*
D01*
G02X61385Y76142I450J1187*
G01*
X60648Y76142D01*
X60648Y76879D01*
X51620Y79839D02*
G74*
D01*
G02X50883Y80576I450J1187*
G01*
X51620Y80576D01*
X51620Y79839D01*
X53257Y80576D02*
G74*
D01*
G02X52520Y79839I1187J450*
G01*
X52520Y80576D01*
X53257Y80576D01*
X50883Y81476D02*
G74*
D01*
G02X51620Y82213I1187J450*
G01*
X51620Y81476D01*
X50883Y81476D01*
X51770Y81026D02*
G75*
D01*
G02X51770Y81026I300J0*
G01*
X52520Y82213D02*
G74*
D01*
G02X53257Y81476I450J1187*
G01*
X52520Y81476D01*
X52520Y82213D01*
X44528Y-19362D02*
X87862Y-19362D01*
X87862Y99362D01*
X-862Y99362D01*
X-862Y-19362D01*
X42848Y-19362D01*
G75*
D01*
G02X44528Y-19362I840J2598*
G01*
X45862Y38547D02*
G75*
D01*
G02X45862Y38547I281J569*
G01*
X45862Y21905D02*
G75*
D01*
G02X45862Y21905I281J-569*
G01*
X45862Y18861D02*
G75*
D01*
G02X45862Y18861I281J-2012*
G01*
X69862Y39703D02*
G75*
D01*
G02X69862Y39703I242J-587*
G01*
X72004Y38395D02*
G74*
D01*
G02X70825Y37216I1900J721*
G01*
X70825Y38395D01*
X72004Y38395D01*
X75903Y37216D02*
G74*
D01*
G02X74723Y38395I719J1900*
G01*
X75903Y38395D01*
X75903Y37216D01*
X70825Y41016D02*
G74*
D01*
G02X72004Y39837I721J1900*
G01*
X70825Y39837D01*
X70825Y41016D01*
X74723Y39837D02*
G74*
D01*
G02X75903Y41016I1900J721*
G01*
X75903Y39837D01*
X74723Y39837D01*
X75988Y39116D02*
G75*
D01*
G02X75988Y39116I635J0*
G01*
X48043Y20615D02*
G74*
D01*
G02X46864Y19436I1900J721*
G01*
X46864Y20615D01*
X48043Y20615D01*
X46864Y23236D02*
G74*
D01*
G02X48043Y22057I721J1900*
G01*
X46864Y22057D01*
X46864Y23236D01*
X44243Y22057D02*
G74*
D01*
G02X45423Y23236I1900J721*
G01*
X45423Y22057D01*
X44243Y22057D01*
X45423Y19436D02*
G74*
D01*
G02X44243Y20615I719J1900*
G01*
X45423Y20615D01*
X45423Y19436D01*
X48043Y38395D02*
G74*
D01*
G02X46864Y37216I1900J721*
G01*
X46864Y38395D01*
X48043Y38395D01*
X69383Y37216D02*
G74*
D01*
G02X68204Y38395I721J1900*
G01*
X69383Y38395D01*
X69383Y37216D01*
X46864Y41016D02*
G74*
D01*
G02X48043Y39837I721J1900*
G01*
X46864Y39837D01*
X46864Y41016D01*
X68204Y39837D02*
G74*
D01*
G02X69383Y41016I1900J721*
G01*
X69383Y39837D01*
X68204Y39837D01*
X44179Y35149D02*
X43185Y36143D01*
X43185Y19389D01*
G75*
D01*
G02X42885Y18666I-1021J0*
G01*
X41588Y17369D01*
G75*
D01*
G02X37703Y16187I-1957J-544*
G01*
X35323Y16187D01*
G74*
D01*
G02X34712Y15734I611J185*
G01*
X33112Y15734D01*
G75*
D01*
G02X32512Y16155I0J638*
G01*
G74*
D01*
G02X32255Y15834I600J217*
G01*
X33924Y14165D01*
X52944Y14165D01*
X57333Y18554D01*
X57333Y28316D01*
G75*
D01*
G02X57333Y28320I957J2*
G01*
X57333Y29079D01*
G75*
D01*
G02X57333Y29081I957J1*
G01*
X57333Y29717D01*
G75*
D01*
G02X57613Y30395I957J2*
G01*
X61170Y33951D01*
X61170Y35444D01*
G75*
D01*
G02X61808Y36082I638J0*
G01*
X63408Y36082D01*
G74*
D01*
G02X64008Y35661I0J638*
G01*
G75*
D01*
G02X64608Y36082I600J-217*
G01*
X66208Y36082D01*
G74*
D01*
G02X66819Y35629I0J638*
G01*
X68335Y35629D01*
G75*
D01*
G02X71896Y35586I1769J-1000*
G01*
X74831Y35586D01*
G75*
D01*
G02X77925Y36189I1792J-956*
G01*
X78227Y36491D01*
X78227Y37868D01*
G74*
D01*
G02X77344Y37216I1604J1248*
G01*
X77344Y38395D01*
X78227Y38395D01*
X78227Y39837D01*
X77344Y39837D01*
X77344Y41016D01*
G74*
D01*
G02X78227Y40364I721J1900*
G01*
X78227Y40979D01*
X76539Y42667D01*
X42343Y42667D01*
X44409Y40601D01*
G74*
D01*
G02X44567Y40398I720J724*
G01*
G74*
D01*
G02X45423Y41016I1576J1281*
G01*
X45423Y39837D01*
X44709Y39837D01*
X44709Y38395D01*
X45423Y38395D01*
X45423Y37216D01*
G74*
D01*
G02X44709Y37677I720J1899*
G01*
X44709Y37507D01*
X45623Y36593D01*
G75*
D01*
G02X44179Y35149I519J-1963*
G01*
X38903Y19436D02*
G74*
D01*
G02X37724Y20615I721J1900*
G01*
X38903Y20615D01*
X38903Y19436D01*
X38989Y21336D02*
G75*
D01*
G02X38989Y21336I635J0*
G01*
X37724Y22057D02*
G74*
D01*
G02X38903Y23236I1900J721*
G01*
X38903Y22057D01*
X37724Y22057D01*
X32197Y18743D02*
G74*
D01*
G02X32512Y18389I285J571*
G01*
G75*
D01*
G02X33112Y18810I600J-217*
G01*
X34712Y18810D01*
G74*
D01*
G02X35323Y18357I0J638*
G01*
X38262Y18357D01*
G75*
D01*
G02X40144Y18813I1362J-1508*
G01*
X41143Y19812D01*
X41143Y19986D01*
G74*
D01*
G02X40345Y19436I1519J1350*
G01*
X40345Y20615D01*
X41143Y20615D01*
X41143Y22057D01*
X40345Y22057D01*
X40345Y23236D01*
G74*
D01*
G02X41143Y22686I721J1900*
G01*
X41143Y33279D01*
G75*
D01*
G02X37962Y33459I-1519J1349*
G01*
X35323Y33459D01*
G74*
D01*
G02X34712Y33006I611J185*
G01*
X33112Y33006D01*
G75*
D01*
G02X32512Y33427I0J638*
G01*
G74*
D01*
G02X32197Y33073I600J217*
G01*
X32197Y18743D01*
X11044Y38395D02*
G74*
D01*
G02X9865Y37216I1900J721*
G01*
X9865Y38395D01*
X11044Y38395D01*
X8509Y39116D02*
G75*
D01*
G02X8509Y39116I635J0*
G01*
X9865Y41016D02*
G74*
D01*
G02X11044Y39837I721J1900*
G01*
X9865Y39837D01*
X9865Y41016D01*
X22374Y52262D02*
X20236Y50124D01*
G74*
D01*
G02X19558Y49843I677J676*
G01*
X17414Y49843D01*
X8423Y40852D01*
X8423Y39837D01*
X7408Y39837D01*
X7307Y39736D01*
X7307Y38395D01*
X8423Y38395D01*
X8423Y37216D01*
G74*
D01*
G02X7307Y38247I721J1900*
G01*
X7307Y35497D01*
G75*
D01*
G02X10251Y36333I1837J-867*
G01*
X11933Y38015D01*
X11933Y40639D01*
G75*
D01*
G02X12232Y41362I1021J1*
G01*
X13502Y42632D01*
G75*
D01*
G02X14225Y42931I722J-722*
G01*
X22691Y42931D01*
X25141Y45381D01*
X25141Y51709D01*
G75*
D01*
G02X22374Y52262I-1265J867*
G01*
G54D12*
X38992Y53340D02*
X40386Y53340D01*
X40918Y52808D01*
X42430Y52808D01*
X38992Y49276D02*
X40132Y49276D01*
X40664Y49808D01*
X42430Y49808D01*
X45950Y52808D02*
X46482Y53340D01*
X47876Y53340D01*
X43930Y52808D02*
X45950Y52808D01*
X31112Y17272D02*
X31112Y15624D01*
X33528Y13208D01*
X53340Y13208D01*
X58290Y18158D01*
X9144Y34629D02*
X9991Y34629D01*
X18288Y57584D02*
X13536Y52832D01*
X18288Y60960D02*
X18288Y57584D01*
X13536Y52832D02*
X11176Y52832D01*
X21336Y55118D02*
X21336Y72644D01*
X22606Y73914D01*
X22606Y75438D01*
X6350Y33274D02*
X6350Y40132D01*
X17018Y50800D02*
X19558Y50800D01*
X6350Y40132D02*
X17018Y50800D01*
X30988Y68834D02*
X33782Y68834D01*
X22860Y54102D02*
X22860Y60706D01*
X30988Y68834D01*
X19558Y50800D02*
X22860Y54102D01*
X62608Y34036D02*
X62608Y34544D01*
X59690Y29718D02*
X58290Y28318D01*
X58290Y29080D02*
X58928Y29718D01*
X58290Y18158D02*
X58290Y29718D01*
X59690Y29718D02*
X59690Y31118D01*
X59309Y29337D02*
X59309Y30737D01*
X58290Y29718D02*
X62608Y34036D01*
X50676Y53340D02*
X50676Y56264D01*
X50800Y56388D01*
X53086Y56642D02*
X51816Y57912D01*
X46736Y57912D02*
X45974Y58674D01*
X45974Y69088D01*
X51816Y57912D02*
X46736Y57912D01*
X53848Y52324D02*
X53086Y53086D01*
X44304Y49430D02*
X50192Y49430D01*
X53086Y52324D02*
X53086Y56642D01*
X50192Y49430D02*
X53340Y52578D01*
X53086Y52324D02*
X70612Y52324D01*
X73152Y49784D01*
X73152Y46228D01*
X75692Y46228D01*
X68580Y58928D02*
X68580Y52324D01*
X67564Y52324D02*
X68580Y53340D01*
X69596Y52324D01*
X70104Y39116D02*
X76623Y39116D01*
X70104Y34629D02*
X76623Y34629D01*
X35814Y66548D02*
X41656Y66548D01*
X43434Y68326D01*
X43434Y71882D01*
X44450Y72898D01*
X69342Y72898D02*
X74422Y67818D01*
X44450Y72898D02*
X69342Y72898D01*
X74422Y67818D02*
X74422Y60960D01*
X63246Y57404D02*
X57912Y57404D01*
X70612Y56896D02*
X69850Y57658D01*
X74168Y56896D02*
X70612Y56896D01*
X69850Y57658D02*
X69850Y59944D01*
X69088Y60706D02*
X66548Y60706D01*
X69850Y59944D02*
X69088Y60706D01*
X66548Y60706D02*
X63246Y57404D01*
X57912Y59944D02*
X61976Y59944D01*
X64008Y61976D01*
X70104Y61976D01*
X72898Y59182D01*
X76708Y59182D01*
X78232Y57658D01*
X6350Y33274D02*
X15240Y24384D01*
X15240Y23368D01*
G54D13*
X43930Y52324D02*
X43930Y52808D01*
G54D14*
X15663Y34629D02*
X20867Y34629D01*
X33912Y34544D02*
X39539Y34544D01*
X23752Y34544D02*
X31112Y34544D01*
X33912Y17272D02*
X39201Y17272D01*
X39624Y16849D01*
X31112Y17272D02*
X31112Y34544D01*
X15663Y39116D02*
X39624Y39116D01*
X46143Y39116D02*
X70104Y39116D01*
X65408Y34544D02*
X70019Y34544D01*
G54D15*
X11430Y95250D02*
X11430Y94234D01*
X21590Y95250D02*
X21590Y94488D01*
X20066Y92964D02*
X12700Y92964D01*
X11430Y94234D02*
X12700Y92964D01*
X21590Y94488D02*
X20066Y92964D01*
X9652Y89154D02*
X44704Y89154D01*
X46990Y91440D01*
X46990Y95250D01*
X31750Y46228D02*
X31750Y61722D01*
X33782Y63754D01*
X46143Y34629D02*
X43688Y37084D01*
X29972Y45974D02*
X29972Y61722D01*
X12954Y40640D02*
X14224Y41910D01*
X23114Y41910D02*
X26162Y44958D01*
X26162Y59436D01*
X14224Y41910D02*
X23114Y41910D01*
X9991Y34629D02*
X12954Y37592D01*
X12954Y40640D01*
X13716Y55118D02*
X10414Y55118D01*
X6858Y58674D01*
X6858Y65532D01*
X8382Y67056D01*
X5080Y50576D02*
X9174Y50576D01*
X11176Y52578D01*
X5080Y49276D02*
X12954Y49276D01*
X16256Y52578D01*
X31242Y65278D02*
X29972Y65278D01*
X27940Y63246D01*
X27940Y45212D01*
X42164Y19389D02*
X39624Y16849D01*
X36192Y53340D02*
X36192Y59312D01*
X76623Y34629D02*
X77809Y34629D01*
X79248Y36068D02*
X79248Y41402D01*
X77809Y34629D02*
X79248Y36068D01*
X34290Y56134D02*
X34290Y50038D01*
X35052Y49276D01*
X36322Y49276D01*
X42164Y19389D02*
X42164Y39624D01*
X32004Y41148D02*
X40640Y41148D01*
X42164Y39624D01*
X27940Y45212D02*
X32004Y41148D01*
X33528Y42418D02*
X29972Y45974D01*
X43688Y39878D02*
X41148Y42418D01*
X43688Y37084D02*
X43688Y39878D01*
X41148Y42418D02*
X33528Y42418D01*
X76962Y43688D02*
X34290Y43688D01*
X31750Y46228D01*
X79248Y41402D02*
X76962Y43688D01*
X1270Y83312D02*
X7112Y89154D01*
X9652Y89154D01*
X1270Y52578D02*
X1270Y83312D01*
X3272Y50576D02*
X1270Y52578D01*
X5080Y50576D02*
X3948Y50576D01*
X3272Y50576D01*
X18542Y13208D02*
X19812Y14478D01*
X21082Y13208D02*
X19812Y14478D01*
X19812Y13208D02*
X19812Y19558D01*
G54D16*
X24000Y13208D02*
X28064Y17272D01*
X762Y13208D02*
X24000Y13208D01*
X28064Y17272D02*
X31112Y17272D01*
G54D17*
X-1754Y-20254D02*
X-1754Y-8203D01*
X-1754Y-20254D02*
X7297Y-20254D01*
X88754Y-20254D02*
X79703Y-20254D01*
X88754Y-20254D02*
X88754Y-8203D01*
X88754Y100254D02*
X88754Y88203D01*
X88754Y100254D02*
X79703Y100254D01*
X-1754Y100254D02*
X7297Y100254D01*
X-1754Y100254D02*
X-1754Y88203D01*
X-6754Y-20254D02*
X-16754Y-20254D01*
X-11754Y-25254D02*
X-11754Y-15254D01*
X-15504Y-20254D02*
G75*
D01*
G02X-15504Y-20254I3750J0*
G01*
X93754Y-20254D02*
X103754Y-20254D01*
X98754Y-25254D02*
X98754Y-15254D01*
X95004Y-20254D02*
G75*
D01*
G02X95004Y-20254I3750J0*
G01*
X97504Y-20254D02*
G75*
D01*
G02X97504Y-20254I1250J0*
G01*
X-6754Y100254D02*
X-16754Y100254D01*
X-11754Y95254D02*
X-11754Y105254D01*
X-15504Y100254D02*
G75*
D01*
G02X-15504Y100254I3750J0*
G01*
X-14254Y100254D02*
G75*
D01*
G02X-14254Y100254I2500J0*
G01*
X-13004Y100254D02*
G75*
D01*
G02X-13004Y100254I1250J0*
G01*
G54D18*
X9144Y34629D03*
X15663Y34629D03*
X9144Y39116D03*
X15663Y39116D03*
X39624Y34629D03*
X46143Y34629D03*
X39624Y39116D03*
X46143Y39116D03*
X70104Y34629D03*
X76623Y34629D03*
X70104Y39116D03*
X76623Y39116D03*
X39624Y16849D03*
X46143Y16849D03*
X39624Y21336D03*
X46143Y21336D03*
G54D19*
X4572Y89154D03*
X9652Y89154D03*
X7112Y86614D03*
X11176Y52578D03*
X16256Y52578D03*
X13716Y55118D03*
X18796Y52578D03*
X23876Y52578D03*
X21336Y55118D03*
X24892Y19558D03*
X19812Y19558D03*
X22352Y22098D03*
G54D20*
X33782Y63754D03*
X29972Y61722D03*
X31242Y65278D03*
X26162Y59436D03*
X8636Y67056D03*
X18288Y60960D03*
X22606Y75438D03*
X34036Y68834D03*
X36068Y59436D03*
X34290Y56134D03*
X50800Y56388D03*
X45974Y69088D03*
X68580Y58928D03*
X35814Y66548D03*
X74422Y60960D03*
X74168Y56896D03*
X78232Y57658D03*
X60198Y75692D03*
X52070Y81026D03*
X33020Y67056D03*
X58928Y29718D03*
X76962Y18542D03*
X5334Y10414D03*
X762Y13208D03*
X15240Y23368D03*
G54D21*
X5080Y58654D03*
X5080Y56154D03*
G54D22*
X38992Y49276D03*
X36192Y49276D03*
X38992Y53340D03*
X36192Y53340D03*
X47876Y53340D03*
X50676Y53340D03*
X20952Y34544D03*
X23752Y34544D03*
X33912Y34544D03*
X31112Y34544D03*
X33912Y17272D03*
X31112Y17272D03*
X65408Y34544D03*
X62608Y34544D03*
G54D23*
X57912Y52324D03*
X78232Y46228D03*
G54D24*
X57330Y51742D02*
X58494Y51742D01*
X58494Y52906D01*
X57330Y52906D01*
X57330Y51742D01*D02*
X77650Y45646D02*
X78814Y45646D01*
X78814Y46810D01*
X77650Y46810D01*
X77650Y45646D01*D02*
G54D25*
X57912Y54864D03*
X57912Y57404D03*
X57912Y59944D03*
X60452Y46228D03*
X62992Y46228D03*
X65532Y46228D03*
X68072Y46228D03*
X70612Y46228D03*
X73152Y46228D03*
X75692Y46228D03*
X15748Y3048D03*
G54D26*
X11430Y95250D03*
X13970Y95250D03*
X16510Y95250D03*
X19050Y95250D03*
X21590Y95250D03*
X24130Y95250D03*
X36830Y95250D03*
X39370Y95250D03*
X41910Y95250D03*
X44450Y95250D03*
X46990Y95250D03*
X49530Y95250D03*
G54D27*
X80010Y23368D03*
G54D28*
X70104Y19418D03*
X70104Y27318D03*
G54D29*
X19050Y-6476D03*
X19050Y-11176D03*
X19050Y-15876D03*
X6350Y-13716D03*
X6350Y-8636D03*
G54D30*
X13208Y3048D03*
G54D31*
X12573Y2413D02*
X13843Y2413D01*
X13843Y3683D01*
X12573Y3683D01*
X12573Y2413D01*D02*
G54D32*
X42430Y49808D03*
X42430Y52808D03*
X43930Y52808D03*
G54D33*
X44304Y49430D03*
G54D34*
X5080Y46676D03*
X5080Y47976D03*
X5080Y50576D03*
X5080Y49276D03*
X5080Y51876D03*
G54D35*
X43688Y-16764D03*

M02*
