G04 Generated by Ultiboard 14.0 *
%FSLAX33Y33*%
%MOMM*%

%ADD10C,0.001*%
%ADD11C,0.508*%
%ADD12C,0.762*%
%ADD13C,1.016*%
%ADD14C,0.635*%
%ADD15C,0.889*%
%ADD16C,0.127*%
%ADD17R,1.600X1.800*%
%ADD18R,0.021X1.016*%
%ADD19C,0.593*%
%ADD20R,1.800X1.600*%
%ADD21R,2.100X1.300*%
%ADD22R,4.500X4.500*%
%ADD23C,2.794*%
%ADD24R,1.016X0.021*%
%ADD25R,2.200X0.600*%
%ADD26C,1.800*%
%ADD27C,1.270*%
%ADD28C,1.600*%
%ADD29R,0.600X1.550*%
%ADD30R,1.164X1.164*%
%ADD31C,0.995*%
%ADD32C,2.159*%
%ADD33R,1.000X0.600*%
%ADD34C,2.286*%
%ADD35C,3.356*%
%ADD36C,3.048*%
%ADD37C,2.500*%
%ADD38R,1.397X2.413*%
%ADD39R,4.741X3.725*%
%ADD40R,1.270X1.270*%
%ADD41C,0.889*%
%ADD42R,1.778X1.651*%
%ADD43R,2.667X2.413*%
%ADD44C,1.143*%
%ADD45R,3.000X3.000*%
%ADD46C,4.191*%


G04 ColorRGB 0000FF for the following layer *
%LNCopper Bottom*%
%LPD*%
G54D10*
G36*
X22056Y70908D02*
X22056Y70908D01*
X21862Y70713D01*
X21862Y70713D01*
X21785Y70637D01*
X21785Y73711D01*
G74*
D01*
G03X22141Y74256I281J573*
G01*
G75*
D01*
G03X21959Y76531I465J1182*
G01*
G74*
D01*
G03X21504Y76722I455J446*
G01*
X21504Y76722D01*
X19904Y76722D01*
G75*
D01*
G03X19304Y76301I0J-638*
G01*
G74*
D01*
G03X18704Y76722I600J217*
G01*
X18704Y76722D01*
X18414Y76722D01*
X18414Y75694D01*
X19266Y75694D01*
X19266Y74674D01*
X18414Y74674D01*
X18414Y73646D01*
X18704Y73646D01*
G74*
D01*
G03X19304Y74067I0J638*
G01*
G74*
D01*
G03X19871Y73647I600J217*
G01*
X19871Y73647D01*
X19871Y70153D01*
G74*
D01*
G03X19858Y70153I6J638*
G01*
X19858Y70153D01*
X19258Y70153D01*
G75*
D01*
G03X18923Y70058I0J-638*
G01*
G74*
D01*
G03X18621Y70152I335J543*
G01*
X18621Y70152D01*
X18621Y69545D01*
G74*
D01*
G03X18620Y69515I636J36*
G01*
X18620Y69515D01*
X18620Y68930D01*
G74*
D01*
G03X18601Y68740I938J190*
G01*
X18601Y68740D01*
X18601Y67960D01*
X18146Y67505D01*
X17955Y67505D01*
X17955Y67935D01*
G75*
D01*
G03X17956Y67965I-636J36*
G01*
X17956Y67965D01*
X17956Y68337D01*
G75*
D01*
G03X18039Y68740I-937J403*
G01*
X18039Y68740D01*
X18039Y70358D01*
G74*
D01*
G03X17739Y71081I1021J0*
G01*
X17739Y71081D01*
X17233Y71587D01*
G74*
D01*
G03X16510Y71887I723J721*
G01*
X16510Y71887D01*
X13971Y71887D01*
G75*
D01*
G03X13248Y71588I-1J-1021*
G01*
X13248Y71588D01*
X12486Y70826D01*
G75*
D01*
G03X12187Y70103I722J-722*
G01*
X12187Y70103D01*
X12187Y66550D01*
G75*
D01*
G03X12486Y65826I1021J-2*
G01*
X12486Y65826D01*
X13457Y64855D01*
X13457Y63251D01*
X11685Y63251D01*
G75*
D01*
G03X10962Y62952I-1J-1021*
G01*
X10962Y62952D01*
X10174Y62164D01*
X10174Y62900D01*
G74*
D01*
G03X9753Y63500I638J0*
G01*
G75*
D01*
G03X10174Y64100I-217J600*
G01*
X10174Y64100D01*
X10174Y65700D01*
G74*
D01*
G03X9673Y66323I638J0*
G01*
G75*
D01*
G03X8237Y68262I-1034J735*
G01*
G75*
D01*
G03X8517Y68964I-740J702*
G01*
X8517Y68964D01*
X8517Y69113D01*
G75*
D01*
G03X8934Y69712I-221J599*
G01*
X8934Y69712D01*
X8934Y71512D01*
G74*
D01*
G03X8296Y72150I638J0*
G01*
X8296Y72150D01*
X6696Y72150D01*
G75*
D01*
G03X6096Y71729I0J-638*
G01*
G74*
D01*
G03X5496Y72150I600J217*
G01*
X5496Y72150D01*
X5206Y72150D01*
X5206Y71122D01*
X6058Y71122D01*
X6058Y70102D01*
X5206Y70102D01*
X5206Y69074D01*
X5496Y69074D01*
G74*
D01*
G03X6096Y69495I0J638*
G01*
G74*
D01*
G03X6300Y69212I600J217*
G01*
X6300Y69212D01*
X6009Y68921D01*
G75*
D01*
G03X5710Y68198I722J-722*
G01*
X5710Y68198D01*
X5710Y66338D01*
X5590Y66338D01*
X5590Y65410D01*
X5710Y65410D01*
X5710Y64390D01*
X5590Y64390D01*
X5590Y63538D01*
X4570Y63538D01*
X4570Y64390D01*
X3542Y64390D01*
X3542Y64100D01*
G75*
D01*
G03X3963Y63500I638J0*
G01*
G74*
D01*
G03X3542Y62900I217J600*
G01*
X3542Y62900D01*
X3542Y61300D01*
G75*
D01*
G03X4123Y60664I638J-1*
G01*
X4123Y60664D01*
X4123Y59723D01*
G75*
D01*
G03X4375Y57404I955J-1069*
G01*
G74*
D01*
G03X4011Y57111I706J1249*
G01*
X4011Y57111D01*
X3576Y57111D01*
G75*
D01*
G03X3295Y57069I-1J-957*
G01*
G74*
D01*
G03X2899Y56831I280J915*
G01*
X2899Y56831D01*
X1863Y55795D01*
G75*
D01*
G03X1583Y55116I677J-676*
G01*
X1583Y55116D01*
X1583Y51563D01*
X1583Y51561D01*
X1583Y51561D01*
X1583Y51213D01*
X-50Y49580D01*
G75*
D01*
G03X-387Y48767I811J-813*
G01*
X-387Y48767D01*
X-387Y13750D01*
G75*
D01*
G03X-387Y12666I1149J-542*
G01*
X-387Y12666D01*
X-387Y-7618D01*
G75*
D01*
G03X-50Y-8432I1149J-1*
G01*
X-50Y-8432D01*
X3506Y-11988D01*
G74*
D01*
G03X3953Y-12265I812J811*
G01*
G75*
D01*
G03X4318Y-12325I366J1088*
G01*
X4318Y-12325D01*
X5078Y-12325D01*
G75*
D01*
G03X7622Y-12325I1272J-1390*
G01*
X7622Y-12325D01*
X17555Y-12325D01*
G75*
D01*
G03X17555Y-10027I1494J1149*
G01*
X17555Y-10027D01*
X7622Y-10027D01*
G75*
D01*
G03X5078Y-10027I-1272J1390*
G01*
X5078Y-10027D01*
X4794Y-10027D01*
X1911Y-7144D01*
X1911Y12666D01*
G75*
D01*
G03X1911Y13750I-1149J542*
G01*
X1911Y13750D01*
X1911Y21613D01*
X2394Y21613D01*
X2394Y22804D01*
X1911Y22804D01*
X1911Y24112D01*
X2394Y24112D01*
X2394Y25303D01*
X1911Y25303D01*
X1911Y26945D01*
G75*
D01*
G03X2159Y26894I250J587*
G01*
X2159Y26894D01*
X3937Y26894D01*
G74*
D01*
G03X4544Y27337I1J639*
G01*
X4544Y27337D01*
X5255Y27337D01*
X5755Y26837D01*
G75*
D01*
G03X6478Y26538I722J722*
G01*
X6478Y26538D01*
X7098Y26538D01*
X7098Y26508D01*
G75*
D01*
G03X7519Y25908I638J0*
G01*
G74*
D01*
G03X7098Y25308I217J600*
G01*
X7098Y25308D01*
X7098Y23708D01*
G75*
D01*
G03X7736Y23070I638J0*
G01*
X7736Y23070D01*
X9263Y23070D01*
X9263Y22835D01*
G74*
D01*
G03X8846Y22236I221J599*
G01*
X8846Y22236D01*
X8846Y20436D01*
G75*
D01*
G03X9484Y19798I638J0*
G01*
X9484Y19798D01*
X11084Y19798D01*
G74*
D01*
G03X11684Y20219I0J638*
G01*
G75*
D01*
G03X12284Y19798I600J217*
G01*
X12284Y19798D01*
X12574Y19798D01*
X12574Y20826D01*
X11722Y20826D01*
X11722Y21846D01*
X12574Y21846D01*
X12574Y22874D01*
X12284Y22874D01*
G75*
D01*
G03X11684Y22453I0J-638*
G01*
G74*
D01*
G03X11305Y22835I600J216*
G01*
X11305Y22835D01*
X11305Y24361D01*
G75*
D01*
G03X11980Y24073I675J647*
G01*
X11980Y24073D01*
X12106Y24073D01*
G75*
D01*
G03X12488Y23998I384J945*
G01*
X12488Y23998D01*
X13589Y23998D01*
G74*
D01*
G03X14219Y24216I1J1021*
G01*
X14219Y24216D01*
X14219Y24123D01*
G75*
D01*
G03X14084Y22842I1020J-755*
G01*
G74*
D01*
G03X13884Y22874I200J606*
G01*
X13884Y22874D01*
X13594Y22874D01*
X13594Y21846D01*
X14522Y21846D01*
X14522Y22236D01*
G74*
D01*
G03X14516Y22325I638J2*
G01*
G75*
D01*
G03X16261Y24123I727J1040*
G01*
X16261Y24123D01*
X16261Y24469D01*
X16575Y24783D01*
G75*
D01*
G03X17484Y24073I908J226*
G01*
X17484Y24073D01*
X17609Y24073D01*
G75*
D01*
G03X17992Y23998I384J945*
G01*
X17992Y23998D01*
X18500Y23998D01*
X18791Y23707D01*
X18791Y20704D01*
G75*
D01*
G03X20833Y20704I1021J-1145*
G01*
X20833Y20704D01*
X20833Y21878D01*
G75*
D01*
G03X23373Y23244I1518J222*
G01*
X23373Y23244D01*
X23373Y25400D01*
G74*
D01*
G03X23073Y26123I1021J0*
G01*
X23073Y26123D01*
X21862Y27334D01*
X21834Y27362D01*
X20916Y28280D01*
G74*
D01*
G03X20193Y28580I723J721*
G01*
X20193Y28580D01*
X19405Y28580D01*
G75*
D01*
G03X19436Y28818I-904J239*
G01*
X19436Y28818D01*
X19436Y28840D01*
G74*
D01*
G03X18500Y29775I936J1*
G01*
X18500Y29775D01*
X18374Y29775D01*
G74*
D01*
G03X17992Y29850I384J945*
G01*
X17992Y29850D01*
X15367Y29850D01*
G75*
D01*
G03X14645Y29551I0J-1021*
G01*
X14645Y29551D01*
X13932Y28838D01*
X13932Y28840D01*
G74*
D01*
G03X13813Y29296I936J1*
G01*
X13813Y29296D01*
X13101Y28829D01*
X13618Y28490D01*
G74*
D01*
G03X13536Y28334I858J551*
G01*
G74*
D01*
G03X12996Y28505I539J764*
G01*
X12996Y28505D01*
X12871Y28505D01*
G74*
D01*
G03X12488Y28580I384J945*
G01*
X12488Y28580D01*
X11496Y28580D01*
X11876Y28829D01*
X11163Y29296D01*
G74*
D01*
G03X11044Y28840I816J456*
G01*
X11044Y28840D01*
X11044Y28818D01*
G75*
D01*
G03X11075Y28580I936J1*
G01*
X11075Y28580D01*
X9965Y28580D01*
G74*
D01*
G03X9536Y28746I429J471*
G01*
X9536Y28746D01*
X7736Y28746D01*
G75*
D01*
G03X7307Y28580I0J-638*
G01*
X7307Y28580D01*
X6900Y28580D01*
X6401Y29079D01*
G74*
D01*
G03X5678Y29379I723J721*
G01*
X5678Y29379D01*
X4544Y29379D01*
G74*
D01*
G03X3937Y29822I607J194*
G01*
X3937Y29822D01*
X2159Y29822D01*
G75*
D01*
G03X1911Y29771I2J-638*
G01*
X1911Y29771D01*
X1911Y41642D01*
X2448Y41642D01*
G74*
D01*
G03X3048Y42063I0J638*
G01*
G75*
D01*
G03X3648Y41642I600J217*
G01*
X3648Y41642D01*
X3938Y41642D01*
X3938Y42670D01*
X3086Y42670D01*
X3086Y43690D01*
X3938Y43690D01*
X3938Y44718D01*
X3648Y44718D01*
G75*
D01*
G03X3048Y44297I0J-638*
G01*
G74*
D01*
G03X2448Y44718I600J217*
G01*
X2448Y44718D01*
X1911Y44718D01*
X1911Y48292D01*
X3237Y49619D01*
X3525Y49619D01*
X3527Y49619D01*
X3527Y49619D01*
X4345Y49619D01*
G74*
D01*
G03X4907Y49382I734J957*
G01*
G75*
D01*
G03X4907Y49170I172J-106*
G01*
G74*
D01*
G03X4246Y48848I173J1194*
G01*
X4246Y48848D01*
X3952Y48848D01*
G74*
D01*
G03X4064Y48626I1127J429*
G01*
G75*
D01*
G03X4064Y47326I1016J-650*
G01*
G75*
D01*
G03X5815Y45719I1015J-652*
G01*
X5815Y45719D01*
X51502Y45719D01*
G74*
D01*
G03X52180Y46000I1J957*
G01*
X52180Y46000D01*
X55367Y49188D01*
X55367Y32259D01*
G75*
D01*
G03X55666Y31536I1021J-1*
G01*
X55666Y31536D01*
X57672Y29530D01*
G75*
D01*
G03X59116Y30974I1255J189*
G01*
X59116Y30974D01*
X57409Y32681D01*
X57409Y49107D01*
X58633Y50331D01*
G74*
D01*
G03X58855Y50663I721J723*
G01*
G75*
D01*
G03X59632Y51742I-360J1079*
G01*
X59632Y51742D01*
X59632Y52906D01*
G74*
D01*
G03X59233Y53771I1138J0*
G01*
G74*
D01*
G03X59515Y54256I1321J1092*
G01*
X59515Y54256D01*
X58520Y54256D01*
X58520Y54044D01*
G74*
D01*
G03X58494Y54044I13J1138*
G01*
X58494Y54044D01*
X57330Y54044D01*
G75*
D01*
G03X57304Y54044I-13J-1138*
G01*
X57304Y54044D01*
X57304Y54256D01*
X56329Y54256D01*
X56329Y55472D01*
X57304Y55472D01*
X57304Y55801D01*
G75*
D01*
G03X58520Y55801I608J1603*
G01*
X58520Y55801D01*
X58520Y55472D01*
X59515Y55472D01*
G74*
D01*
G03X59064Y56134I1603J607*
G01*
G74*
D01*
G03X59082Y56151I1168J1255*
G01*
X59082Y56151D01*
X59876Y55357D01*
X59876Y51362D01*
X59876Y51362D01*
X59876Y47843D01*
G75*
D01*
G03X61722Y45076I578J-1614*
G01*
G75*
D01*
G03X64262Y45076I1270J1151*
G01*
G74*
D01*
G03X64924Y44625I1269J1152*
G01*
X64924Y44625D01*
X64924Y45620D01*
X64595Y45620D01*
G75*
D01*
G03X64595Y46836I-1603J608*
G01*
X64595Y46836D01*
X64924Y46836D01*
X64924Y47831D01*
G74*
D01*
G03X64262Y47380I607J1603*
G01*
G74*
D01*
G03X63949Y47650I1268J1153*
G01*
X63949Y47650D01*
X63949Y49530D01*
G74*
D01*
G03X63668Y50208I957J1*
G01*
X63668Y50208D01*
X62933Y50942D01*
X62933Y57912D01*
G74*
D01*
G03X62652Y58590I957J1*
G01*
X62652Y58590D01*
X60622Y60620D01*
G74*
D01*
G03X59944Y60901I677J676*
G01*
X59944Y60901D01*
X59334Y60901D01*
G75*
D01*
G03X57583Y61627I-1422J-956*
G01*
X57583Y61627D01*
X55923Y63287D01*
G74*
D01*
G03X55245Y63568I677J676*
G01*
X55245Y63568D01*
X50534Y63568D01*
G75*
D01*
G03X50534Y63581I-638J7*
G01*
X50534Y63581D01*
X50534Y64181D01*
G74*
D01*
G03X50439Y64516I638J0*
G01*
G75*
D01*
G03X50534Y64851I-543J335*
G01*
X50534Y64851D01*
X50534Y65400D01*
X56600Y65400D01*
X63241Y58759D01*
X63241Y52833D01*
G75*
D01*
G03X63540Y52110I1021J-1*
G01*
X63540Y52110D01*
X64288Y51362D01*
X66588Y49062D01*
G75*
D01*
G03X67311Y48763I722J722*
G01*
X67311Y48763D01*
X78317Y48763D01*
X79200Y47881D01*
G74*
D01*
G03X78842Y47948I386J1071*
G01*
X78842Y47948D01*
X78842Y46838D01*
X79952Y46838D01*
G74*
D01*
G03X79885Y47196I1138J28*
G01*
X79885Y47196D01*
X80259Y46821D01*
X80259Y34459D01*
X76076Y30276D01*
G74*
D01*
G03X75793Y30480I500J395*
G01*
G75*
D01*
G03X76214Y31080I-217J600*
G01*
X76214Y31080D01*
X76214Y32638D01*
G75*
D01*
G03X75125Y36001I409J1990*
G01*
X75125Y36001D01*
X75125Y37743D01*
G74*
D01*
G03X75903Y37216I1498J1373*
G01*
X75903Y37216D01*
X75903Y38395D01*
X75125Y38395D01*
X75125Y39837D01*
X75903Y39837D01*
X75903Y41016D01*
G74*
D01*
G03X75125Y40489I719J1899*
G01*
X75125Y40489D01*
X75125Y41006D01*
X76368Y42248D01*
G75*
D01*
G03X76649Y42926I-676J677*
G01*
X76649Y42926D01*
X76649Y44806D01*
G74*
D01*
G03X76785Y44907I953J1425*
G01*
G74*
D01*
G03X77622Y44508I865J738*
G01*
X77622Y44508D01*
X77622Y45618D01*
X77294Y45618D01*
G75*
D01*
G03X77294Y46838I-1602J610*
G01*
X77294Y46838D01*
X77622Y46838D01*
X77622Y47948D01*
G74*
D01*
G03X76785Y47549I29J1138*
G01*
G75*
D01*
G03X74422Y47380I-1093J-1320*
G01*
G75*
D01*
G03X71882Y47380I-1270J-1151*
G01*
G75*
D01*
G03X69342Y47380I-1270J-1151*
G01*
G75*
D01*
G03X66802Y47380I-1270J-1151*
G01*
G74*
D01*
G03X66140Y47831I1269J1152*
G01*
X66140Y47831D01*
X66140Y46836D01*
X66469Y46836D01*
G75*
D01*
G03X66469Y45620I1603J-608*
G01*
X66469Y45620D01*
X66140Y45620D01*
X66140Y44625D01*
G74*
D01*
G03X66802Y45076I607J1603*
G01*
G75*
D01*
G03X69342Y45076I1270J1151*
G01*
G75*
D01*
G03X71882Y45076I1270J1151*
G01*
G75*
D01*
G03X74422Y45076I1270J1151*
G01*
G74*
D01*
G03X74735Y44806I1268J1153*
G01*
X74735Y44806D01*
X74735Y43322D01*
X73491Y42079D01*
G75*
D01*
G03X73211Y41400I677J-676*
G01*
X73211Y41400D01*
X73211Y33529D01*
G75*
D01*
G03X73306Y33112I957J-1*
G01*
G74*
D01*
G03X73155Y32829I469J432*
G01*
G74*
D01*
G03X72605Y32557I127J949*
G01*
X72605Y32557D01*
X71459Y31411D01*
G75*
D01*
G03X71179Y30733I677J-676*
G01*
X71179Y30733D01*
X71179Y29190D01*
G75*
D01*
G03X68015Y26772I-1077J-1870*
G01*
G75*
D01*
G03X67813Y26160I819J-610*
G01*
X67813Y26160D01*
X67813Y24639D01*
G75*
D01*
G03X68112Y23916I1021J-1*
G01*
X68112Y23916D01*
X68660Y23368D01*
X68112Y22820D01*
G75*
D01*
G03X67813Y22096I722J-722*
G01*
X67813Y22096D01*
X67813Y20689D01*
G75*
D01*
G03X68039Y20048I1021J0*
G01*
G75*
D01*
G03X71962Y20517I2065J-628*
G01*
G74*
D01*
G03X72190Y20555I39J934*
G01*
X72190Y20555D01*
X71691Y20881D01*
G74*
D01*
G03X70801Y21461I1587J1462*
G01*
X70801Y21461D01*
X70804Y21463D01*
X70424Y21712D01*
X71416Y21712D01*
G74*
D01*
G03X71799Y21787I1J1021*
G01*
X71799Y21787D01*
X71924Y21787D01*
G75*
D01*
G03X72860Y22722I1J935*
G01*
X72860Y22722D01*
X72860Y22744D01*
G74*
D01*
G03X72621Y23368I936J1*
G01*
G75*
D01*
G03X72860Y23992I-696J624*
G01*
X72860Y23992D01*
X72860Y24014D01*
G74*
D01*
G03X72795Y24357I936J0*
G01*
G74*
D01*
G03X73195Y24597I278J916*
G01*
X73195Y24597D01*
X73719Y25121D01*
X73719Y24639D01*
G75*
D01*
G03X73999Y23961I957J-2*
G01*
X73999Y23961D01*
X74634Y23326D01*
G74*
D01*
G03X74676Y23287I672J681*
G01*
X74676Y23287D01*
X73954Y22566D01*
G75*
D01*
G03X73655Y21843I722J-722*
G01*
X73655Y21843D01*
X73655Y17527D01*
G75*
D01*
G03X73954Y16804I1021J-1*
G01*
X73954Y16804D01*
X77256Y13502D01*
G75*
D01*
G03X77979Y13203I722J722*
G01*
X77979Y13203D01*
X84582Y13203D01*
G74*
D01*
G03X85305Y13503I0J1021*
G01*
X85305Y13503D01*
X87843Y16041D01*
G74*
D01*
G03X87862Y16061I731J713*
G01*
X87862Y16061D01*
X87862Y-19362D01*
X44528Y-19362D01*
G75*
D01*
G03X42848Y-19362I-840J2598*
G01*
X42848Y-19362D01*
X-862Y-19362D01*
X-862Y99362D01*
X21718Y99362D01*
X21718Y99362D01*
X19357Y97001D01*
G75*
D01*
G03X17780Y96494I-307J-1750*
G01*
G75*
D01*
G03X15240Y96494I-1270J-1243*
G01*
G75*
D01*
G03X12700Y96494I-1270J-1243*
G01*
G74*
D01*
G03X12060Y96912I1269J1244*
G01*
X12060Y96912D01*
X12060Y95880D01*
X12308Y95880D01*
G75*
D01*
G03X12308Y94620I1662J-630*
G01*
X12308Y94620D01*
X12060Y94620D01*
X12060Y93588D01*
G74*
D01*
G03X12700Y94006I629J1662*
G01*
G74*
D01*
G03X12891Y93837I1270J1243*
G01*
X12891Y93837D01*
X9741Y90686D01*
G75*
D01*
G03X9432Y87635I-109J-1530*
G01*
X9432Y87635D01*
X8258Y87635D01*
G75*
D01*
G03X8258Y85593I-1145J-1021*
G01*
X8258Y85593D01*
X12954Y85593D01*
G74*
D01*
G03X13677Y85893I0J1021*
G01*
X13677Y85893D01*
X17231Y89447D01*
G75*
D01*
G03X17531Y90170I-721J723*
G01*
X17531Y90170D01*
X17531Y93794D01*
G74*
D01*
G03X17780Y94006I1023J1454*
G01*
G75*
D01*
G03X20320Y94006I1270J1243*
G01*
G74*
D01*
G03X20960Y93588I1269J1244*
G01*
X20960Y93588D01*
X20960Y94620D01*
X20712Y94620D01*
G75*
D01*
G03X20801Y95557I-1661J631*
G01*
X20801Y95557D01*
X21862Y96618D01*
X21862Y96618D01*
X23029Y97785D01*
X25221Y97785D01*
X24437Y97001D01*
G75*
D01*
G03X22860Y96494I-307J-1750*
G01*
G74*
D01*
G03X22220Y96912I1269J1244*
G01*
X22220Y96912D01*
X22220Y95880D01*
X22468Y95880D01*
G75*
D01*
G03X22468Y94620I1662J-630*
G01*
X22468Y94620D01*
X22220Y94620D01*
X22220Y93588D01*
G74*
D01*
G03X22860Y94006I629J1662*
G01*
G75*
D01*
G03X25881Y95557I1271J1242*
G01*
X25881Y95557D01*
X26585Y96261D01*
X35367Y96261D01*
G75*
D01*
G03X35809Y93794I1463J-1011*
G01*
X35809Y93794D01*
X35809Y81957D01*
X34076Y80224D01*
G75*
D01*
G03X33777Y79501I722J-722*
G01*
X33777Y79501D01*
X33777Y73408D01*
G75*
D01*
G03X34076Y72684I1021J-2*
G01*
X34076Y72684D01*
X35572Y71188D01*
X27687Y71188D01*
X27685Y71188D01*
X27685Y71188D01*
X26163Y71188D01*
X26161Y71188D01*
X26161Y71188D01*
X22734Y71188D01*
G75*
D01*
G03X22056Y70908I-2J-957*
G01*
D02*
G37*
%LPC*%
G36*
X21862Y95753D02*
G75*
D01*
G03X21862Y95753I-272J-503*
G01*
D02*
G37*
G36*
X69862Y39703D02*
G75*
D01*
G03X69862Y39703I242J-587*
G01*
D02*
G37*
G36*
X69862Y36646D02*
G75*
D01*
G03X69862Y36646I242J-2017*
G01*
D02*
G37*
G36*
X44351Y35586D02*
X44351Y35586D01*
X41416Y35586D01*
G75*
D01*
G03X41416Y33672I-1791J-957*
G01*
X41416Y33672D01*
X44351Y33672D01*
G75*
D01*
G03X44351Y35586I1791J957*
G01*
D02*
G37*
G36*
X45862Y38547D02*
G75*
D01*
G03X45862Y38547I281J569*
G01*
D02*
G37*
G36*
X5467Y3233D02*
G75*
D01*
G03X5952Y4053I-450J820*
G01*
X5952Y4053D01*
X5952Y6466D01*
G74*
D01*
G03X5382Y7328I936J1*
G01*
X5382Y7328D01*
X7826Y7328D01*
G74*
D01*
G03X7256Y6466I366J861*
G01*
X7256Y6466D01*
X7256Y4053D01*
G75*
D01*
G03X7951Y3149I936J0*
G01*
G74*
D01*
G03X8078Y2998I939J661*
G01*
X8078Y2998D01*
X8840Y2236D01*
G75*
D01*
G03X9653Y1899I813J811*
G01*
X9653Y1899D01*
X11618Y1899D01*
G75*
D01*
G03X12573Y1328I955J513*
G01*
X12573Y1328D01*
X13843Y1328D01*
G74*
D01*
G03X14672Y1713I0J1085*
G01*
G74*
D01*
G03X15140Y1445I1075J1335*
G01*
X15140Y1445D01*
X15140Y2440D01*
X14928Y2440D01*
X14928Y3656D01*
X15140Y3656D01*
X15140Y4651D01*
G74*
D01*
G03X14672Y4383I607J1603*
G01*
G74*
D01*
G03X13843Y4768I829J700*
G01*
X13843Y4768D01*
X12573Y4768D01*
G75*
D01*
G03X11618Y4197I1J-1085*
G01*
X11618Y4197D01*
X10524Y4197D01*
X10524Y6466D01*
G74*
D01*
G03X9588Y7402I936J0*
G01*
X9588Y7402D01*
X8458Y7402D01*
X6604Y8998D01*
X4750Y7402D01*
X3620Y7402D01*
G75*
D01*
G03X2684Y6466I0J-936*
G01*
X2684Y6466D01*
X2684Y4053D01*
G75*
D01*
G03X3169Y3233I936J0*
G01*
X3169Y3233D01*
X3169Y-1776D01*
G75*
D01*
G03X3506Y-2590I1149J-1*
G01*
X3506Y-2590D01*
X8204Y-7288D01*
G75*
D01*
G03X9017Y-7625I813J811*
G01*
X9017Y-7625D01*
X17555Y-7625D01*
G75*
D01*
G03X17555Y-5327I1494J1149*
G01*
X17555Y-5327D01*
X9492Y-5327D01*
X5467Y-1302D01*
X5467Y3233D01*
D02*
G37*
G36*
X15349Y3362D02*
G75*
D01*
G03X15349Y3362I399J-314*
G01*
D02*
G37*
G36*
X44351Y15892D02*
G75*
D01*
G03X44351Y17806I1791J957*
G01*
X44351Y17806D01*
X41416Y17806D01*
G75*
D01*
G03X41416Y15892I-1791J-957*
G01*
X41416Y15892D01*
X44351Y15892D01*
D02*
G37*
G36*
X45862Y20767D02*
G75*
D01*
G03X45862Y20767I281J569*
G01*
D02*
G37*
G36*
X57404Y54864D02*
G75*
D01*
G03X57404Y54864I508J0*
G01*
D02*
G37*
G36*
X70825Y41016D02*
X70825Y41016D01*
X70825Y39837D01*
X72004Y39837D01*
G74*
D01*
G03X70825Y41016I1900J721*
G01*
D02*
G37*
G36*
X72004Y38395D02*
X72004Y38395D01*
X70825Y38395D01*
X70825Y37216D01*
G74*
D01*
G03X72004Y38395I721J1900*
G01*
D02*
G37*
G36*
X77724Y46228D02*
G75*
D01*
G03X77724Y46228I508J0*
G01*
D02*
G37*
G36*
X78842Y44508D02*
G74*
D01*
G03X79952Y45618I28J1138*
G01*
X79952Y45618D01*
X78842Y45618D01*
X78842Y44508D01*
D02*
G37*
G36*
X77344Y41016D02*
X77344Y41016D01*
X77344Y39837D01*
X78523Y39837D01*
G74*
D01*
G03X77344Y41016I1900J721*
G01*
D02*
G37*
G36*
X75988Y39116D02*
G75*
D01*
G03X75988Y39116I635J0*
G01*
D02*
G37*
G36*
X78523Y38395D02*
X78523Y38395D01*
X77344Y38395D01*
X77344Y37216D01*
G74*
D01*
G03X78523Y38395I721J1900*
G01*
D02*
G37*
G36*
X72741Y20996D02*
G75*
D01*
G03X72860Y21452I-816J456*
G01*
X72860Y21452D01*
X72860Y21474D01*
G74*
D01*
G03X72741Y21930I936J1*
G01*
X72741Y21930D01*
X72029Y21463D01*
X72741Y20996D01*
D02*
G37*
G36*
X38903Y37216D02*
X38903Y37216D01*
X38903Y38395D01*
X37724Y38395D01*
G74*
D01*
G03X38903Y37216I1900J721*
G01*
D02*
G37*
G36*
X41524Y38395D02*
X41524Y38395D01*
X40345Y38395D01*
X40345Y37216D01*
G74*
D01*
G03X41524Y38395I721J1900*
G01*
D02*
G37*
G36*
X45423Y37216D02*
X45423Y37216D01*
X45423Y38395D01*
X44243Y38395D01*
G74*
D01*
G03X45423Y37216I1900J721*
G01*
D02*
G37*
G36*
X37724Y39837D02*
X37724Y39837D01*
X38903Y39837D01*
X38903Y41016D01*
G74*
D01*
G03X37724Y39837I721J1900*
G01*
D02*
G37*
G36*
X38989Y39116D02*
G75*
D01*
G03X38989Y39116I635J0*
G01*
D02*
G37*
G36*
X40345Y41016D02*
X40345Y41016D01*
X40345Y39837D01*
X41524Y39837D01*
G74*
D01*
G03X40345Y41016I1900J721*
G01*
D02*
G37*
G36*
X44243Y39837D02*
X44243Y39837D01*
X45423Y39837D01*
X45423Y41016D01*
G74*
D01*
G03X44243Y39837I719J1900*
G01*
D02*
G37*
G36*
X13262Y29737D02*
G74*
D01*
G03X12996Y29775I264J897*
G01*
X12996Y29775D01*
X11980Y29775D01*
G75*
D01*
G03X11715Y29737I-1J-935*
G01*
X11715Y29737D01*
X12488Y29230D01*
X13262Y29737D01*
D02*
G37*
G36*
X5248Y44718D02*
X5248Y44718D01*
X4958Y44718D01*
X4958Y43690D01*
X5886Y43690D01*
X5886Y44080D01*
G74*
D01*
G03X5248Y44718I638J0*
G01*
D02*
G37*
G36*
X5248Y41642D02*
G75*
D01*
G03X5886Y42280I0J638*
G01*
X5886Y42280D01*
X5886Y42670D01*
X4958Y42670D01*
X4958Y41642D01*
X5248Y41642D01*
D02*
G37*
G36*
X16384Y41016D02*
X16384Y41016D01*
X16384Y39837D01*
X17563Y39837D01*
G74*
D01*
G03X16384Y41016I1900J721*
G01*
D02*
G37*
G36*
X15028Y39116D02*
G75*
D01*
G03X15028Y39116I635J0*
G01*
D02*
G37*
G36*
X13763Y39837D02*
X13763Y39837D01*
X14943Y39837D01*
X14943Y41016D01*
G74*
D01*
G03X13763Y39837I719J1900*
G01*
D02*
G37*
G36*
X8509Y39116D02*
G75*
D01*
G03X8509Y39116I635J0*
G01*
D02*
G37*
G36*
X9865Y41016D02*
X9865Y41016D01*
X9865Y39837D01*
X11044Y39837D01*
G74*
D01*
G03X9865Y41016I1900J721*
G01*
D02*
G37*
G36*
X7244Y39837D02*
X7244Y39837D01*
X8423Y39837D01*
X8423Y41016D01*
G74*
D01*
G03X7244Y39837I721J1900*
G01*
D02*
G37*
G36*
X17563Y38395D02*
X17563Y38395D01*
X16384Y38395D01*
X16384Y37216D01*
G74*
D01*
G03X17563Y38395I721J1900*
G01*
D02*
G37*
G36*
X14943Y37216D02*
X14943Y37216D01*
X14943Y38395D01*
X13763Y38395D01*
G74*
D01*
G03X14943Y37216I1900J721*
G01*
D02*
G37*
G36*
X11044Y38395D02*
X11044Y38395D01*
X9865Y38395D01*
X9865Y37216D01*
G74*
D01*
G03X11044Y38395I721J1900*
G01*
D02*
G37*
G36*
X8423Y37216D02*
X8423Y37216D01*
X8423Y38395D01*
X7244Y38395D01*
G74*
D01*
G03X8423Y37216I1900J721*
G01*
D02*
G37*
G36*
X13871Y35586D02*
X13871Y35586D01*
X10936Y35586D01*
G75*
D01*
G03X10936Y33672I-1791J-957*
G01*
X10936Y33672D01*
X13871Y33672D01*
G75*
D01*
G03X13871Y35586I1791J957*
G01*
D02*
G37*
G36*
X5020Y24665D02*
G74*
D01*
G03X4382Y25303I638J0*
G01*
X4382Y25303D01*
X3702Y25303D01*
X3702Y24112D01*
X5020Y24112D01*
X5020Y24665D01*
D02*
G37*
G36*
X4382Y21613D02*
G75*
D01*
G03X5020Y22252I-1J639*
G01*
X5020Y22252D01*
X5020Y22804D01*
X3702Y22804D01*
X3702Y21613D01*
X4382Y21613D01*
D02*
G37*
G36*
X13884Y19798D02*
G75*
D01*
G03X14522Y20436I0J638*
G01*
X14522Y20436D01*
X14522Y20826D01*
X13594Y20826D01*
X13594Y19798D01*
X13884Y19798D01*
D02*
G37*
G36*
X5034Y10414D02*
G75*
D01*
G03X5034Y10414I300J0*
G01*
D02*
G37*
G36*
X4884Y9227D02*
X4884Y9227D01*
X4884Y9964D01*
X4313Y9964D01*
X4898Y10467D01*
X4436Y10864D01*
X4884Y10864D01*
X4884Y11601D01*
G74*
D01*
G03X4230Y11042I449J1187*
G01*
X4230Y11042D01*
X2957Y12137D01*
X2957Y8797D01*
X4192Y9859D01*
G74*
D01*
G03X4884Y9227I1141J555*
G01*
D02*
G37*
G36*
X8544Y13606D02*
X8544Y13606D01*
X4663Y13606D01*
X6604Y11936D01*
X8544Y13606D01*
D02*
G37*
G36*
X10251Y8797D02*
X10251Y8797D01*
X10251Y12137D01*
X8310Y10467D01*
X10251Y8797D01*
D02*
G37*
G36*
X5784Y11601D02*
X5784Y11601D01*
X5784Y10864D01*
X6521Y10864D01*
G74*
D01*
G03X5784Y11601I1187J450*
G01*
D02*
G37*
G36*
X6521Y9964D02*
X6521Y9964D01*
X5784Y9964D01*
X5784Y9227D01*
G74*
D01*
G03X6521Y9964I450J1187*
G01*
D02*
G37*
G36*
X16356Y4651D02*
X16356Y4651D01*
X16356Y3656D01*
X17351Y3656D01*
G74*
D01*
G03X16356Y4651I1603J608*
G01*
D02*
G37*
G36*
X16466Y74284D02*
G75*
D01*
G03X17104Y73646I638J0*
G01*
X17104Y73646D01*
X17394Y73646D01*
X17394Y74674D01*
X16466Y74674D01*
X16466Y74284D01*
D02*
G37*
G36*
X3896Y72150D02*
G75*
D01*
G03X3258Y71512I0J-638*
G01*
X3258Y71512D01*
X3258Y71122D01*
X4186Y71122D01*
X4186Y72150D01*
X3896Y72150D01*
D02*
G37*
G36*
X3258Y69712D02*
G75*
D01*
G03X3896Y69074I638J0*
G01*
X3896Y69074D01*
X4186Y69074D01*
X4186Y70102D01*
X3258Y70102D01*
X3258Y69712D01*
D02*
G37*
G36*
X4180Y66338D02*
G75*
D01*
G03X3542Y65700I0J-638*
G01*
X3542Y65700D01*
X3542Y65410D01*
X4570Y65410D01*
X4570Y66338D01*
X4180Y66338D01*
D02*
G37*
G36*
X17165Y-15876D02*
G75*
D01*
G03X17165Y-15876I1885J0*
G01*
D02*
G37*
G36*
X17351Y2440D02*
X17351Y2440D01*
X16356Y2440D01*
X16356Y1445D01*
G74*
D01*
G03X17351Y2440I608J1603*
G01*
D02*
G37*
G36*
X6007Y88610D02*
X6007Y88610D01*
X5116Y88610D01*
X5116Y87719D01*
G74*
D01*
G03X6007Y88610I543J1434*
G01*
D02*
G37*
G36*
X10800Y93588D02*
X10800Y93588D01*
X10800Y94620D01*
X9768Y94620D01*
G74*
D01*
G03X10800Y93588I1662J630*
G01*
D02*
G37*
G36*
X17104Y76722D02*
G75*
D01*
G03X16466Y76084I0J-638*
G01*
X16466Y76084D01*
X16466Y75694D01*
X17394Y75694D01*
X17394Y76722D01*
X17104Y76722D01*
D02*
G37*
G36*
X4028Y87719D02*
X4028Y87719D01*
X4028Y88610D01*
X3137Y88610D01*
G74*
D01*
G03X4028Y87719I1434J543*
G01*
D02*
G37*
G36*
X3137Y89698D02*
X3137Y89698D01*
X4028Y89698D01*
X4028Y90589D01*
G74*
D01*
G03X3137Y89698I543J1434*
G01*
D02*
G37*
G36*
X5116Y90589D02*
X5116Y90589D01*
X5116Y89698D01*
X6007Y89698D01*
G74*
D01*
G03X5116Y90589I1434J543*
G01*
D02*
G37*
G36*
X4197Y89154D02*
G75*
D01*
G03X4197Y89154I375J0*
G01*
D02*
G37*
G36*
X9768Y95880D02*
X9768Y95880D01*
X10800Y95880D01*
X10800Y96912D01*
G74*
D01*
G03X9768Y95880I630J1662*
G01*
D02*
G37*
G36*
X10859Y95250D02*
G75*
D01*
G03X10859Y95250I571J0*
G01*
D02*
G37*
G36*
X48043Y20615D02*
X48043Y20615D01*
X46864Y20615D01*
X46864Y19436D01*
G74*
D01*
G03X48043Y20615I721J1900*
G01*
D02*
G37*
G36*
X46864Y23236D02*
X46864Y23236D01*
X46864Y22057D01*
X48043Y22057D01*
G74*
D01*
G03X46864Y23236I1900J721*
G01*
D02*
G37*
G36*
X48043Y38395D02*
X48043Y38395D01*
X46864Y38395D01*
X46864Y37216D01*
G74*
D01*
G03X48043Y38395I721J1900*
G01*
D02*
G37*
G36*
X69383Y37216D02*
X69383Y37216D01*
X69383Y38395D01*
X68204Y38395D01*
G74*
D01*
G03X69383Y37216I1900J721*
G01*
D02*
G37*
G36*
X46864Y41016D02*
X46864Y41016D01*
X46864Y39837D01*
X48043Y39837D01*
G74*
D01*
G03X46864Y41016I1900J721*
G01*
D02*
G37*
G36*
X68204Y39837D02*
X68204Y39837D01*
X69383Y39837D01*
X69383Y41016D01*
G74*
D01*
G03X68204Y39837I721J1900*
G01*
D02*
G37*
G36*
X65024Y46228D02*
G75*
D01*
G03X65024Y46228I508J0*
G01*
D02*
G37*
G36*
X23457Y20102D02*
X23457Y20102D01*
X24348Y20102D01*
X24348Y20993D01*
G74*
D01*
G03X23457Y20102I543J1434*
G01*
D02*
G37*
G36*
X24348Y18123D02*
X24348Y18123D01*
X24348Y19014D01*
X23457Y19014D01*
G74*
D01*
G03X24348Y18123I1434J543*
G01*
D02*
G37*
G36*
X26327Y19014D02*
X26327Y19014D01*
X25436Y19014D01*
X25436Y18123D01*
G74*
D01*
G03X26327Y19014I543J1434*
G01*
D02*
G37*
G36*
X24517Y19558D02*
G75*
D01*
G03X24517Y19558I375J0*
G01*
D02*
G37*
G36*
X38903Y19436D02*
X38903Y19436D01*
X38903Y20615D01*
X37724Y20615D01*
G74*
D01*
G03X38903Y19436I1900J721*
G01*
D02*
G37*
G36*
X41524Y20615D02*
X41524Y20615D01*
X40345Y20615D01*
X40345Y19436D01*
G74*
D01*
G03X41524Y20615I721J1900*
G01*
D02*
G37*
G36*
X45423Y19436D02*
X45423Y19436D01*
X45423Y20615D01*
X44243Y20615D01*
G74*
D01*
G03X45423Y19436I1900J721*
G01*
D02*
G37*
G36*
X25436Y20993D02*
X25436Y20993D01*
X25436Y20102D01*
X26327Y20102D01*
G74*
D01*
G03X25436Y20993I1434J543*
G01*
D02*
G37*
G36*
X38989Y21336D02*
G75*
D01*
G03X38989Y21336I635J0*
G01*
D02*
G37*
G36*
X37724Y22057D02*
X37724Y22057D01*
X38903Y22057D01*
X38903Y23236D01*
G74*
D01*
G03X37724Y22057I721J1900*
G01*
D02*
G37*
G36*
X40345Y23236D02*
X40345Y23236D01*
X40345Y22057D01*
X41524Y22057D01*
G74*
D01*
G03X40345Y23236I1900J721*
G01*
D02*
G37*
G36*
X44243Y22057D02*
X44243Y22057D01*
X45423Y22057D01*
X45423Y23236D01*
G74*
D01*
G03X44243Y22057I719J1900*
G01*
D02*
G37*
%LPD*%
G36*
X87862Y27627D02*
X87862Y27627D01*
X87862Y99362D01*
X52958Y99362D01*
X52958Y99362D01*
X56855Y95465D01*
G74*
D01*
G02X57155Y94742I721J723*
G01*
X57155Y94742D01*
X57155Y77470D01*
G75*
D01*
G02X56855Y76747I-1021J0*
G01*
X56855Y76747D01*
X53900Y73792D01*
X58546Y73792D01*
G75*
D01*
G02X58813Y73757I2J-1021*
G01*
G74*
D01*
G02X59270Y73492I266J986*
G01*
X59270Y73492D01*
X67523Y65239D01*
G74*
D01*
G02X67823Y64516I721J723*
G01*
X67823Y64516D01*
X67823Y59948D01*
G75*
D01*
G02X69415Y59885I757J-1020*
G01*
X69415Y59885D01*
X71332Y59885D01*
G74*
D01*
G02X71747Y60427I635J57*
G01*
X71747Y60427D01*
X71747Y61493D01*
G75*
D01*
G02X71330Y62092I221J599*
G01*
X71330Y62092D01*
X71330Y63892D01*
G74*
D01*
G02X71747Y64491I638J0*
G01*
X71747Y64491D01*
X71747Y66162D01*
G75*
D01*
G02X72046Y66886I1021J2*
G01*
X72046Y66886D01*
X72258Y67098D01*
X72258Y67860D01*
G74*
D01*
G02X72333Y68243I1021J1*
G01*
X72333Y68243D01*
X72333Y68368D01*
G75*
D01*
G02X73268Y69304I935J1*
G01*
X73268Y69304D01*
X73290Y69304D01*
G74*
D01*
G02X73914Y69065I1J936*
G01*
G75*
D01*
G02X74538Y69304I624J-696*
G01*
X74538Y69304D01*
X74560Y69304D01*
G74*
D01*
G02X75184Y69065I1J936*
G01*
G75*
D01*
G02X75808Y69304I624J-696*
G01*
X75808Y69304D01*
X75830Y69304D01*
G74*
D01*
G02X76454Y69065I1J936*
G01*
G75*
D01*
G02X77078Y69304I624J-696*
G01*
X77078Y69304D01*
X77100Y69304D01*
G74*
D01*
G02X78035Y68368I1J936*
G01*
X78035Y68368D01*
X78035Y68243D01*
G74*
D01*
G02X78110Y67860I945J384*
G01*
X78110Y67860D01*
X78110Y66590D01*
X78953Y65747D01*
G74*
D01*
G02X79253Y65024I721J723*
G01*
X79253Y65024D01*
X79253Y58413D01*
G75*
D01*
G02X78586Y56438I-1019J-756*
G01*
X78586Y56438D01*
X77006Y54858D01*
X77006Y53964D01*
G75*
D01*
G02X76368Y53326I-638J0*
G01*
X76368Y53326D01*
X74768Y53326D01*
G75*
D01*
G02X74168Y53747I0J638*
G01*
G74*
D01*
G02X73568Y53326I600J217*
G01*
X73568Y53326D01*
X71968Y53326D01*
G75*
D01*
G02X71330Y53964I0J638*
G01*
X71330Y53964D01*
X71330Y55764D01*
G74*
D01*
G02X71747Y56363I638J0*
G01*
X71747Y56363D01*
X71747Y57429D01*
G74*
D01*
G02X71332Y57971I220J599*
G01*
X71332Y57971D01*
X69415Y57971D01*
G75*
D01*
G02X67823Y57908I-835J957*
G01*
X67823Y57908D01*
X67823Y54525D01*
X69257Y53091D01*
X80518Y53091D01*
G74*
D01*
G02X81241Y52791I0J1021*
G01*
X81241Y52791D01*
X82670Y51362D01*
X85049Y48983D01*
G74*
D01*
G02X85349Y48260I721J723*
G01*
X85349Y48260D01*
X85349Y30246D01*
X85828Y30246D01*
G74*
D01*
G02X86466Y29608I0J638*
G01*
X86466Y29608D01*
X86466Y29010D01*
G74*
D01*
G02X86574Y28916I615J815*
G01*
X86574Y28916D01*
X87843Y27647D01*
G74*
D01*
G02X87862Y27627I731J713*
G01*
D02*
G37*
%LPC*%
G36*
X76840Y74777D02*
G75*
D01*
G02X77078Y74808I239J-904*
G01*
X77078Y74808D01*
X77100Y74808D01*
G74*
D01*
G02X77556Y74689I1J936*
G01*
X77556Y74689D01*
X77089Y73976D01*
X76840Y74356D01*
X76840Y73364D01*
G75*
D01*
G02X76765Y72981I-1021J1*
G01*
X76765Y72981D01*
X76765Y72856D01*
G75*
D01*
G02X75830Y71920I-935J-1*
G01*
X75830Y71920D01*
X75808Y71920D01*
G75*
D01*
G02X75184Y72159I1J936*
G01*
G74*
D01*
G02X74560Y71920I624J696*
G01*
X74560Y71920D01*
X74538Y71920D01*
G75*
D01*
G02X74024Y72073I-1J936*
G01*
G74*
D01*
G02X74000Y72048I748J694*
G01*
X74000Y72048D01*
X73367Y71415D01*
G74*
D01*
G02X72766Y71122I723J721*
G01*
G75*
D01*
G02X72643Y71115I-119J1014*
G01*
X72643Y71115D01*
X70428Y71115D01*
G75*
D01*
G02X70369Y71117I5J1021*
G01*
G74*
D01*
G02X69706Y71414I58J1018*
G01*
X69706Y71414D01*
X68932Y72188D01*
X68038Y72188D01*
G75*
D01*
G02X67774Y72245I0J638*
G01*
X67774Y72245D01*
X67745Y72217D01*
G74*
D01*
G02X66967Y71880I813J810*
G01*
G74*
D01*
G02X66649Y71628I535J348*
G01*
G74*
D01*
G02X67070Y71028I217J600*
G01*
X67070Y71028D01*
X67070Y70738D01*
X66042Y70738D01*
X66042Y71590D01*
X65022Y71590D01*
X65022Y70738D01*
X63994Y70738D01*
X63994Y71028D01*
G74*
D01*
G02X64415Y71628I638J0*
G01*
G75*
D01*
G02X63994Y72228I217J600*
G01*
X63994Y72228D01*
X63994Y73828D01*
G75*
D01*
G02X64632Y74466I638J0*
G01*
X64632Y74466D01*
X66432Y74466D01*
G74*
D01*
G02X66725Y74395I1J638*
G01*
G75*
D01*
G02X67311Y74555I585J-989*
G01*
X67311Y74555D01*
X67565Y74555D01*
G74*
D01*
G02X67715Y74676I471J430*
G01*
G74*
D01*
G02X67640Y74727I320J551*
G01*
X67640Y74727D01*
X67381Y74727D01*
G75*
D01*
G02X66705Y74947I0J1149*
G01*
G74*
D01*
G02X66432Y74886I272J577*
G01*
X66432Y74886D01*
X64632Y74886D01*
G75*
D01*
G02X63994Y75524I0J638*
G01*
X63994Y75524D01*
X63994Y77124D01*
G74*
D01*
G02X64415Y77724I638J0*
G01*
G75*
D01*
G02X63994Y78324I217J600*
G01*
X63994Y78324D01*
X63994Y78614D01*
X65022Y78614D01*
X65022Y77762D01*
X66042Y77762D01*
X66042Y78614D01*
X67070Y78614D01*
X67070Y78324D01*
G75*
D01*
G02X66649Y77724I-638J0*
G01*
G74*
D01*
G02X66967Y77472I217J600*
G01*
G74*
D01*
G02X67745Y77135I35J1147*
G01*
X67745Y77135D01*
X67774Y77107D01*
G75*
D01*
G02X68038Y77164I264J-581*
G01*
X68038Y77164D01*
X70138Y77164D01*
G74*
D01*
G02X70657Y76897I0J638*
G01*
X70657Y76897D01*
X72804Y76897D01*
X72804Y81268D01*
G75*
D01*
G02X73442Y81906I638J0*
G01*
X73442Y81906D01*
X77942Y81906D01*
G74*
D01*
G02X78580Y81268I0J638*
G01*
X78580Y81268D01*
X78580Y76768D01*
G75*
D01*
G02X77942Y76130I-638J0*
G01*
X77942Y76130D01*
X76840Y76130D01*
X76840Y74777D01*
D02*
G37*
G36*
X66432Y68790D02*
X66432Y68790D01*
X66042Y68790D01*
X66042Y69718D01*
X67070Y69718D01*
X67070Y69428D01*
G75*
D01*
G02X66432Y68790I-638J0*
G01*
D02*
G37*
G36*
X63994Y69428D02*
X63994Y69428D01*
X63994Y69718D01*
X65022Y69718D01*
X65022Y68790D01*
X64632Y68790D01*
G75*
D01*
G02X63994Y69428I0J638*
G01*
D02*
G37*
G36*
X61385Y75242D02*
G74*
D01*
G02X60648Y74505I1187J450*
G01*
X60648Y74505D01*
X60648Y75242D01*
X61385Y75242D01*
D02*
G37*
G36*
X59748Y74505D02*
G74*
D01*
G02X59011Y75242I450J1187*
G01*
X59011Y75242D01*
X59748Y75242D01*
X59748Y74505D01*
D02*
G37*
G36*
X67070Y79924D02*
X67070Y79924D01*
X67070Y79634D01*
X66042Y79634D01*
X66042Y80562D01*
X66432Y80562D01*
G74*
D01*
G02X67070Y79924I0J638*
G01*
D02*
G37*
G36*
X64632Y80562D02*
X64632Y80562D01*
X65022Y80562D01*
X65022Y79634D01*
X63994Y79634D01*
X63994Y79924D01*
G75*
D01*
G02X64632Y80562I638J0*
G01*
D02*
G37*
G36*
X60648Y76879D02*
G74*
D01*
G02X61385Y76142I450J1187*
G01*
X61385Y76142D01*
X60648Y76142D01*
X60648Y76879D01*
D02*
G37*
G36*
X59011Y76142D02*
G74*
D01*
G02X59748Y76879I1187J450*
G01*
X59748Y76879D01*
X59748Y76142D01*
X59011Y76142D01*
D02*
G37*
G36*
X59898Y75692D02*
G75*
D01*
G02X59898Y75692I300J0*
G01*
D02*
G37*
G36*
X72804Y84618D02*
X72804Y84618D01*
X72804Y85844D01*
X74668Y85844D01*
X74668Y83980D01*
X73442Y83980D01*
G75*
D01*
G02X72804Y84618I0J638*
G01*
D02*
G37*
G36*
X77942Y83980D02*
X77942Y83980D01*
X76716Y83980D01*
X76716Y85844D01*
X78580Y85844D01*
X78580Y84618D01*
G75*
D01*
G02X77942Y83980I-638J0*
G01*
D02*
G37*
G36*
X72804Y89118D02*
G75*
D01*
G02X73442Y89756I638J0*
G01*
X73442Y89756D01*
X74668Y89756D01*
X74668Y87892D01*
X72804Y87892D01*
X72804Y89118D01*
D02*
G37*
G36*
X78580Y89118D02*
X78580Y89118D01*
X78580Y87892D01*
X76716Y87892D01*
X76716Y89756D01*
X77942Y89756D01*
G74*
D01*
G02X78580Y89118I0J638*
G01*
D02*
G37*
G36*
X72804Y96968D02*
G75*
D01*
G02X73442Y97606I638J0*
G01*
X73442Y97606D01*
X77942Y97606D01*
G74*
D01*
G02X78580Y96968I0J638*
G01*
X78580Y96968D01*
X78580Y92468D01*
G75*
D01*
G02X77942Y91830I-638J0*
G01*
X77942Y91830D01*
X73442Y91830D01*
G75*
D01*
G02X72804Y92468I0J638*
G01*
X72804Y92468D01*
X72804Y96968D01*
D02*
G37*
G36*
X77997Y72590D02*
X77997Y72590D01*
X77490Y73364D01*
X77997Y74137D01*
G74*
D01*
G02X78035Y73872I897J264*
G01*
X78035Y73872D01*
X78035Y72856D01*
G75*
D01*
G02X77997Y72590I-935J-2*
G01*
D02*
G37*
G36*
X76622Y72039D02*
X76622Y72039D01*
X77089Y72751D01*
X77556Y72039D01*
G74*
D01*
G02X77100Y71920I456J816*
G01*
X77100Y71920D01*
X77078Y71920D01*
G75*
D01*
G02X76622Y72039I1J936*
G01*
D02*
G37*
%LPD*%
G36*
X45153Y70057D02*
X45153Y70057D01*
X45153Y77836D01*
X45862Y78544D01*
X45862Y78544D01*
X46044Y78726D01*
G75*
D01*
G03X46060Y78726I8J638*
G01*
X46060Y78726D01*
X47660Y78726D01*
G74*
D01*
G03X48260Y79147I0J638*
G01*
G75*
D01*
G03X48860Y78726I600J217*
G01*
X48860Y78726D01*
X50460Y78726D01*
G75*
D01*
G03X51098Y79364I0J638*
G01*
X51098Y79364D01*
X51098Y80209D01*
G74*
D01*
G03X51620Y79839I971J817*
G01*
X51620Y79839D01*
X51620Y80576D01*
X51098Y80576D01*
X51098Y81164D01*
G74*
D01*
G03X51016Y81476I638J1*
G01*
X51016Y81476D01*
X51620Y81476D01*
X51620Y82213D01*
G74*
D01*
G03X50933Y81592I449J1187*
G01*
G74*
D01*
G03X50617Y81782I472J428*
G01*
X50617Y81782D01*
X50617Y84706D01*
G74*
D01*
G03X50336Y85384I957J1*
G01*
X50336Y85384D01*
X48709Y87010D01*
X48709Y90282D01*
X48976Y90549D01*
X49650Y90549D01*
G74*
D01*
G03X49840Y90568I0J957*
G01*
X49840Y90568D01*
X50150Y90568D01*
G75*
D01*
G03X50788Y91206I0J638*
G01*
X50788Y91206D01*
X50788Y91499D01*
X51950Y91499D01*
G74*
D01*
G03X52140Y91518I0J957*
G01*
X52140Y91518D01*
X52450Y91518D01*
G75*
D01*
G03X53088Y92156I0J638*
G01*
X53088Y92156D01*
X53088Y92756D01*
G74*
D01*
G03X52450Y93394I638J0*
G01*
X52450Y93394D01*
X52140Y93394D01*
G74*
D01*
G03X51950Y93413I190J938*
G01*
X51950Y93413D01*
X49344Y93413D01*
X49265Y93492D01*
G75*
D01*
G03X50467Y93739I265J1757*
G01*
X50467Y93739D01*
X50787Y93739D01*
G74*
D01*
G03X50741Y93948I636J30*
G01*
G75*
D01*
G03X51268Y95624I-1211J1302*
G01*
X51268Y95624D01*
X53589Y93303D01*
X53589Y79163D01*
X50758Y76332D01*
X48796Y76332D01*
G75*
D01*
G03X48393Y76249I0J-1021*
G01*
X48393Y76249D01*
X47696Y76249D01*
G75*
D01*
G03X47058Y75611I0J-638*
G01*
X47058Y75611D01*
X47058Y75011D01*
G75*
D01*
G03X47153Y74676I638J0*
G01*
G74*
D01*
G03X47058Y74341I543J335*
G01*
X47058Y74341D01*
X47058Y73741D01*
G75*
D01*
G03X47153Y73406I638J0*
G01*
G74*
D01*
G03X47058Y73071I543J335*
G01*
X47058Y73071D01*
X47058Y72471D01*
G75*
D01*
G03X47153Y72136I638J0*
G01*
G74*
D01*
G03X47058Y71801I543J335*
G01*
X47058Y71801D01*
X47058Y71201D01*
G75*
D01*
G03X47153Y70866I638J0*
G01*
G74*
D01*
G03X47059Y70564I543J335*
G01*
X47059Y70564D01*
X47666Y70564D01*
G75*
D01*
G03X47696Y70563I36J636*
G01*
X47696Y70563D01*
X48393Y70563D01*
G75*
D01*
G03X48796Y70480I403J937*
G01*
X48796Y70480D01*
X57108Y70480D01*
X64511Y63077D01*
X64511Y60377D01*
X57746Y67142D01*
G74*
D01*
G03X57023Y67442I723J721*
G01*
X57023Y67442D01*
X50534Y67442D01*
X50534Y67991D01*
G74*
D01*
G03X50439Y68326I638J0*
G01*
G75*
D01*
G03X50534Y68661I-543J335*
G01*
X50534Y68661D01*
X50534Y69261D01*
G74*
D01*
G03X50439Y69596I638J0*
G01*
G74*
D01*
G03X50533Y69898I543J335*
G01*
X50533Y69898D01*
X49926Y69898D01*
G74*
D01*
G03X49896Y69899I36J636*
G01*
X49896Y69899D01*
X48986Y69899D01*
G74*
D01*
G03X48796Y69918I190J938*
G01*
X48796Y69918D01*
X47212Y69918D01*
G74*
D01*
G03X46812Y70042I476J829*
G01*
G75*
D01*
G03X45153Y70057I-838J-953*
G01*
D02*
G37*
%LPC*%
G36*
X52520Y82213D02*
X52520Y82213D01*
X52520Y81476D01*
X53257Y81476D01*
G74*
D01*
G03X52520Y82213I1187J450*
G01*
D02*
G37*
G36*
X51770Y81026D02*
G75*
D01*
G03X51770Y81026I300J0*
G01*
D02*
G37*
G36*
X53257Y80576D02*
X53257Y80576D01*
X52520Y80576D01*
X52520Y79839D01*
G74*
D01*
G03X53257Y80576I450J1187*
G01*
D02*
G37*
%LPD*%
G36*
X43375Y58420D02*
X43375Y58420D01*
X43375Y62088D01*
X45481Y64194D01*
X46076Y64194D01*
X45862Y63979D01*
X45862Y63979D01*
X45297Y63415D01*
G75*
D01*
G03X45017Y62736I677J-676*
G01*
X45017Y62736D01*
X45017Y57659D01*
G75*
D01*
G03X45297Y56981I957J-2*
G01*
X45297Y56981D01*
X45862Y56417D01*
X46567Y55711D01*
G75*
D01*
G03X47245Y55431I676J677*
G01*
X47245Y55431D01*
X49965Y55431D01*
G75*
D01*
G03X49965Y57345I835J957*
G01*
X49965Y57345D01*
X47640Y57345D01*
X46931Y58054D01*
X46931Y62342D01*
X47058Y62468D01*
X47058Y62311D01*
G75*
D01*
G03X47153Y61976I638J0*
G01*
G74*
D01*
G03X47058Y61641I543J335*
G01*
X47058Y61641D01*
X47058Y61041D01*
G75*
D01*
G03X47153Y60706I638J0*
G01*
G74*
D01*
G03X47058Y60371I543J335*
G01*
X47058Y60371D01*
X47058Y59771D01*
G75*
D01*
G03X47153Y59436I638J0*
G01*
G74*
D01*
G03X47058Y59101I543J335*
G01*
X47058Y59101D01*
X47058Y58501D01*
G75*
D01*
G03X47696Y57863I638J0*
G01*
X47696Y57863D01*
X48606Y57863D01*
G75*
D01*
G03X48796Y57844I190J938*
G01*
X48796Y57844D01*
X51801Y57844D01*
X52891Y56754D01*
X52891Y51958D01*
X52294Y51362D01*
X49866Y48933D01*
X9666Y48933D01*
X9666Y50200D01*
G74*
D01*
G03X9245Y50800I638J0*
G01*
G74*
D01*
G03X9334Y50840I216J600*
G01*
X9334Y50840D01*
X10880Y49294D01*
G74*
D01*
G03X11344Y49038I676J677*
G01*
G75*
D01*
G03X11557Y49014I213J933*
G01*
X11557Y49014D01*
X25333Y49014D01*
G74*
D01*
G03X26011Y49295I1J957*
G01*
X26011Y49295D01*
X33033Y56318D01*
G75*
D01*
G03X35125Y55177I1257J-185*
G01*
X35125Y55177D01*
X40132Y55177D01*
G74*
D01*
G03X40810Y55458I1J957*
G01*
X40810Y55458D01*
X43094Y57742D01*
G75*
D01*
G03X43375Y58420I-676J677*
G01*
D02*
G37*
G36*
X41998Y74590D02*
X41998Y74590D01*
X43239Y75831D01*
X43239Y68835D01*
G75*
D01*
G03X43519Y68157I957J-2*
G01*
X43519Y68157D01*
X44662Y67014D01*
G75*
D01*
G03X45340Y66734I676J677*
G01*
X45340Y66734D01*
X47058Y66734D01*
G74*
D01*
G03X47058Y66721I638J6*
G01*
X47058Y66721D01*
X47058Y66121D01*
G75*
D01*
G03X47058Y66108I638J-6*
G01*
X47058Y66108D01*
X45086Y66108D01*
G75*
D01*
G03X44408Y65828I-2J-957*
G01*
X44408Y65828D01*
X41741Y63161D01*
G75*
D01*
G03X41461Y62483I677J-676*
G01*
X41461Y62483D01*
X41461Y58816D01*
X41334Y58690D01*
X41334Y59101D01*
G74*
D01*
G03X41239Y59436I638J0*
G01*
G75*
D01*
G03X41334Y59771I-543J335*
G01*
X41334Y59771D01*
X41334Y60371D01*
G74*
D01*
G03X41239Y60706I638J0*
G01*
G75*
D01*
G03X41334Y61041I-543J335*
G01*
X41334Y61041D01*
X41334Y61641D01*
G74*
D01*
G03X41239Y61976I638J0*
G01*
G75*
D01*
G03X41334Y62311I-543J335*
G01*
X41334Y62311D01*
X41334Y62911D01*
G74*
D01*
G03X41239Y63246I638J0*
G01*
G75*
D01*
G03X41334Y63581I-543J335*
G01*
X41334Y63581D01*
X41334Y64181D01*
G74*
D01*
G03X41239Y64516I638J0*
G01*
G75*
D01*
G03X41334Y64851I-543J335*
G01*
X41334Y64851D01*
X41334Y65451D01*
G74*
D01*
G03X41239Y65786I638J0*
G01*
G75*
D01*
G03X41334Y66121I-543J335*
G01*
X41334Y66121D01*
X41334Y66721D01*
G74*
D01*
G03X41239Y67056I638J0*
G01*
G74*
D01*
G03X41333Y67358I543J335*
G01*
X41333Y67358D01*
X40726Y67358D01*
G74*
D01*
G03X40696Y67359I36J636*
G01*
X40696Y67359D01*
X39786Y67359D01*
G74*
D01*
G03X39596Y67378I190J938*
G01*
X39596Y67378D01*
X36775Y67378D01*
G75*
D01*
G03X34601Y66172I-963J-826*
G01*
X34601Y66172D01*
X33932Y66172D01*
G74*
D01*
G03X34207Y66606I913J883*
G01*
X34207Y66606D01*
X33470Y66606D01*
X33470Y66172D01*
X32570Y66172D01*
X32570Y66606D01*
X31833Y66606D01*
G74*
D01*
G03X32004Y66294I1187J448*
G01*
G75*
D01*
G03X31785Y64130I-762J-1016*
G01*
X31785Y64130D01*
X32569Y64130D01*
G75*
D01*
G03X33013Y62743I1212J-377*
G01*
X33013Y62743D01*
X30727Y62743D01*
G75*
D01*
G03X29860Y60457I-752J-1022*
G01*
X29860Y60457D01*
X26917Y60457D01*
G75*
D01*
G03X25613Y60581I-755J-1020*
G01*
X25613Y60581D01*
X27600Y62568D01*
G75*
D01*
G03X27881Y63246I-676J677*
G01*
X27881Y63246D01*
X27881Y69073D01*
X28082Y69274D01*
X32845Y69274D01*
G75*
D01*
G03X33470Y67697I1190J-441*
G01*
X33470Y67697D01*
X33470Y67506D01*
X34207Y67506D01*
G74*
D01*
G03X34180Y67572I1188J447*
G01*
G74*
D01*
G03X34997Y68004I144J1262*
G01*
X34997Y68004D01*
X39596Y68004D01*
G74*
D01*
G03X39786Y68023I0J957*
G01*
X39786Y68023D01*
X40696Y68023D01*
G74*
D01*
G03X40726Y68024I6J638*
G01*
X40726Y68024D01*
X41333Y68024D01*
G74*
D01*
G03X41239Y68326I636J32*
G01*
G75*
D01*
G03X41334Y68661I-543J335*
G01*
X41334Y68661D01*
X41334Y69261D01*
G74*
D01*
G03X41239Y69596I638J0*
G01*
G75*
D01*
G03X41334Y69931I-543J335*
G01*
X41334Y69931D01*
X41334Y70531D01*
G74*
D01*
G03X41239Y70866I638J0*
G01*
G75*
D01*
G03X41334Y71201I-543J335*
G01*
X41334Y71201D01*
X41334Y71801D01*
G74*
D01*
G03X41239Y72136I638J0*
G01*
G75*
D01*
G03X41334Y72471I-543J335*
G01*
X41334Y72471D01*
X41334Y73071D01*
G74*
D01*
G03X41239Y73406I638J0*
G01*
G75*
D01*
G03X41334Y73741I-543J335*
G01*
X41334Y73741D01*
X41334Y74292D01*
G74*
D01*
G03X41998Y74590I58J1018*
G01*
D02*
G37*
%LPC*%
G36*
X32720Y67056D02*
G75*
D01*
G03X32720Y67056I300J0*
G01*
D02*
G37*
G36*
X31833Y67506D02*
X31833Y67506D01*
X32570Y67506D01*
X32570Y68243D01*
G74*
D01*
G03X31833Y67506I450J1187*
G01*
D02*
G37*
%LPD*%
G36*
X24813Y51362D02*
G75*
D01*
G03X24833Y53778I-937J1216*
G01*
X24833Y53778D01*
X24833Y59802D01*
X25017Y59985D01*
G75*
D01*
G03X26917Y58415I1143J-552*
G01*
X26917Y58415D01*
X32424Y58415D01*
X25370Y51362D01*
X25370Y51362D01*
X24937Y50928D01*
X11953Y50928D01*
X11734Y51148D01*
G75*
D01*
G03X9666Y52854I-558J1430*
G01*
X9666Y52854D01*
X9666Y53000D01*
G74*
D01*
G03X9028Y53638I638J0*
G01*
X9028Y53638D01*
X7228Y53638D01*
G75*
D01*
G03X6590Y53000I0J-638*
G01*
X6590Y53000D01*
X6590Y52833D01*
X5815Y52833D01*
G75*
D01*
G03X3923Y51533I-736J-955*
G01*
X3923Y51533D01*
X3922Y51533D01*
X3841Y51615D01*
G74*
D01*
G03X3609Y51847I919J687*
G01*
X3609Y51847D01*
X3497Y51958D01*
X3497Y54722D01*
X3972Y55197D01*
X4011Y55197D01*
G75*
D01*
G03X5785Y57404I1065J961*
G01*
G74*
D01*
G03X6004Y57556I705J1250*
G01*
X6004Y57556D01*
X7396Y56164D01*
G74*
D01*
G03X7774Y55925I721J723*
G01*
G75*
D01*
G03X8118Y55865I345J960*
G01*
X8118Y55865D01*
X12375Y55865D01*
G75*
D01*
G03X15057Y55865I1341J-747*
G01*
X15057Y55865D01*
X16246Y55865D01*
G74*
D01*
G03X16969Y56165I0J1021*
G01*
X16969Y56165D01*
X20279Y59475D01*
G75*
D01*
G03X20579Y60198I-721J723*
G01*
X20579Y60198D01*
X20579Y61927D01*
X21128Y61927D01*
G74*
D01*
G03X21463Y62022I0J638*
G01*
G75*
D01*
G03X21798Y61927I335J543*
G01*
X21798Y61927D01*
X22398Y61927D01*
G74*
D01*
G03X22987Y62319I0J638*
G01*
X22987Y62319D01*
X23084Y62319D01*
G74*
D01*
G03X23807Y62619I0J1021*
G01*
X23807Y62619D01*
X24390Y63202D01*
X25284Y63202D01*
G74*
D01*
G03X25625Y63301I0J638*
G01*
X25625Y63301D01*
X23199Y60875D01*
G75*
D01*
G03X22919Y60197I677J-676*
G01*
X22919Y60197D01*
X22919Y53778D01*
G75*
D01*
G03X24813Y51362I947J-1208*
G01*
X24813Y51362D01*
X24813Y51362D01*
D02*
G37*
%LPC*%
G36*
X19811Y54946D02*
X19811Y54946D01*
X18968Y54103D01*
G75*
D01*
G03X17526Y53440I-173J-1524*
G01*
G74*
D01*
G03X16800Y54013I1269J862*
G01*
X16800Y54013D01*
X16800Y53122D01*
X17361Y53122D01*
G75*
D01*
G03X17361Y52034I1434J-544*
G01*
X17361Y52034D01*
X16800Y52034D01*
X16800Y51143D01*
G74*
D01*
G03X17526Y51716I543J1435*
G01*
G75*
D01*
G03X20321Y52750I1271J859*
G01*
X20321Y52750D01*
X21164Y53593D01*
G75*
D01*
G03X19811Y54946I171J1524*
G01*
D02*
G37*
G36*
X15712Y51143D02*
X15712Y51143D01*
X15712Y52034D01*
X14821Y52034D01*
G74*
D01*
G03X15712Y51143I1434J543*
G01*
D02*
G37*
G36*
X14821Y53122D02*
X14821Y53122D01*
X15712Y53122D01*
X15712Y54013D01*
G74*
D01*
G03X14821Y53122I543J1434*
G01*
D02*
G37*
G36*
X15881Y52578D02*
G75*
D01*
G03X15881Y52578I375J0*
G01*
D02*
G37*
%LPD*%
G36*
X80172Y17258D02*
G74*
D01*
G03X80772Y17679I0J638*
G01*
G75*
D01*
G03X81372Y17258I600J217*
G01*
X81372Y17258D01*
X82972Y17258D01*
G74*
D01*
G03X83605Y17818I0J638*
G01*
G74*
D01*
G03X84035Y18075I292J977*
G01*
X84035Y18075D01*
X85049Y19089D01*
G75*
D01*
G03X85349Y19812I-721J723*
G01*
X85349Y19812D01*
X85349Y21570D01*
X85828Y21570D01*
G74*
D01*
G03X86101Y21631I1J638*
G01*
X86101Y21631D01*
X86101Y17187D01*
X84159Y15245D01*
X78401Y15245D01*
X75697Y17949D01*
X75697Y20848D01*
G75*
D01*
G03X76412Y20517I714J604*
G01*
X76412Y20517D01*
X77428Y20517D01*
G75*
D01*
G03X78364Y21452I1J935*
G01*
X78364Y21452D01*
X78364Y21474D01*
G74*
D01*
G03X78301Y21809I936J3*
G01*
G75*
D01*
G03X82190Y22595I1709J1559*
G01*
X82190Y22595D01*
X82190Y22208D01*
G75*
D01*
G03X82828Y21570I638J0*
G01*
X82828Y21570D01*
X83307Y21570D01*
X83307Y20239D01*
G74*
D01*
G03X82972Y20334I335J543*
G01*
X82972Y20334D01*
X81372Y20334D01*
G75*
D01*
G03X80772Y19913I0J-638*
G01*
G74*
D01*
G03X80172Y20334I600J217*
G01*
X80172Y20334D01*
X79882Y20334D01*
X79882Y19306D01*
X80734Y19306D01*
X80734Y18286D01*
X79882Y18286D01*
X79882Y17258D01*
X80172Y17258D01*
D02*
G37*
%LPC*%
G36*
X76662Y18542D02*
G75*
D01*
G03X76662Y18542I300J0*
G01*
D02*
G37*
G36*
X77412Y17355D02*
G74*
D01*
G03X77952Y17746I448J1187*
G01*
G75*
D01*
G03X78572Y17258I619J149*
G01*
X78572Y17258D01*
X78862Y17258D01*
X78862Y18286D01*
X77934Y18286D01*
X77934Y18092D01*
X77412Y18092D01*
X77412Y17355D01*
D02*
G37*
G36*
X76512Y17355D02*
X76512Y17355D01*
X76512Y18092D01*
X75775Y18092D01*
G74*
D01*
G03X76512Y17355I1187J450*
G01*
D02*
G37*
G36*
X77977Y19306D02*
X77977Y19306D01*
X78862Y19306D01*
X78862Y20334D01*
X78572Y20334D01*
G75*
D01*
G03X77934Y19696I0J-638*
G01*
X77934Y19696D01*
X77934Y19359D01*
G74*
D01*
G03X77412Y19729I971J817*
G01*
X77412Y19729D01*
X77412Y18992D01*
X78149Y18992D01*
G74*
D01*
G03X77977Y19306I1188J447*
G01*
D02*
G37*
G36*
X75775Y18992D02*
X75775Y18992D01*
X76512Y18992D01*
X76512Y19729D01*
G74*
D01*
G03X75775Y18992I450J1187*
G01*
D02*
G37*
%LPD*%
G36*
X9872Y87635D02*
G75*
D01*
G03X11184Y89243I-219J1518*
G01*
X11184Y89243D01*
X14691Y92749D01*
G75*
D01*
G03X14991Y93472I-721J723*
G01*
X14991Y93472D01*
X14991Y93794D01*
G74*
D01*
G03X15240Y94006I1023J1454*
G01*
G74*
D01*
G03X15489Y93794I1272J1241*
G01*
X15489Y93794D01*
X15489Y90593D01*
X12531Y87635D01*
X9872Y87635D01*
D02*
G37*
G36*
X25501Y66040D02*
G74*
D01*
G02X25922Y65440I217J600*
G01*
X25922Y65440D01*
X25922Y63840D01*
G75*
D01*
G02X25823Y63499I-638J0*
G01*
X25823Y63499D01*
X25967Y63642D01*
X25967Y69073D01*
X25766Y69274D01*
X23129Y69274D01*
X23055Y69200D01*
X23055Y68740D01*
G75*
D01*
G02X23055Y68712I-957J-14*
G01*
G75*
D01*
G02X23484Y68878I429J-471*
G01*
X23484Y68878D01*
X25284Y68878D01*
G74*
D01*
G02X25922Y68240I0J638*
G01*
X25922Y68240D01*
X25922Y66640D01*
G75*
D01*
G02X25501Y66040I-638J0*
G01*
D02*
G37*
G36*
X19371Y25936D02*
G75*
D01*
G03X19436Y26278I-870J343*
G01*
X19436Y26278D01*
X19436Y26300D01*
G74*
D01*
G03X19405Y26538I936J1*
G01*
X19405Y26538D01*
X19770Y26538D01*
X21331Y24977D01*
X21331Y23244D01*
G74*
D01*
G03X20833Y22318I1020J1146*
G01*
X20833Y22318D01*
X20833Y24130D01*
G74*
D01*
G03X20533Y24853I1021J0*
G01*
X20533Y24853D01*
X19646Y25740D01*
G74*
D01*
G03X19371Y25936I722J722*
G01*
D02*
G37*
G36*
X5815Y49619D02*
X5815Y49619D01*
X6556Y49619D01*
X6590Y49585D01*
X6590Y48933D01*
X5815Y48933D01*
G74*
D01*
G03X5253Y49170I734J957*
G01*
G75*
D01*
G03X5253Y49382I-172J106*
G01*
G74*
D01*
G03X5815Y49619I172J1194*
G01*
D02*
G37*
G36*
X30727Y60701D02*
G74*
D01*
G02X30084Y60457I755J1020*
G01*
X30084Y60457D01*
X33105Y60457D01*
X33349Y60701D01*
X30727Y60701D01*
D02*
G37*
G36*
X56329Y56745D02*
X56329Y56745D01*
X56329Y55523D01*
G74*
D01*
G02X56760Y56134I1582J659*
G01*
G74*
D01*
G02X56329Y56745I1151J1270*
G01*
D02*
G37*
G36*
X56591Y53771D02*
G74*
D01*
G02X56329Y54205I1320J1093*
G01*
X56329Y54205D01*
X56329Y53448D01*
G74*
D01*
G02X56591Y53771I1000J543*
G01*
D02*
G37*
G36*
X69855Y21563D02*
G74*
D01*
G02X69978Y21573I236J2146*
G01*
G74*
D01*
G02X70003Y21712I930J96*
G01*
X70003Y21712D01*
X69892Y21712D01*
X69862Y21682D01*
X69855Y21675D01*
X69855Y21563D01*
D02*
G37*
G54D11*
X21862Y95753D02*
G75*
D01*
G03X21862Y95753I-272J-503*
G01*
X69862Y39703D02*
G75*
D01*
G03X69862Y39703I242J-587*
G01*
X69862Y36646D02*
G75*
D01*
G03X69862Y36646I242J-2017*
G01*
X44351Y35586D02*
X41416Y35586D01*
G75*
D01*
G03X41416Y33672I-1791J-957*
G01*
X44351Y33672D01*
G75*
D01*
G03X44351Y35586I1791J957*
G01*
X45862Y38547D02*
G75*
D01*
G03X45862Y38547I281J569*
G01*
X5467Y3233D02*
G75*
D01*
G03X5952Y4053I-450J820*
G01*
X5952Y6466D01*
G74*
D01*
G03X5382Y7328I936J1*
G01*
X7826Y7328D01*
G74*
D01*
G03X7256Y6466I366J861*
G01*
X7256Y4053D01*
G75*
D01*
G03X7951Y3149I936J0*
G01*
G74*
D01*
G03X8078Y2998I939J661*
G01*
X8840Y2236D01*
G75*
D01*
G03X9653Y1899I813J811*
G01*
X11618Y1899D01*
G75*
D01*
G03X12573Y1328I955J513*
G01*
X13843Y1328D01*
G74*
D01*
G03X14672Y1713I0J1085*
G01*
G74*
D01*
G03X15140Y1445I1075J1335*
G01*
X15140Y2440D01*
X14928Y2440D01*
X14928Y3656D01*
X15140Y3656D01*
X15140Y4651D01*
G74*
D01*
G03X14672Y4383I607J1603*
G01*
G74*
D01*
G03X13843Y4768I829J700*
G01*
X12573Y4768D01*
G75*
D01*
G03X11618Y4197I1J-1085*
G01*
X10524Y4197D01*
X10524Y6466D01*
G74*
D01*
G03X9588Y7402I936J0*
G01*
X8458Y7402D01*
X6604Y8998D01*
X4750Y7402D01*
X3620Y7402D01*
G75*
D01*
G03X2684Y6466I0J-936*
G01*
X2684Y4053D01*
G75*
D01*
G03X3169Y3233I936J0*
G01*
X3169Y-1776D01*
G75*
D01*
G03X3506Y-2590I1149J-1*
G01*
X8204Y-7288D01*
G75*
D01*
G03X9017Y-7625I813J811*
G01*
X17555Y-7625D01*
G75*
D01*
G03X17555Y-5327I1494J1149*
G01*
X9492Y-5327D01*
X5467Y-1302D01*
X5467Y3233D01*
X15349Y3362D02*
G75*
D01*
G03X15349Y3362I399J-314*
G01*
X44351Y15892D02*
G75*
D01*
G03X44351Y17806I1791J957*
G01*
X41416Y17806D01*
G75*
D01*
G03X41416Y15892I-1791J-957*
G01*
X44351Y15892D01*
X45862Y20767D02*
G75*
D01*
G03X45862Y20767I281J569*
G01*
X57404Y54864D02*
G75*
D01*
G03X57404Y54864I508J0*
G01*
X70825Y41016D02*
X70825Y39837D01*
X72004Y39837D01*
G74*
D01*
G03X70825Y41016I1900J721*
G01*
X72004Y38395D02*
X70825Y38395D01*
X70825Y37216D01*
G74*
D01*
G03X72004Y38395I721J1900*
G01*
X77724Y46228D02*
G75*
D01*
G03X77724Y46228I508J0*
G01*
X78842Y44508D02*
G74*
D01*
G03X79952Y45618I28J1138*
G01*
X78842Y45618D01*
X78842Y44508D01*
X77344Y41016D02*
X77344Y39837D01*
X78523Y39837D01*
G74*
D01*
G03X77344Y41016I1900J721*
G01*
X75988Y39116D02*
G75*
D01*
G03X75988Y39116I635J0*
G01*
X78523Y38395D02*
X77344Y38395D01*
X77344Y37216D01*
G74*
D01*
G03X78523Y38395I721J1900*
G01*
X72741Y20996D02*
G75*
D01*
G03X72860Y21452I-816J456*
G01*
X72860Y21474D01*
G74*
D01*
G03X72741Y21930I936J1*
G01*
X72029Y21463D01*
X72741Y20996D01*
X38903Y37216D02*
X38903Y38395D01*
X37724Y38395D01*
G74*
D01*
G03X38903Y37216I1900J721*
G01*
X41524Y38395D02*
X40345Y38395D01*
X40345Y37216D01*
G74*
D01*
G03X41524Y38395I721J1900*
G01*
X45423Y37216D02*
X45423Y38395D01*
X44243Y38395D01*
G74*
D01*
G03X45423Y37216I1900J721*
G01*
X37724Y39837D02*
X38903Y39837D01*
X38903Y41016D01*
G74*
D01*
G03X37724Y39837I721J1900*
G01*
X38989Y39116D02*
G75*
D01*
G03X38989Y39116I635J0*
G01*
X40345Y41016D02*
X40345Y39837D01*
X41524Y39837D01*
G74*
D01*
G03X40345Y41016I1900J721*
G01*
X44243Y39837D02*
X45423Y39837D01*
X45423Y41016D01*
G74*
D01*
G03X44243Y39837I719J1900*
G01*
X13262Y29737D02*
G74*
D01*
G03X12996Y29775I264J897*
G01*
X11980Y29775D01*
G75*
D01*
G03X11715Y29737I-1J-935*
G01*
X12488Y29230D01*
X13262Y29737D01*
X5248Y44718D02*
X4958Y44718D01*
X4958Y43690D01*
X5886Y43690D01*
X5886Y44080D01*
G74*
D01*
G03X5248Y44718I638J0*
G01*
X5248Y41642D02*
G75*
D01*
G03X5886Y42280I0J638*
G01*
X5886Y42670D01*
X4958Y42670D01*
X4958Y41642D01*
X5248Y41642D01*
X16384Y41016D02*
X16384Y39837D01*
X17563Y39837D01*
G74*
D01*
G03X16384Y41016I1900J721*
G01*
X15028Y39116D02*
G75*
D01*
G03X15028Y39116I635J0*
G01*
X13763Y39837D02*
X14943Y39837D01*
X14943Y41016D01*
G74*
D01*
G03X13763Y39837I719J1900*
G01*
X8509Y39116D02*
G75*
D01*
G03X8509Y39116I635J0*
G01*
X9865Y41016D02*
X9865Y39837D01*
X11044Y39837D01*
G74*
D01*
G03X9865Y41016I1900J721*
G01*
X7244Y39837D02*
X8423Y39837D01*
X8423Y41016D01*
G74*
D01*
G03X7244Y39837I721J1900*
G01*
X17563Y38395D02*
X16384Y38395D01*
X16384Y37216D01*
G74*
D01*
G03X17563Y38395I721J1900*
G01*
X14943Y37216D02*
X14943Y38395D01*
X13763Y38395D01*
G74*
D01*
G03X14943Y37216I1900J721*
G01*
X11044Y38395D02*
X9865Y38395D01*
X9865Y37216D01*
G74*
D01*
G03X11044Y38395I721J1900*
G01*
X8423Y37216D02*
X8423Y38395D01*
X7244Y38395D01*
G74*
D01*
G03X8423Y37216I1900J721*
G01*
X13871Y35586D02*
X10936Y35586D01*
G75*
D01*
G03X10936Y33672I-1791J-957*
G01*
X13871Y33672D01*
G75*
D01*
G03X13871Y35586I1791J957*
G01*
X5020Y24665D02*
G74*
D01*
G03X4382Y25303I638J0*
G01*
X3702Y25303D01*
X3702Y24112D01*
X5020Y24112D01*
X5020Y24665D01*
X4382Y21613D02*
G75*
D01*
G03X5020Y22252I-1J639*
G01*
X5020Y22804D01*
X3702Y22804D01*
X3702Y21613D01*
X4382Y21613D01*
X13884Y19798D02*
G75*
D01*
G03X14522Y20436I0J638*
G01*
X14522Y20826D01*
X13594Y20826D01*
X13594Y19798D01*
X13884Y19798D01*
X5034Y10414D02*
G75*
D01*
G03X5034Y10414I300J0*
G01*
X4884Y9227D02*
X4884Y9964D01*
X4313Y9964D01*
X4898Y10467D01*
X4436Y10864D01*
X4884Y10864D01*
X4884Y11601D01*
G74*
D01*
G03X4230Y11042I449J1187*
G01*
X2957Y12137D01*
X2957Y8797D01*
X4192Y9859D01*
G74*
D01*
G03X4884Y9227I1141J555*
G01*
X8544Y13606D02*
X4663Y13606D01*
X6604Y11936D01*
X8544Y13606D01*
X10251Y8797D02*
X10251Y12137D01*
X8310Y10467D01*
X10251Y8797D01*
X5784Y11601D02*
X5784Y10864D01*
X6521Y10864D01*
G74*
D01*
G03X5784Y11601I1187J450*
G01*
X6521Y9964D02*
X5784Y9964D01*
X5784Y9227D01*
G74*
D01*
G03X6521Y9964I450J1187*
G01*
X16356Y4651D02*
X16356Y3656D01*
X17351Y3656D01*
G74*
D01*
G03X16356Y4651I1603J608*
G01*
X16466Y74284D02*
G75*
D01*
G03X17104Y73646I638J0*
G01*
X17394Y73646D01*
X17394Y74674D01*
X16466Y74674D01*
X16466Y74284D01*
X3896Y72150D02*
G75*
D01*
G03X3258Y71512I0J-638*
G01*
X3258Y71122D01*
X4186Y71122D01*
X4186Y72150D01*
X3896Y72150D01*
X3258Y69712D02*
G75*
D01*
G03X3896Y69074I638J0*
G01*
X4186Y69074D01*
X4186Y70102D01*
X3258Y70102D01*
X3258Y69712D01*
X4180Y66338D02*
G75*
D01*
G03X3542Y65700I0J-638*
G01*
X3542Y65410D01*
X4570Y65410D01*
X4570Y66338D01*
X4180Y66338D01*
X17165Y-15876D02*
G75*
D01*
G03X17165Y-15876I1885J0*
G01*
X17351Y2440D02*
X16356Y2440D01*
X16356Y1445D01*
G74*
D01*
G03X17351Y2440I608J1603*
G01*
X6007Y88610D02*
X5116Y88610D01*
X5116Y87719D01*
G74*
D01*
G03X6007Y88610I543J1434*
G01*
X10800Y93588D02*
X10800Y94620D01*
X9768Y94620D01*
G74*
D01*
G03X10800Y93588I1662J630*
G01*
X17104Y76722D02*
G75*
D01*
G03X16466Y76084I0J-638*
G01*
X16466Y75694D01*
X17394Y75694D01*
X17394Y76722D01*
X17104Y76722D01*
X4028Y87719D02*
X4028Y88610D01*
X3137Y88610D01*
G74*
D01*
G03X4028Y87719I1434J543*
G01*
X3137Y89698D02*
X4028Y89698D01*
X4028Y90589D01*
G74*
D01*
G03X3137Y89698I543J1434*
G01*
X5116Y90589D02*
X5116Y89698D01*
X6007Y89698D01*
G74*
D01*
G03X5116Y90589I1434J543*
G01*
X4197Y89154D02*
G75*
D01*
G03X4197Y89154I375J0*
G01*
X9768Y95880D02*
X10800Y95880D01*
X10800Y96912D01*
G74*
D01*
G03X9768Y95880I630J1662*
G01*
X10859Y95250D02*
G75*
D01*
G03X10859Y95250I571J0*
G01*
X48043Y20615D02*
X46864Y20615D01*
X46864Y19436D01*
G74*
D01*
G03X48043Y20615I721J1900*
G01*
X46864Y23236D02*
X46864Y22057D01*
X48043Y22057D01*
G74*
D01*
G03X46864Y23236I1900J721*
G01*
X48043Y38395D02*
X46864Y38395D01*
X46864Y37216D01*
G74*
D01*
G03X48043Y38395I721J1900*
G01*
X69383Y37216D02*
X69383Y38395D01*
X68204Y38395D01*
G74*
D01*
G03X69383Y37216I1900J721*
G01*
X46864Y41016D02*
X46864Y39837D01*
X48043Y39837D01*
G74*
D01*
G03X46864Y41016I1900J721*
G01*
X68204Y39837D02*
X69383Y39837D01*
X69383Y41016D01*
G74*
D01*
G03X68204Y39837I721J1900*
G01*
X65024Y46228D02*
G75*
D01*
G03X65024Y46228I508J0*
G01*
X23457Y20102D02*
X24348Y20102D01*
X24348Y20993D01*
G74*
D01*
G03X23457Y20102I543J1434*
G01*
X24348Y18123D02*
X24348Y19014D01*
X23457Y19014D01*
G74*
D01*
G03X24348Y18123I1434J543*
G01*
X26327Y19014D02*
X25436Y19014D01*
X25436Y18123D01*
G74*
D01*
G03X26327Y19014I543J1434*
G01*
X24517Y19558D02*
G75*
D01*
G03X24517Y19558I375J0*
G01*
X38903Y19436D02*
X38903Y20615D01*
X37724Y20615D01*
G74*
D01*
G03X38903Y19436I1900J721*
G01*
X41524Y20615D02*
X40345Y20615D01*
X40345Y19436D01*
G74*
D01*
G03X41524Y20615I721J1900*
G01*
X45423Y19436D02*
X45423Y20615D01*
X44243Y20615D01*
G74*
D01*
G03X45423Y19436I1900J721*
G01*
X25436Y20993D02*
X25436Y20102D01*
X26327Y20102D01*
G74*
D01*
G03X25436Y20993I1434J543*
G01*
X38989Y21336D02*
G75*
D01*
G03X38989Y21336I635J0*
G01*
X37724Y22057D02*
X38903Y22057D01*
X38903Y23236D01*
G74*
D01*
G03X37724Y22057I721J1900*
G01*
X40345Y23236D02*
X40345Y22057D01*
X41524Y22057D01*
G74*
D01*
G03X40345Y23236I1900J721*
G01*
X44243Y22057D02*
X45423Y22057D01*
X45423Y23236D01*
G74*
D01*
G03X44243Y22057I719J1900*
G01*
X22056Y70908D02*
X21862Y70713D01*
X21862Y70713D01*
X21785Y70637D01*
X21785Y73711D01*
G74*
D01*
G03X22141Y74256I281J573*
G01*
G75*
D01*
G03X21959Y76531I465J1182*
G01*
G74*
D01*
G03X21504Y76722I455J446*
G01*
X19904Y76722D01*
G75*
D01*
G03X19304Y76301I0J-638*
G01*
G74*
D01*
G03X18704Y76722I600J217*
G01*
X18414Y76722D01*
X18414Y75694D01*
X19266Y75694D01*
X19266Y74674D01*
X18414Y74674D01*
X18414Y73646D01*
X18704Y73646D01*
G74*
D01*
G03X19304Y74067I0J638*
G01*
G74*
D01*
G03X19871Y73647I600J217*
G01*
X19871Y70153D01*
G74*
D01*
G03X19858Y70153I6J638*
G01*
X19258Y70153D01*
G75*
D01*
G03X18923Y70058I0J-638*
G01*
G74*
D01*
G03X18621Y70152I335J543*
G01*
X18621Y69545D01*
G74*
D01*
G03X18620Y69515I636J36*
G01*
X18620Y68930D01*
G74*
D01*
G03X18601Y68740I938J190*
G01*
X18601Y67960D01*
X18146Y67505D01*
X17955Y67505D01*
X17955Y67935D01*
G75*
D01*
G03X17956Y67965I-636J36*
G01*
X17956Y68337D01*
G75*
D01*
G03X18039Y68740I-937J403*
G01*
X18039Y70358D01*
G74*
D01*
G03X17739Y71081I1021J0*
G01*
X17233Y71587D01*
G74*
D01*
G03X16510Y71887I723J721*
G01*
X13971Y71887D01*
G75*
D01*
G03X13248Y71588I-1J-1021*
G01*
X12486Y70826D01*
G75*
D01*
G03X12187Y70103I722J-722*
G01*
X12187Y66550D01*
G75*
D01*
G03X12486Y65826I1021J-2*
G01*
X13457Y64855D01*
X13457Y63251D01*
X11685Y63251D01*
G75*
D01*
G03X10962Y62952I-1J-1021*
G01*
X10174Y62164D01*
X10174Y62900D01*
G74*
D01*
G03X9753Y63500I638J0*
G01*
G75*
D01*
G03X10174Y64100I-217J600*
G01*
X10174Y65700D01*
G74*
D01*
G03X9673Y66323I638J0*
G01*
G75*
D01*
G03X8237Y68262I-1034J735*
G01*
G75*
D01*
G03X8517Y68964I-740J702*
G01*
X8517Y69113D01*
G75*
D01*
G03X8934Y69712I-221J599*
G01*
X8934Y71512D01*
G74*
D01*
G03X8296Y72150I638J0*
G01*
X6696Y72150D01*
G75*
D01*
G03X6096Y71729I0J-638*
G01*
G74*
D01*
G03X5496Y72150I600J217*
G01*
X5206Y72150D01*
X5206Y71122D01*
X6058Y71122D01*
X6058Y70102D01*
X5206Y70102D01*
X5206Y69074D01*
X5496Y69074D01*
G74*
D01*
G03X6096Y69495I0J638*
G01*
G74*
D01*
G03X6300Y69212I600J217*
G01*
X6009Y68921D01*
G75*
D01*
G03X5710Y68198I722J-722*
G01*
X5710Y66338D01*
X5590Y66338D01*
X5590Y65410D01*
X5710Y65410D01*
X5710Y64390D01*
X5590Y64390D01*
X5590Y63538D01*
X4570Y63538D01*
X4570Y64390D01*
X3542Y64390D01*
X3542Y64100D01*
G75*
D01*
G03X3963Y63500I638J0*
G01*
G74*
D01*
G03X3542Y62900I217J600*
G01*
X3542Y61300D01*
G75*
D01*
G03X4123Y60664I638J-1*
G01*
X4123Y59723D01*
G75*
D01*
G03X4375Y57404I955J-1069*
G01*
G74*
D01*
G03X4011Y57111I706J1249*
G01*
X3576Y57111D01*
G75*
D01*
G03X3295Y57069I-1J-957*
G01*
G74*
D01*
G03X2899Y56831I280J915*
G01*
X1863Y55795D01*
G75*
D01*
G03X1583Y55116I677J-676*
G01*
X1583Y51563D01*
X1583Y51561D01*
X1583Y51213D01*
X-50Y49580D01*
G75*
D01*
G03X-387Y48767I811J-813*
G01*
X-387Y13750D01*
G75*
D01*
G03X-387Y12666I1149J-542*
G01*
X-387Y-7618D01*
G75*
D01*
G03X-50Y-8432I1149J-1*
G01*
X3506Y-11988D01*
G74*
D01*
G03X3953Y-12265I812J811*
G01*
G75*
D01*
G03X4318Y-12325I366J1088*
G01*
X5078Y-12325D01*
G75*
D01*
G03X7622Y-12325I1272J-1390*
G01*
X17555Y-12325D01*
G75*
D01*
G03X17555Y-10027I1494J1149*
G01*
X7622Y-10027D01*
G75*
D01*
G03X5078Y-10027I-1272J1390*
G01*
X4794Y-10027D01*
X1911Y-7144D01*
X1911Y12666D01*
G75*
D01*
G03X1911Y13750I-1149J542*
G01*
X1911Y21613D01*
X2394Y21613D01*
X2394Y22804D01*
X1911Y22804D01*
X1911Y24112D01*
X2394Y24112D01*
X2394Y25303D01*
X1911Y25303D01*
X1911Y26945D01*
G75*
D01*
G03X2159Y26894I250J587*
G01*
X3937Y26894D01*
G74*
D01*
G03X4544Y27337I1J639*
G01*
X5255Y27337D01*
X5755Y26837D01*
G75*
D01*
G03X6478Y26538I722J722*
G01*
X7098Y26538D01*
X7098Y26508D01*
G75*
D01*
G03X7519Y25908I638J0*
G01*
G74*
D01*
G03X7098Y25308I217J600*
G01*
X7098Y23708D01*
G75*
D01*
G03X7736Y23070I638J0*
G01*
X9263Y23070D01*
X9263Y22835D01*
G74*
D01*
G03X8846Y22236I221J599*
G01*
X8846Y20436D01*
G75*
D01*
G03X9484Y19798I638J0*
G01*
X11084Y19798D01*
G74*
D01*
G03X11684Y20219I0J638*
G01*
G75*
D01*
G03X12284Y19798I600J217*
G01*
X12574Y19798D01*
X12574Y20826D01*
X11722Y20826D01*
X11722Y21846D01*
X12574Y21846D01*
X12574Y22874D01*
X12284Y22874D01*
G75*
D01*
G03X11684Y22453I0J-638*
G01*
G74*
D01*
G03X11305Y22835I600J216*
G01*
X11305Y24361D01*
G75*
D01*
G03X11980Y24073I675J647*
G01*
X12106Y24073D01*
G75*
D01*
G03X12488Y23998I384J945*
G01*
X13589Y23998D01*
G74*
D01*
G03X14219Y24216I1J1021*
G01*
X14219Y24123D01*
G75*
D01*
G03X14084Y22842I1020J-755*
G01*
G74*
D01*
G03X13884Y22874I200J606*
G01*
X13594Y22874D01*
X13594Y21846D01*
X14522Y21846D01*
X14522Y22236D01*
G74*
D01*
G03X14516Y22325I638J2*
G01*
G75*
D01*
G03X16261Y24123I727J1040*
G01*
X16261Y24469D01*
X16575Y24783D01*
G75*
D01*
G03X17484Y24073I908J226*
G01*
X17609Y24073D01*
G75*
D01*
G03X17992Y23998I384J945*
G01*
X18500Y23998D01*
X18791Y23707D01*
X18791Y20704D01*
G75*
D01*
G03X20833Y20704I1021J-1145*
G01*
X20833Y21878D01*
G75*
D01*
G03X23373Y23244I1518J222*
G01*
X23373Y25400D01*
G74*
D01*
G03X23073Y26123I1021J0*
G01*
X21862Y27334D01*
X21834Y27362D01*
X20916Y28280D01*
G74*
D01*
G03X20193Y28580I723J721*
G01*
X19405Y28580D01*
G75*
D01*
G03X19436Y28818I-904J239*
G01*
X19436Y28840D01*
G74*
D01*
G03X18500Y29775I936J1*
G01*
X18374Y29775D01*
G74*
D01*
G03X17992Y29850I384J945*
G01*
X15367Y29850D01*
G75*
D01*
G03X14645Y29551I0J-1021*
G01*
X13932Y28838D01*
X13932Y28840D01*
G74*
D01*
G03X13813Y29296I936J1*
G01*
X13101Y28829D01*
X13618Y28490D01*
G74*
D01*
G03X13536Y28334I858J551*
G01*
G74*
D01*
G03X12996Y28505I539J764*
G01*
X12871Y28505D01*
G74*
D01*
G03X12488Y28580I384J945*
G01*
X11496Y28580D01*
X11876Y28829D01*
X11163Y29296D01*
G74*
D01*
G03X11044Y28840I816J456*
G01*
X11044Y28818D01*
G75*
D01*
G03X11075Y28580I936J1*
G01*
X9965Y28580D01*
G74*
D01*
G03X9536Y28746I429J471*
G01*
X7736Y28746D01*
G75*
D01*
G03X7307Y28580I0J-638*
G01*
X6900Y28580D01*
X6401Y29079D01*
G74*
D01*
G03X5678Y29379I723J721*
G01*
X4544Y29379D01*
G74*
D01*
G03X3937Y29822I607J194*
G01*
X2159Y29822D01*
G75*
D01*
G03X1911Y29771I2J-638*
G01*
X1911Y41642D01*
X2448Y41642D01*
G74*
D01*
G03X3048Y42063I0J638*
G01*
G75*
D01*
G03X3648Y41642I600J217*
G01*
X3938Y41642D01*
X3938Y42670D01*
X3086Y42670D01*
X3086Y43690D01*
X3938Y43690D01*
X3938Y44718D01*
X3648Y44718D01*
G75*
D01*
G03X3048Y44297I0J-638*
G01*
G74*
D01*
G03X2448Y44718I600J217*
G01*
X1911Y44718D01*
X1911Y48292D01*
X3237Y49619D01*
X3525Y49619D01*
X3527Y49619D01*
X4345Y49619D01*
G74*
D01*
G03X4907Y49382I734J957*
G01*
G75*
D01*
G03X4907Y49170I172J-106*
G01*
G74*
D01*
G03X4246Y48848I173J1194*
G01*
X3952Y48848D01*
G74*
D01*
G03X4064Y48626I1127J429*
G01*
G75*
D01*
G03X4064Y47326I1016J-650*
G01*
G75*
D01*
G03X5815Y45719I1015J-652*
G01*
X51502Y45719D01*
G74*
D01*
G03X52180Y46000I1J957*
G01*
X55367Y49188D01*
X55367Y32259D01*
G75*
D01*
G03X55666Y31536I1021J-1*
G01*
X57672Y29530D01*
G75*
D01*
G03X59116Y30974I1255J189*
G01*
X57409Y32681D01*
X57409Y49107D01*
X58633Y50331D01*
G74*
D01*
G03X58855Y50663I721J723*
G01*
G75*
D01*
G03X59632Y51742I-360J1079*
G01*
X59632Y52906D01*
G74*
D01*
G03X59233Y53771I1138J0*
G01*
G74*
D01*
G03X59515Y54256I1321J1092*
G01*
X58520Y54256D01*
X58520Y54044D01*
G74*
D01*
G03X58494Y54044I13J1138*
G01*
X57330Y54044D01*
G75*
D01*
G03X57304Y54044I-13J-1138*
G01*
X57304Y54256D01*
X56329Y54256D01*
X56329Y55472D01*
X57304Y55472D01*
X57304Y55801D01*
G75*
D01*
G03X58520Y55801I608J1603*
G01*
X58520Y55472D01*
X59515Y55472D01*
G74*
D01*
G03X59064Y56134I1603J607*
G01*
G74*
D01*
G03X59082Y56151I1168J1255*
G01*
X59876Y55357D01*
X59876Y51362D01*
X59876Y51362D01*
X59876Y47843D01*
G75*
D01*
G03X61722Y45076I578J-1614*
G01*
G75*
D01*
G03X64262Y45076I1270J1151*
G01*
G74*
D01*
G03X64924Y44625I1269J1152*
G01*
X64924Y45620D01*
X64595Y45620D01*
G75*
D01*
G03X64595Y46836I-1603J608*
G01*
X64924Y46836D01*
X64924Y47831D01*
G74*
D01*
G03X64262Y47380I607J1603*
G01*
G74*
D01*
G03X63949Y47650I1268J1153*
G01*
X63949Y49530D01*
G74*
D01*
G03X63668Y50208I957J1*
G01*
X62933Y50942D01*
X62933Y57912D01*
G74*
D01*
G03X62652Y58590I957J1*
G01*
X60622Y60620D01*
G74*
D01*
G03X59944Y60901I677J676*
G01*
X59334Y60901D01*
G75*
D01*
G03X57583Y61627I-1422J-956*
G01*
X55923Y63287D01*
G74*
D01*
G03X55245Y63568I677J676*
G01*
X50534Y63568D01*
G75*
D01*
G03X50534Y63581I-638J7*
G01*
X50534Y64181D01*
G74*
D01*
G03X50439Y64516I638J0*
G01*
G75*
D01*
G03X50534Y64851I-543J335*
G01*
X50534Y65400D01*
X56600Y65400D01*
X63241Y58759D01*
X63241Y52833D01*
G75*
D01*
G03X63540Y52110I1021J-1*
G01*
X64288Y51362D01*
X66588Y49062D01*
G75*
D01*
G03X67311Y48763I722J722*
G01*
X78317Y48763D01*
X79200Y47881D01*
G74*
D01*
G03X78842Y47948I386J1071*
G01*
X78842Y46838D01*
X79952Y46838D01*
G74*
D01*
G03X79885Y47196I1138J28*
G01*
X80259Y46821D01*
X80259Y34459D01*
X76076Y30276D01*
G74*
D01*
G03X75793Y30480I500J395*
G01*
G75*
D01*
G03X76214Y31080I-217J600*
G01*
X76214Y32638D01*
G75*
D01*
G03X75125Y36001I409J1990*
G01*
X75125Y37743D01*
G74*
D01*
G03X75903Y37216I1498J1373*
G01*
X75903Y38395D01*
X75125Y38395D01*
X75125Y39837D01*
X75903Y39837D01*
X75903Y41016D01*
G74*
D01*
G03X75125Y40489I719J1899*
G01*
X75125Y41006D01*
X76368Y42248D01*
G75*
D01*
G03X76649Y42926I-676J677*
G01*
X76649Y44806D01*
G74*
D01*
G03X76785Y44907I953J1425*
G01*
G74*
D01*
G03X77622Y44508I865J738*
G01*
X77622Y45618D01*
X77294Y45618D01*
G75*
D01*
G03X77294Y46838I-1602J610*
G01*
X77622Y46838D01*
X77622Y47948D01*
G74*
D01*
G03X76785Y47549I29J1138*
G01*
G75*
D01*
G03X74422Y47380I-1093J-1320*
G01*
G75*
D01*
G03X71882Y47380I-1270J-1151*
G01*
G75*
D01*
G03X69342Y47380I-1270J-1151*
G01*
G75*
D01*
G03X66802Y47380I-1270J-1151*
G01*
G74*
D01*
G03X66140Y47831I1269J1152*
G01*
X66140Y46836D01*
X66469Y46836D01*
G75*
D01*
G03X66469Y45620I1603J-608*
G01*
X66140Y45620D01*
X66140Y44625D01*
G74*
D01*
G03X66802Y45076I607J1603*
G01*
G75*
D01*
G03X69342Y45076I1270J1151*
G01*
G75*
D01*
G03X71882Y45076I1270J1151*
G01*
G75*
D01*
G03X74422Y45076I1270J1151*
G01*
G74*
D01*
G03X74735Y44806I1268J1153*
G01*
X74735Y43322D01*
X73491Y42079D01*
G75*
D01*
G03X73211Y41400I677J-676*
G01*
X73211Y33529D01*
G75*
D01*
G03X73306Y33112I957J-1*
G01*
G74*
D01*
G03X73155Y32829I469J432*
G01*
G74*
D01*
G03X72605Y32557I127J949*
G01*
X71459Y31411D01*
G75*
D01*
G03X71179Y30733I677J-676*
G01*
X71179Y29190D01*
G75*
D01*
G03X68015Y26772I-1077J-1870*
G01*
G75*
D01*
G03X67813Y26160I819J-610*
G01*
X67813Y24639D01*
G75*
D01*
G03X68112Y23916I1021J-1*
G01*
X68660Y23368D01*
X68112Y22820D01*
G75*
D01*
G03X67813Y22096I722J-722*
G01*
X67813Y20689D01*
G75*
D01*
G03X68039Y20048I1021J0*
G01*
G75*
D01*
G03X71962Y20517I2065J-628*
G01*
G74*
D01*
G03X72190Y20555I39J934*
G01*
X71691Y20881D01*
G74*
D01*
G03X70801Y21461I1587J1462*
G01*
X70804Y21463D01*
X70424Y21712D01*
X71416Y21712D01*
G74*
D01*
G03X71799Y21787I1J1021*
G01*
X71924Y21787D01*
G75*
D01*
G03X72860Y22722I1J935*
G01*
X72860Y22744D01*
G74*
D01*
G03X72621Y23368I936J1*
G01*
G75*
D01*
G03X72860Y23992I-696J624*
G01*
X72860Y24014D01*
G74*
D01*
G03X72795Y24357I936J0*
G01*
G74*
D01*
G03X73195Y24597I278J916*
G01*
X73719Y25121D01*
X73719Y24639D01*
G75*
D01*
G03X73999Y23961I957J-2*
G01*
X74634Y23326D01*
G74*
D01*
G03X74676Y23287I672J681*
G01*
X73954Y22566D01*
G75*
D01*
G03X73655Y21843I722J-722*
G01*
X73655Y17527D01*
G75*
D01*
G03X73954Y16804I1021J-1*
G01*
X77256Y13502D01*
G75*
D01*
G03X77979Y13203I722J722*
G01*
X84582Y13203D01*
G74*
D01*
G03X85305Y13503I0J1021*
G01*
X87843Y16041D01*
G74*
D01*
G03X87862Y16061I731J713*
G01*
X87862Y-19362D01*
X44528Y-19362D01*
G75*
D01*
G03X42848Y-19362I-840J2598*
G01*
X-862Y-19362D01*
X-862Y99362D01*
X21718Y99362D01*
X21718Y99362D01*
X19357Y97001D01*
G75*
D01*
G03X17780Y96494I-307J-1750*
G01*
G75*
D01*
G03X15240Y96494I-1270J-1243*
G01*
G75*
D01*
G03X12700Y96494I-1270J-1243*
G01*
G74*
D01*
G03X12060Y96912I1269J1244*
G01*
X12060Y95880D01*
X12308Y95880D01*
G75*
D01*
G03X12308Y94620I1662J-630*
G01*
X12060Y94620D01*
X12060Y93588D01*
G74*
D01*
G03X12700Y94006I629J1662*
G01*
G74*
D01*
G03X12891Y93837I1270J1243*
G01*
X9741Y90686D01*
G75*
D01*
G03X9432Y87635I-109J-1530*
G01*
X8258Y87635D01*
G75*
D01*
G03X8258Y85593I-1145J-1021*
G01*
X12954Y85593D01*
G74*
D01*
G03X13677Y85893I0J1021*
G01*
X17231Y89447D01*
G75*
D01*
G03X17531Y90170I-721J723*
G01*
X17531Y93794D01*
G74*
D01*
G03X17780Y94006I1023J1454*
G01*
G75*
D01*
G03X20320Y94006I1270J1243*
G01*
G74*
D01*
G03X20960Y93588I1269J1244*
G01*
X20960Y94620D01*
X20712Y94620D01*
G75*
D01*
G03X20801Y95557I-1661J631*
G01*
X21862Y96618D01*
X21862Y96618D01*
X23029Y97785D01*
X25221Y97785D01*
X24437Y97001D01*
G75*
D01*
G03X22860Y96494I-307J-1750*
G01*
G74*
D01*
G03X22220Y96912I1269J1244*
G01*
X22220Y95880D01*
X22468Y95880D01*
G75*
D01*
G03X22468Y94620I1662J-630*
G01*
X22220Y94620D01*
X22220Y93588D01*
G74*
D01*
G03X22860Y94006I629J1662*
G01*
G75*
D01*
G03X25881Y95557I1271J1242*
G01*
X26585Y96261D01*
X35367Y96261D01*
G75*
D01*
G03X35809Y93794I1463J-1011*
G01*
X35809Y81957D01*
X34076Y80224D01*
G75*
D01*
G03X33777Y79501I722J-722*
G01*
X33777Y73408D01*
G75*
D01*
G03X34076Y72684I1021J-2*
G01*
X35572Y71188D01*
X27687Y71188D01*
X27685Y71188D01*
X26163Y71188D01*
X26161Y71188D01*
X22734Y71188D01*
G75*
D01*
G03X22056Y70908I-2J-957*
G01*
X76662Y18542D02*
G75*
D01*
G03X76662Y18542I300J0*
G01*
X77412Y17355D02*
G74*
D01*
G03X77952Y17746I448J1187*
G01*
G75*
D01*
G03X78572Y17258I619J149*
G01*
X78862Y17258D01*
X78862Y18286D01*
X77934Y18286D01*
X77934Y18092D01*
X77412Y18092D01*
X77412Y17355D01*
X76512Y17355D02*
X76512Y18092D01*
X75775Y18092D01*
G74*
D01*
G03X76512Y17355I1187J450*
G01*
X77977Y19306D02*
X78862Y19306D01*
X78862Y20334D01*
X78572Y20334D01*
G75*
D01*
G03X77934Y19696I0J-638*
G01*
X77934Y19359D01*
G74*
D01*
G03X77412Y19729I971J817*
G01*
X77412Y18992D01*
X78149Y18992D01*
G74*
D01*
G03X77977Y19306I1188J447*
G01*
X75775Y18992D02*
X76512Y18992D01*
X76512Y19729D01*
G74*
D01*
G03X75775Y18992I450J1187*
G01*
X80172Y17258D02*
G74*
D01*
G03X80772Y17679I0J638*
G01*
G75*
D01*
G03X81372Y17258I600J217*
G01*
X82972Y17258D01*
G74*
D01*
G03X83605Y17818I0J638*
G01*
G74*
D01*
G03X84035Y18075I292J977*
G01*
X85049Y19089D01*
G75*
D01*
G03X85349Y19812I-721J723*
G01*
X85349Y21570D01*
X85828Y21570D01*
G74*
D01*
G03X86101Y21631I1J638*
G01*
X86101Y17187D01*
X84159Y15245D01*
X78401Y15245D01*
X75697Y17949D01*
X75697Y20848D01*
G75*
D01*
G03X76412Y20517I714J604*
G01*
X77428Y20517D01*
G75*
D01*
G03X78364Y21452I1J935*
G01*
X78364Y21474D01*
G74*
D01*
G03X78301Y21809I936J3*
G01*
G75*
D01*
G03X82190Y22595I1709J1559*
G01*
X82190Y22208D01*
G75*
D01*
G03X82828Y21570I638J0*
G01*
X83307Y21570D01*
X83307Y20239D01*
G74*
D01*
G03X82972Y20334I335J543*
G01*
X81372Y20334D01*
G75*
D01*
G03X80772Y19913I0J-638*
G01*
G74*
D01*
G03X80172Y20334I600J217*
G01*
X79882Y20334D01*
X79882Y19306D01*
X80734Y19306D01*
X80734Y18286D01*
X79882Y18286D01*
X79882Y17258D01*
X80172Y17258D01*
X19371Y25936D02*
G75*
D01*
G03X19436Y26278I-870J343*
G01*
X19436Y26300D01*
G74*
D01*
G03X19405Y26538I936J1*
G01*
X19770Y26538D01*
X21331Y24977D01*
X21331Y23244D01*
G74*
D01*
G03X20833Y22318I1020J1146*
G01*
X20833Y24130D01*
G74*
D01*
G03X20533Y24853I1021J0*
G01*
X19646Y25740D01*
G74*
D01*
G03X19371Y25936I722J722*
G01*
X69855Y21563D02*
G74*
D01*
G02X69978Y21573I236J2146*
G01*
G74*
D01*
G02X70003Y21712I930J96*
G01*
X69892Y21712D01*
X69862Y21682D01*
X69855Y21675D01*
X69855Y21563D01*
X76840Y74777D02*
G75*
D01*
G02X77078Y74808I239J-904*
G01*
X77100Y74808D01*
G74*
D01*
G02X77556Y74689I1J936*
G01*
X77089Y73976D01*
X76840Y74356D01*
X76840Y73364D01*
G75*
D01*
G02X76765Y72981I-1021J1*
G01*
X76765Y72856D01*
G75*
D01*
G02X75830Y71920I-935J-1*
G01*
X75808Y71920D01*
G75*
D01*
G02X75184Y72159I1J936*
G01*
G74*
D01*
G02X74560Y71920I624J696*
G01*
X74538Y71920D01*
G75*
D01*
G02X74024Y72073I-1J936*
G01*
G74*
D01*
G02X74000Y72048I748J694*
G01*
X73367Y71415D01*
G74*
D01*
G02X72766Y71122I723J721*
G01*
G75*
D01*
G02X72643Y71115I-119J1014*
G01*
X70428Y71115D01*
G75*
D01*
G02X70369Y71117I5J1021*
G01*
G74*
D01*
G02X69706Y71414I58J1018*
G01*
X68932Y72188D01*
X68038Y72188D01*
G75*
D01*
G02X67774Y72245I0J638*
G01*
X67745Y72217D01*
G74*
D01*
G02X66967Y71880I813J810*
G01*
G74*
D01*
G02X66649Y71628I535J348*
G01*
G74*
D01*
G02X67070Y71028I217J600*
G01*
X67070Y70738D01*
X66042Y70738D01*
X66042Y71590D01*
X65022Y71590D01*
X65022Y70738D01*
X63994Y70738D01*
X63994Y71028D01*
G74*
D01*
G02X64415Y71628I638J0*
G01*
G75*
D01*
G02X63994Y72228I217J600*
G01*
X63994Y73828D01*
G75*
D01*
G02X64632Y74466I638J0*
G01*
X66432Y74466D01*
G74*
D01*
G02X66725Y74395I1J638*
G01*
G75*
D01*
G02X67311Y74555I585J-989*
G01*
X67565Y74555D01*
G74*
D01*
G02X67715Y74676I471J430*
G01*
G74*
D01*
G02X67640Y74727I320J551*
G01*
X67381Y74727D01*
G75*
D01*
G02X66705Y74947I0J1149*
G01*
G74*
D01*
G02X66432Y74886I272J577*
G01*
X64632Y74886D01*
G75*
D01*
G02X63994Y75524I0J638*
G01*
X63994Y77124D01*
G74*
D01*
G02X64415Y77724I638J0*
G01*
G75*
D01*
G02X63994Y78324I217J600*
G01*
X63994Y78614D01*
X65022Y78614D01*
X65022Y77762D01*
X66042Y77762D01*
X66042Y78614D01*
X67070Y78614D01*
X67070Y78324D01*
G75*
D01*
G02X66649Y77724I-638J0*
G01*
G74*
D01*
G02X66967Y77472I217J600*
G01*
G74*
D01*
G02X67745Y77135I35J1147*
G01*
X67774Y77107D01*
G75*
D01*
G02X68038Y77164I264J-581*
G01*
X70138Y77164D01*
G74*
D01*
G02X70657Y76897I0J638*
G01*
X72804Y76897D01*
X72804Y81268D01*
G75*
D01*
G02X73442Y81906I638J0*
G01*
X77942Y81906D01*
G74*
D01*
G02X78580Y81268I0J638*
G01*
X78580Y76768D01*
G75*
D01*
G02X77942Y76130I-638J0*
G01*
X76840Y76130D01*
X76840Y74777D01*
X66432Y68790D02*
X66042Y68790D01*
X66042Y69718D01*
X67070Y69718D01*
X67070Y69428D01*
G75*
D01*
G02X66432Y68790I-638J0*
G01*
X63994Y69428D02*
X63994Y69718D01*
X65022Y69718D01*
X65022Y68790D01*
X64632Y68790D01*
G75*
D01*
G02X63994Y69428I0J638*
G01*
X61385Y75242D02*
G74*
D01*
G02X60648Y74505I1187J450*
G01*
X60648Y75242D01*
X61385Y75242D01*
X59748Y74505D02*
G74*
D01*
G02X59011Y75242I450J1187*
G01*
X59748Y75242D01*
X59748Y74505D01*
X67070Y79924D02*
X67070Y79634D01*
X66042Y79634D01*
X66042Y80562D01*
X66432Y80562D01*
G74*
D01*
G02X67070Y79924I0J638*
G01*
X64632Y80562D02*
X65022Y80562D01*
X65022Y79634D01*
X63994Y79634D01*
X63994Y79924D01*
G75*
D01*
G02X64632Y80562I638J0*
G01*
X60648Y76879D02*
G74*
D01*
G02X61385Y76142I450J1187*
G01*
X60648Y76142D01*
X60648Y76879D01*
X59011Y76142D02*
G74*
D01*
G02X59748Y76879I1187J450*
G01*
X59748Y76142D01*
X59011Y76142D01*
X59898Y75692D02*
G75*
D01*
G02X59898Y75692I300J0*
G01*
X72804Y84618D02*
X72804Y85844D01*
X74668Y85844D01*
X74668Y83980D01*
X73442Y83980D01*
G75*
D01*
G02X72804Y84618I0J638*
G01*
X77942Y83980D02*
X76716Y83980D01*
X76716Y85844D01*
X78580Y85844D01*
X78580Y84618D01*
G75*
D01*
G02X77942Y83980I-638J0*
G01*
X72804Y89118D02*
G75*
D01*
G02X73442Y89756I638J0*
G01*
X74668Y89756D01*
X74668Y87892D01*
X72804Y87892D01*
X72804Y89118D01*
X78580Y89118D02*
X78580Y87892D01*
X76716Y87892D01*
X76716Y89756D01*
X77942Y89756D01*
G74*
D01*
G02X78580Y89118I0J638*
G01*
X72804Y96968D02*
G75*
D01*
G02X73442Y97606I638J0*
G01*
X77942Y97606D01*
G74*
D01*
G02X78580Y96968I0J638*
G01*
X78580Y92468D01*
G75*
D01*
G02X77942Y91830I-638J0*
G01*
X73442Y91830D01*
G75*
D01*
G02X72804Y92468I0J638*
G01*
X72804Y96968D01*
X77997Y72590D02*
X77490Y73364D01*
X77997Y74137D01*
G74*
D01*
G02X78035Y73872I897J264*
G01*
X78035Y72856D01*
G75*
D01*
G02X77997Y72590I-935J-2*
G01*
X76622Y72039D02*
X77089Y72751D01*
X77556Y72039D01*
G74*
D01*
G02X77100Y71920I456J816*
G01*
X77078Y71920D01*
G75*
D01*
G02X76622Y72039I1J936*
G01*
X87862Y27627D02*
X87862Y99362D01*
X52958Y99362D01*
X52958Y99362D01*
X56855Y95465D01*
G74*
D01*
G02X57155Y94742I721J723*
G01*
X57155Y77470D01*
G75*
D01*
G02X56855Y76747I-1021J0*
G01*
X53900Y73792D01*
X58546Y73792D01*
G75*
D01*
G02X58813Y73757I2J-1021*
G01*
G74*
D01*
G02X59270Y73492I266J986*
G01*
X67523Y65239D01*
G74*
D01*
G02X67823Y64516I721J723*
G01*
X67823Y59948D01*
G75*
D01*
G02X69415Y59885I757J-1020*
G01*
X71332Y59885D01*
G74*
D01*
G02X71747Y60427I635J57*
G01*
X71747Y61493D01*
G75*
D01*
G02X71330Y62092I221J599*
G01*
X71330Y63892D01*
G74*
D01*
G02X71747Y64491I638J0*
G01*
X71747Y66162D01*
G75*
D01*
G02X72046Y66886I1021J2*
G01*
X72258Y67098D01*
X72258Y67860D01*
G74*
D01*
G02X72333Y68243I1021J1*
G01*
X72333Y68368D01*
G75*
D01*
G02X73268Y69304I935J1*
G01*
X73290Y69304D01*
G74*
D01*
G02X73914Y69065I1J936*
G01*
G75*
D01*
G02X74538Y69304I624J-696*
G01*
X74560Y69304D01*
G74*
D01*
G02X75184Y69065I1J936*
G01*
G75*
D01*
G02X75808Y69304I624J-696*
G01*
X75830Y69304D01*
G74*
D01*
G02X76454Y69065I1J936*
G01*
G75*
D01*
G02X77078Y69304I624J-696*
G01*
X77100Y69304D01*
G74*
D01*
G02X78035Y68368I1J936*
G01*
X78035Y68243D01*
G74*
D01*
G02X78110Y67860I945J384*
G01*
X78110Y66590D01*
X78953Y65747D01*
G74*
D01*
G02X79253Y65024I721J723*
G01*
X79253Y58413D01*
G75*
D01*
G02X78586Y56438I-1019J-756*
G01*
X77006Y54858D01*
X77006Y53964D01*
G75*
D01*
G02X76368Y53326I-638J0*
G01*
X74768Y53326D01*
G75*
D01*
G02X74168Y53747I0J638*
G01*
G74*
D01*
G02X73568Y53326I600J217*
G01*
X71968Y53326D01*
G75*
D01*
G02X71330Y53964I0J638*
G01*
X71330Y55764D01*
G74*
D01*
G02X71747Y56363I638J0*
G01*
X71747Y57429D01*
G74*
D01*
G02X71332Y57971I220J599*
G01*
X69415Y57971D01*
G75*
D01*
G02X67823Y57908I-835J957*
G01*
X67823Y54525D01*
X69257Y53091D01*
X80518Y53091D01*
G74*
D01*
G02X81241Y52791I0J1021*
G01*
X82670Y51362D01*
X85049Y48983D01*
G74*
D01*
G02X85349Y48260I721J723*
G01*
X85349Y30246D01*
X85828Y30246D01*
G74*
D01*
G02X86466Y29608I0J638*
G01*
X86466Y29010D01*
G74*
D01*
G02X86574Y28916I615J815*
G01*
X87843Y27647D01*
G74*
D01*
G02X87862Y27627I731J713*
G01*
X5815Y49619D02*
X6556Y49619D01*
X6590Y49585D01*
X6590Y48933D01*
X5815Y48933D01*
G74*
D01*
G03X5253Y49170I734J957*
G01*
G75*
D01*
G03X5253Y49382I-172J106*
G01*
G74*
D01*
G03X5815Y49619I172J1194*
G01*
X43375Y58420D02*
X43375Y62088D01*
X45481Y64194D01*
X46076Y64194D01*
X45862Y63979D01*
X45862Y63979D01*
X45297Y63415D01*
G75*
D01*
G03X45017Y62736I677J-676*
G01*
X45017Y57659D01*
G75*
D01*
G03X45297Y56981I957J-2*
G01*
X45862Y56417D01*
X46567Y55711D01*
G75*
D01*
G03X47245Y55431I676J677*
G01*
X49965Y55431D01*
G75*
D01*
G03X49965Y57345I835J957*
G01*
X47640Y57345D01*
X46931Y58054D01*
X46931Y62342D01*
X47058Y62468D01*
X47058Y62311D01*
G75*
D01*
G03X47153Y61976I638J0*
G01*
G74*
D01*
G03X47058Y61641I543J335*
G01*
X47058Y61041D01*
G75*
D01*
G03X47153Y60706I638J0*
G01*
G74*
D01*
G03X47058Y60371I543J335*
G01*
X47058Y59771D01*
G75*
D01*
G03X47153Y59436I638J0*
G01*
G74*
D01*
G03X47058Y59101I543J335*
G01*
X47058Y58501D01*
G75*
D01*
G03X47696Y57863I638J0*
G01*
X48606Y57863D01*
G75*
D01*
G03X48796Y57844I190J938*
G01*
X51801Y57844D01*
X52891Y56754D01*
X52891Y51958D01*
X52294Y51362D01*
X49866Y48933D01*
X9666Y48933D01*
X9666Y50200D01*
G74*
D01*
G03X9245Y50800I638J0*
G01*
G74*
D01*
G03X9334Y50840I216J600*
G01*
X10880Y49294D01*
G74*
D01*
G03X11344Y49038I676J677*
G01*
G75*
D01*
G03X11557Y49014I213J933*
G01*
X25333Y49014D01*
G74*
D01*
G03X26011Y49295I1J957*
G01*
X33033Y56318D01*
G75*
D01*
G03X35125Y55177I1257J-185*
G01*
X40132Y55177D01*
G74*
D01*
G03X40810Y55458I1J957*
G01*
X43094Y57742D01*
G75*
D01*
G03X43375Y58420I-676J677*
G01*
X19811Y54946D02*
X18968Y54103D01*
G75*
D01*
G03X17526Y53440I-173J-1524*
G01*
G74*
D01*
G03X16800Y54013I1269J862*
G01*
X16800Y53122D01*
X17361Y53122D01*
G75*
D01*
G03X17361Y52034I1434J-544*
G01*
X16800Y52034D01*
X16800Y51143D01*
G74*
D01*
G03X17526Y51716I543J1435*
G01*
G75*
D01*
G03X20321Y52750I1271J859*
G01*
X21164Y53593D01*
G75*
D01*
G03X19811Y54946I171J1524*
G01*
X15712Y51143D02*
X15712Y52034D01*
X14821Y52034D01*
G74*
D01*
G03X15712Y51143I1434J543*
G01*
X14821Y53122D02*
X15712Y53122D01*
X15712Y54013D01*
G74*
D01*
G03X14821Y53122I543J1434*
G01*
X15881Y52578D02*
G75*
D01*
G03X15881Y52578I375J0*
G01*
X24813Y51362D02*
G75*
D01*
G03X24833Y53778I-937J1216*
G01*
X24833Y59802D01*
X25017Y59985D01*
G75*
D01*
G03X26917Y58415I1143J-552*
G01*
X32424Y58415D01*
X25370Y51362D01*
X25370Y51362D01*
X24937Y50928D01*
X11953Y50928D01*
X11734Y51148D01*
G75*
D01*
G03X9666Y52854I-558J1430*
G01*
X9666Y53000D01*
G74*
D01*
G03X9028Y53638I638J0*
G01*
X7228Y53638D01*
G75*
D01*
G03X6590Y53000I0J-638*
G01*
X6590Y52833D01*
X5815Y52833D01*
G75*
D01*
G03X3923Y51533I-736J-955*
G01*
X3922Y51533D01*
X3841Y51615D01*
G74*
D01*
G03X3609Y51847I919J687*
G01*
X3497Y51958D01*
X3497Y54722D01*
X3972Y55197D01*
X4011Y55197D01*
G75*
D01*
G03X5785Y57404I1065J961*
G01*
G74*
D01*
G03X6004Y57556I705J1250*
G01*
X7396Y56164D01*
G74*
D01*
G03X7774Y55925I721J723*
G01*
G75*
D01*
G03X8118Y55865I345J960*
G01*
X12375Y55865D01*
G75*
D01*
G03X15057Y55865I1341J-747*
G01*
X16246Y55865D01*
G74*
D01*
G03X16969Y56165I0J1021*
G01*
X20279Y59475D01*
G75*
D01*
G03X20579Y60198I-721J723*
G01*
X20579Y61927D01*
X21128Y61927D01*
G74*
D01*
G03X21463Y62022I0J638*
G01*
G75*
D01*
G03X21798Y61927I335J543*
G01*
X22398Y61927D01*
G74*
D01*
G03X22987Y62319I0J638*
G01*
X23084Y62319D01*
G74*
D01*
G03X23807Y62619I0J1021*
G01*
X24390Y63202D01*
X25284Y63202D01*
G74*
D01*
G03X25625Y63301I0J638*
G01*
X23199Y60875D01*
G75*
D01*
G03X22919Y60197I677J-676*
G01*
X22919Y53778D01*
G75*
D01*
G03X24813Y51362I947J-1208*
G01*
X24813Y51362D01*
X56591Y53771D02*
G74*
D01*
G02X56329Y54205I1320J1093*
G01*
X56329Y53448D01*
G74*
D01*
G02X56591Y53771I1000J543*
G01*
X56329Y56745D02*
X56329Y55523D01*
G74*
D01*
G02X56760Y56134I1582J659*
G01*
G74*
D01*
G02X56329Y56745I1151J1270*
G01*
X32720Y67056D02*
G75*
D01*
G03X32720Y67056I300J0*
G01*
X31833Y67506D02*
X32570Y67506D01*
X32570Y68243D01*
G74*
D01*
G03X31833Y67506I450J1187*
G01*
X41998Y74590D02*
X43239Y75831D01*
X43239Y68835D01*
G75*
D01*
G03X43519Y68157I957J-2*
G01*
X44662Y67014D01*
G75*
D01*
G03X45340Y66734I676J677*
G01*
X47058Y66734D01*
G74*
D01*
G03X47058Y66721I638J6*
G01*
X47058Y66121D01*
G75*
D01*
G03X47058Y66108I638J-6*
G01*
X45086Y66108D01*
G75*
D01*
G03X44408Y65828I-2J-957*
G01*
X41741Y63161D01*
G75*
D01*
G03X41461Y62483I677J-676*
G01*
X41461Y58816D01*
X41334Y58690D01*
X41334Y59101D01*
G74*
D01*
G03X41239Y59436I638J0*
G01*
G75*
D01*
G03X41334Y59771I-543J335*
G01*
X41334Y60371D01*
G74*
D01*
G03X41239Y60706I638J0*
G01*
G75*
D01*
G03X41334Y61041I-543J335*
G01*
X41334Y61641D01*
G74*
D01*
G03X41239Y61976I638J0*
G01*
G75*
D01*
G03X41334Y62311I-543J335*
G01*
X41334Y62911D01*
G74*
D01*
G03X41239Y63246I638J0*
G01*
G75*
D01*
G03X41334Y63581I-543J335*
G01*
X41334Y64181D01*
G74*
D01*
G03X41239Y64516I638J0*
G01*
G75*
D01*
G03X41334Y64851I-543J335*
G01*
X41334Y65451D01*
G74*
D01*
G03X41239Y65786I638J0*
G01*
G75*
D01*
G03X41334Y66121I-543J335*
G01*
X41334Y66721D01*
G74*
D01*
G03X41239Y67056I638J0*
G01*
G74*
D01*
G03X41333Y67358I543J335*
G01*
X40726Y67358D01*
G74*
D01*
G03X40696Y67359I36J636*
G01*
X39786Y67359D01*
G74*
D01*
G03X39596Y67378I190J938*
G01*
X36775Y67378D01*
G75*
D01*
G03X34601Y66172I-963J-826*
G01*
X33932Y66172D01*
G74*
D01*
G03X34207Y66606I913J883*
G01*
X33470Y66606D01*
X33470Y66172D01*
X32570Y66172D01*
X32570Y66606D01*
X31833Y66606D01*
G74*
D01*
G03X32004Y66294I1187J448*
G01*
G75*
D01*
G03X31785Y64130I-762J-1016*
G01*
X32569Y64130D01*
G75*
D01*
G03X33013Y62743I1212J-377*
G01*
X30727Y62743D01*
G75*
D01*
G03X29860Y60457I-752J-1022*
G01*
X26917Y60457D01*
G75*
D01*
G03X25613Y60581I-755J-1020*
G01*
X27600Y62568D01*
G75*
D01*
G03X27881Y63246I-676J677*
G01*
X27881Y69073D01*
X28082Y69274D01*
X32845Y69274D01*
G75*
D01*
G03X33470Y67697I1190J-441*
G01*
X33470Y67506D01*
X34207Y67506D01*
G74*
D01*
G03X34180Y67572I1188J447*
G01*
G74*
D01*
G03X34997Y68004I144J1262*
G01*
X39596Y68004D01*
G74*
D01*
G03X39786Y68023I0J957*
G01*
X40696Y68023D01*
G74*
D01*
G03X40726Y68024I6J638*
G01*
X41333Y68024D01*
G74*
D01*
G03X41239Y68326I636J32*
G01*
G75*
D01*
G03X41334Y68661I-543J335*
G01*
X41334Y69261D01*
G74*
D01*
G03X41239Y69596I638J0*
G01*
G75*
D01*
G03X41334Y69931I-543J335*
G01*
X41334Y70531D01*
G74*
D01*
G03X41239Y70866I638J0*
G01*
G75*
D01*
G03X41334Y71201I-543J335*
G01*
X41334Y71801D01*
G74*
D01*
G03X41239Y72136I638J0*
G01*
G75*
D01*
G03X41334Y72471I-543J335*
G01*
X41334Y73071D01*
G74*
D01*
G03X41239Y73406I638J0*
G01*
G75*
D01*
G03X41334Y73741I-543J335*
G01*
X41334Y74292D01*
G74*
D01*
G03X41998Y74590I58J1018*
G01*
X30727Y60701D02*
G74*
D01*
G02X30084Y60457I755J1020*
G01*
X33105Y60457D01*
X33349Y60701D01*
X30727Y60701D01*
X52520Y82213D02*
X52520Y81476D01*
X53257Y81476D01*
G74*
D01*
G03X52520Y82213I1187J450*
G01*
X51770Y81026D02*
G75*
D01*
G03X51770Y81026I300J0*
G01*
X53257Y80576D02*
X52520Y80576D01*
X52520Y79839D01*
G74*
D01*
G03X53257Y80576I450J1187*
G01*
X45153Y70057D02*
X45153Y77836D01*
X45862Y78544D01*
X45862Y78544D01*
X46044Y78726D01*
G75*
D01*
G03X46060Y78726I8J638*
G01*
X47660Y78726D01*
G74*
D01*
G03X48260Y79147I0J638*
G01*
G75*
D01*
G03X48860Y78726I600J217*
G01*
X50460Y78726D01*
G75*
D01*
G03X51098Y79364I0J638*
G01*
X51098Y80209D01*
G74*
D01*
G03X51620Y79839I971J817*
G01*
X51620Y80576D01*
X51098Y80576D01*
X51098Y81164D01*
G74*
D01*
G03X51016Y81476I638J1*
G01*
X51620Y81476D01*
X51620Y82213D01*
G74*
D01*
G03X50933Y81592I449J1187*
G01*
G74*
D01*
G03X50617Y81782I472J428*
G01*
X50617Y84706D01*
G74*
D01*
G03X50336Y85384I957J1*
G01*
X48709Y87010D01*
X48709Y90282D01*
X48976Y90549D01*
X49650Y90549D01*
G74*
D01*
G03X49840Y90568I0J957*
G01*
X50150Y90568D01*
G75*
D01*
G03X50788Y91206I0J638*
G01*
X50788Y91499D01*
X51950Y91499D01*
G74*
D01*
G03X52140Y91518I0J957*
G01*
X52450Y91518D01*
G75*
D01*
G03X53088Y92156I0J638*
G01*
X53088Y92756D01*
G74*
D01*
G03X52450Y93394I638J0*
G01*
X52140Y93394D01*
G74*
D01*
G03X51950Y93413I190J938*
G01*
X49344Y93413D01*
X49265Y93492D01*
G75*
D01*
G03X50467Y93739I265J1757*
G01*
X50787Y93739D01*
G74*
D01*
G03X50741Y93948I636J30*
G01*
G75*
D01*
G03X51268Y95624I-1211J1302*
G01*
X53589Y93303D01*
X53589Y79163D01*
X50758Y76332D01*
X48796Y76332D01*
G75*
D01*
G03X48393Y76249I0J-1021*
G01*
X47696Y76249D01*
G75*
D01*
G03X47058Y75611I0J-638*
G01*
X47058Y75011D01*
G75*
D01*
G03X47153Y74676I638J0*
G01*
G74*
D01*
G03X47058Y74341I543J335*
G01*
X47058Y73741D01*
G75*
D01*
G03X47153Y73406I638J0*
G01*
G74*
D01*
G03X47058Y73071I543J335*
G01*
X47058Y72471D01*
G75*
D01*
G03X47153Y72136I638J0*
G01*
G74*
D01*
G03X47058Y71801I543J335*
G01*
X47058Y71201D01*
G75*
D01*
G03X47153Y70866I638J0*
G01*
G74*
D01*
G03X47059Y70564I543J335*
G01*
X47666Y70564D01*
G75*
D01*
G03X47696Y70563I36J636*
G01*
X48393Y70563D01*
G75*
D01*
G03X48796Y70480I403J937*
G01*
X57108Y70480D01*
X64511Y63077D01*
X64511Y60377D01*
X57746Y67142D01*
G74*
D01*
G03X57023Y67442I723J721*
G01*
X50534Y67442D01*
X50534Y67991D01*
G74*
D01*
G03X50439Y68326I638J0*
G01*
G75*
D01*
G03X50534Y68661I-543J335*
G01*
X50534Y69261D01*
G74*
D01*
G03X50439Y69596I638J0*
G01*
G74*
D01*
G03X50533Y69898I543J335*
G01*
X49926Y69898D01*
G74*
D01*
G03X49896Y69899I36J636*
G01*
X48986Y69899D01*
G74*
D01*
G03X48796Y69918I190J938*
G01*
X47212Y69918D01*
G74*
D01*
G03X46812Y70042I476J829*
G01*
G75*
D01*
G03X45153Y70057I-838J-953*
G01*
X25501Y66040D02*
G74*
D01*
G02X25922Y65440I217J600*
G01*
X25922Y63840D01*
G75*
D01*
G02X25823Y63499I-638J0*
G01*
X25967Y63642D01*
X25967Y69073D01*
X25766Y69274D01*
X23129Y69274D01*
X23055Y69200D01*
X23055Y68740D01*
G75*
D01*
G02X23055Y68712I-957J-14*
G01*
G75*
D01*
G02X23484Y68878I429J-471*
G01*
X25284Y68878D01*
G74*
D01*
G02X25922Y68240I0J638*
G01*
X25922Y66640D01*
G75*
D01*
G02X25501Y66040I-638J0*
G01*
X9872Y87635D02*
G75*
D01*
G03X11184Y89243I-219J1518*
G01*
X14691Y92749D01*
G75*
D01*
G03X14991Y93472I-721J723*
G01*
X14991Y93794D01*
G74*
D01*
G03X15240Y94006I1023J1454*
G01*
G74*
D01*
G03X15489Y93794I1272J1241*
G01*
X15489Y90593D01*
X12531Y87635D01*
X9872Y87635D01*
G54D12*
X79248Y83312D02*
X75692Y86868D01*
X72768Y66164D02*
X72768Y54864D01*
X78232Y57528D02*
X75568Y54864D01*
X78232Y65024D02*
X78232Y57528D01*
X77216Y60576D02*
X75568Y58928D01*
X77216Y64516D02*
X77216Y60576D01*
X74549Y65405D02*
X75568Y64386D01*
X75568Y62992D01*
X75819Y65913D02*
X77216Y64516D01*
X73279Y66675D02*
X72768Y66164D01*
X75819Y67860D02*
X75819Y65913D01*
X77089Y67860D02*
X77089Y66167D01*
X78232Y65024D01*
X73279Y67860D02*
X73279Y66675D01*
X65532Y70228D02*
X68704Y70228D01*
X72644Y72136D02*
X70428Y72136D01*
X69088Y73476D01*
X73279Y72771D02*
X72644Y72136D01*
X77089Y72009D02*
X77089Y74549D01*
X74549Y73364D02*
X74549Y74803D01*
X73279Y73364D02*
X73279Y72771D01*
X75819Y73364D02*
X75819Y78891D01*
X77089Y74549D02*
X79248Y76708D01*
X73476Y75876D02*
X69088Y75876D01*
X74549Y74803D02*
X73476Y75876D01*
X79248Y76708D02*
X79248Y83312D01*
X68834Y26162D02*
X68834Y24638D01*
X69469Y24003D01*
X68834Y22098D02*
X68834Y20688D01*
X70104Y19418D01*
X71416Y22733D02*
X69469Y22733D01*
X68834Y22098D01*
X69469Y24003D02*
X71416Y24003D01*
X69990Y27318D02*
X70104Y27318D01*
X69990Y27318D02*
X68834Y26162D01*
X39596Y75311D02*
X41275Y75311D01*
X39596Y74041D02*
X38227Y74041D01*
X37338Y74930D01*
X37338Y77470D01*
X39596Y72771D02*
X37465Y72771D01*
X39370Y82042D02*
X39370Y95250D01*
X36068Y74168D02*
X36068Y78740D01*
X37465Y72771D02*
X36068Y74168D01*
X36068Y78740D02*
X39370Y82042D01*
X39596Y71501D02*
X36703Y71501D01*
X34798Y73406D01*
X34798Y79502D01*
X36830Y81534D01*
X36830Y95250D01*
X24130Y95250D02*
X26162Y97282D01*
X48796Y75311D02*
X51181Y75311D01*
X26162Y97282D02*
X51054Y97282D01*
X19050Y95250D02*
X22606Y98806D01*
X52070Y98806D01*
X52705Y74041D02*
X48796Y74041D01*
X4572Y89154D02*
X4572Y92710D01*
X7112Y95250D01*
X11430Y95250D01*
X9652Y89154D02*
X13970Y93472D01*
X13970Y95250D01*
X7112Y86614D02*
X12954Y86614D01*
X16510Y90170D01*
X16510Y95250D01*
X39596Y63881D02*
X33909Y63881D01*
X34417Y62611D02*
X33528Y61722D01*
X29972Y61722D01*
X39596Y62611D02*
X34417Y62611D01*
X31369Y65151D02*
X39596Y65151D01*
X26162Y59436D02*
X33528Y59436D01*
X35433Y61341D01*
X39596Y61341D01*
X19558Y60198D02*
X19558Y63340D01*
X20828Y63340D02*
X23084Y63340D01*
X24384Y64640D01*
X15748Y64516D02*
X16256Y65024D01*
X21082Y65024D02*
X23368Y67310D01*
X24384Y67310D01*
X16256Y65024D02*
X21082Y65024D01*
X14986Y60452D02*
X15748Y61214D01*
X13592Y60452D02*
X14986Y60452D01*
X15748Y61214D02*
X15748Y64516D01*
X10792Y60452D02*
X10792Y61338D01*
X11684Y62230D01*
X13970Y62230D02*
X11684Y62230D01*
X6350Y58654D02*
X5080Y58654D01*
X17018Y63340D02*
X17018Y60198D01*
X8636Y62100D02*
X8636Y59436D01*
X8636Y62100D02*
X7242Y62100D01*
X6728Y62614D01*
X8118Y56886D02*
X16246Y56886D01*
X8118Y56886D02*
X6350Y58654D01*
X16246Y56886D02*
X19558Y60198D01*
X9779Y58293D02*
X15113Y58293D01*
X17018Y60198D01*
X8636Y59436D02*
X9779Y58293D01*
X8636Y67056D02*
X8636Y64900D01*
X6731Y68199D02*
X7496Y68964D01*
X7496Y70612D01*
X6731Y62611D02*
X6731Y68199D01*
X14224Y62484D02*
X13970Y62230D01*
X14478Y62738D02*
X14478Y65278D01*
X13208Y66548D01*
X13208Y70104D01*
X13970Y70866D01*
X16510Y70866D01*
X17018Y70358D01*
X17018Y68740D01*
X48796Y71501D02*
X57531Y71501D01*
X48796Y66421D02*
X57023Y66421D01*
X39596Y60071D02*
X36703Y60071D01*
X36068Y59436D01*
X79502Y26585D02*
X78190Y25273D01*
X76920Y25273D01*
X76920Y22733D02*
X75565Y22733D01*
X74676Y21844D01*
X74676Y17526D01*
X77978Y14224D01*
X84582Y14224D01*
X69342Y70866D02*
X75946Y70866D01*
X77089Y72009D01*
X68704Y70228D02*
X69342Y70866D01*
X81280Y34036D02*
X76324Y29080D01*
X81280Y47244D02*
X81280Y34036D01*
X76324Y29080D02*
X74676Y29080D01*
X82804Y33274D02*
X79502Y29972D01*
X82804Y33274D02*
X82804Y47752D01*
X79502Y26585D02*
X79502Y29972D01*
X37338Y77470D02*
X41402Y81534D01*
X41402Y93218D02*
X41910Y93726D01*
X41910Y95250D01*
X41402Y81534D02*
X41402Y93218D01*
X44450Y93472D02*
X44450Y95250D01*
X56134Y94742D02*
X56134Y77470D01*
X52705Y74041D01*
X52070Y98806D02*
X56134Y94742D01*
X54610Y78740D02*
X54610Y93726D01*
X51181Y75311D02*
X54610Y78740D01*
X51054Y97282D02*
X54610Y93726D01*
X57912Y52324D02*
X57912Y51054D01*
X56388Y49530D01*
X56388Y32258D01*
X58928Y29718D01*
X66802Y64516D02*
X66802Y54102D01*
X66802Y64516D02*
X58547Y72771D01*
X48796Y72771D02*
X58547Y72771D01*
X84328Y28194D02*
X84328Y48260D01*
X83312Y18796D02*
X84328Y19812D01*
X84328Y23708D01*
X82172Y18796D02*
X83312Y18796D01*
X87122Y16764D02*
X87122Y26924D01*
X85852Y28194D01*
X84582Y14224D02*
X87122Y16764D01*
X74549Y67860D02*
X74549Y65405D01*
X3048Y28358D02*
X5678Y28358D01*
X6477Y27559D01*
X12488Y27559D01*
X11557Y26289D02*
X12488Y26289D01*
X10284Y21336D02*
X10284Y25016D01*
X11557Y26289D02*
X9776Y24508D01*
X10154Y24508D01*
X8636Y24508D02*
X9398Y24508D01*
X10284Y23622D01*
X12488Y25019D02*
X13589Y25019D01*
X14478Y25908D01*
X14478Y27940D01*
X15367Y28829D01*
X17992Y28829D01*
X18923Y25019D02*
X19812Y24130D01*
X19812Y19558D01*
X17992Y25019D02*
X18923Y25019D01*
X17992Y27559D02*
X20193Y27559D01*
X22352Y25400D01*
X22352Y22098D01*
X17992Y26289D02*
X16637Y26289D01*
X15240Y24892D01*
X15240Y23368D01*
X68834Y52070D02*
X80518Y52070D01*
X66802Y54102D02*
X68834Y52070D01*
X80518Y52070D02*
X84328Y48260D01*
X68326Y50800D02*
X79756Y50800D01*
X82804Y47752D01*
X78740Y49784D02*
X81280Y47244D01*
X67310Y49784D02*
X78740Y49784D01*
X65532Y63500D02*
X65532Y53594D01*
X68326Y50800D01*
X57531Y71501D02*
X65532Y63500D01*
X64262Y59182D02*
X64262Y52832D01*
X67310Y49784D01*
X57023Y66421D02*
X64262Y59182D01*
X42926Y76962D02*
X42926Y91948D01*
X41275Y75311D02*
X42926Y76962D01*
X42926Y91948D02*
X44450Y93472D01*
G54D13*
X65532Y80772D02*
X71628Y86868D01*
X75692Y86868D01*
X65532Y73028D02*
X66932Y73028D01*
X67310Y73406D01*
X69018Y73406D01*
X65532Y76324D02*
X66932Y76324D01*
X67380Y75876D01*
X69088Y75876D01*
X65532Y79124D02*
X65532Y80772D01*
X31496Y21336D02*
X32004Y21336D01*
X39624Y21336D02*
X31496Y21336D01*
X19050Y-11176D02*
X4318Y-11176D01*
X762Y-7620D01*
X4318Y5260D02*
X4318Y-1778D01*
X9016Y-6476D01*
X19050Y-6476D01*
X8890Y5260D02*
X8890Y3810D01*
X9652Y3048D01*
X13208Y3048D01*
X762Y48768D02*
X2921Y50927D01*
X762Y-7620D02*
X762Y13208D01*
X762Y43180D02*
X762Y48768D01*
X762Y13208D02*
X762Y43180D01*
G54D14*
X74676Y29080D02*
X74676Y24638D01*
X75311Y24003D01*
X76920Y24003D01*
X5080Y46676D02*
X51502Y46676D01*
X5080Y47976D02*
X50262Y47976D01*
X53848Y51562D01*
X53848Y57150D01*
X52197Y58801D01*
X48796Y58801D01*
X52705Y60071D02*
X48796Y60071D01*
X55372Y50546D02*
X55372Y57404D01*
X52705Y60071D01*
X51502Y46676D02*
X55372Y50546D01*
X5080Y49276D02*
X4318Y49276D01*
X3810Y48768D01*
X3810Y44450D01*
X9144Y39116D01*
X3576Y56154D02*
X2540Y55118D01*
X2540Y50546D01*
X5080Y56154D02*
X3576Y56154D01*
X2540Y51562D02*
X3526Y50576D01*
X5080Y58654D02*
X5080Y62100D01*
X4572Y67310D02*
X5080Y66802D01*
X5080Y64900D01*
X18288Y63340D02*
X18288Y60960D01*
X4572Y74422D02*
X5334Y75184D01*
X4572Y75184D02*
X17904Y75184D01*
X5334Y75184D02*
X4572Y75946D01*
X4572Y67310D02*
X4572Y89154D01*
X20828Y68740D02*
X20828Y75060D01*
X20704Y75184D01*
X18796Y52578D02*
X21336Y55118D01*
X23876Y52578D02*
X23876Y60198D01*
X26924Y63246D01*
X22098Y69596D02*
X22733Y70231D01*
X39596Y70231D01*
X22098Y68740D02*
X22098Y69596D01*
X26924Y69469D02*
X27686Y70231D01*
X26924Y69469D02*
X26162Y70231D01*
X26924Y63246D02*
X26924Y69596D01*
X22606Y75438D02*
X20958Y75438D01*
X20704Y75184D01*
X14478Y67310D02*
X15240Y66548D01*
X14478Y68740D02*
X14478Y67310D01*
X18542Y66548D02*
X19558Y67564D01*
X19558Y68740D01*
X15748Y68740D02*
X15748Y67310D01*
X15113Y66675D01*
X15748Y67310D02*
X16510Y66548D01*
X15240Y66548D02*
X18542Y66548D01*
X18288Y68740D02*
X18288Y71628D01*
X17904Y72012D01*
X17904Y75184D01*
X9144Y39116D02*
X15663Y39116D01*
X9144Y34629D02*
X15663Y34629D01*
X39624Y39116D02*
X46143Y39116D01*
X39624Y34629D02*
X46143Y34629D01*
X39624Y16849D02*
X46143Y16849D01*
X46143Y21336D02*
X39624Y21336D01*
X39596Y68961D02*
X34163Y68961D01*
X34036Y68834D01*
X37564Y57785D02*
X38580Y58801D01*
X39596Y58801D01*
X73406Y18288D02*
X72390Y17272D01*
X68072Y17272D01*
X67056Y18288D01*
X67056Y27940D01*
X72390Y33274D01*
X72390Y36830D01*
X70104Y39116D01*
X72517Y21463D02*
X73406Y20574D01*
X73406Y18288D01*
X71416Y21463D02*
X72517Y21463D01*
X72136Y28702D02*
X72136Y30734D01*
X73282Y31880D01*
X74676Y31880D01*
X73406Y27432D02*
X72136Y28702D01*
X72517Y25273D02*
X73406Y26162D01*
X73406Y27432D01*
X71416Y25273D02*
X72517Y25273D01*
X34290Y56134D02*
X40132Y56134D01*
X42418Y58420D01*
X42418Y62484D01*
X45085Y65151D01*
X48796Y65151D01*
X47752Y77724D02*
X46228Y76200D01*
X46228Y70866D01*
X46863Y70231D01*
X48796Y70231D01*
X46228Y80264D02*
X46860Y80264D01*
X48260Y93980D02*
X49530Y95250D01*
X48948Y92456D02*
X48260Y93144D01*
X51950Y92456D02*
X48948Y92456D01*
X48260Y93144D02*
X48260Y93980D01*
X49650Y93406D02*
X50480Y93406D01*
X51054Y93980D01*
X52578Y93980D01*
X53340Y93218D02*
X53340Y88900D01*
X52578Y93980D02*
X53340Y93218D01*
X51054Y77724D02*
X47752Y77724D01*
X52070Y87630D02*
X52070Y78740D01*
X53340Y88900D02*
X52070Y87630D01*
X52070Y78740D02*
X51054Y77724D01*
X49650Y91506D02*
X48580Y91506D01*
X47752Y90678D01*
X47752Y86614D01*
X49660Y84706D01*
X49660Y80264D01*
X48796Y63881D02*
X47117Y63881D01*
X45974Y62738D01*
X45974Y57658D01*
X47244Y56388D01*
X50800Y56388D01*
X45339Y67691D02*
X48796Y67691D01*
X45974Y69088D02*
X46736Y69088D01*
X48796Y68961D02*
X46863Y68961D01*
X48796Y61341D02*
X53213Y61341D01*
X57150Y57404D01*
X48796Y62611D02*
X55245Y62611D01*
X57912Y59944D01*
X57150Y57404D02*
X59182Y57404D01*
X57912Y59944D02*
X59944Y59944D01*
X62992Y49530D02*
X62992Y46228D01*
X61976Y57912D02*
X61976Y50546D01*
X59944Y59944D02*
X61976Y57912D01*
X61976Y50546D02*
X62992Y49530D01*
X57912Y54864D02*
X58674Y54864D01*
X60833Y46609D02*
X60452Y46228D01*
X60833Y55753D02*
X60833Y46609D01*
X59182Y57404D02*
X60833Y55753D01*
X58674Y54864D02*
X59944Y53594D01*
X59944Y50800D01*
X57912Y48768D01*
X57912Y44958D01*
X59182Y43688D01*
X64770Y43688D02*
X65532Y44450D01*
X65532Y46228D01*
X72768Y58928D02*
X68580Y58928D01*
X65532Y44450D02*
X66294Y43688D01*
X70104Y42672D02*
X70104Y39116D01*
X70104Y42672D02*
X69088Y43688D01*
X59182Y43688D02*
X69088Y43688D01*
X76623Y39116D02*
X77470Y39116D01*
X78232Y39878D01*
X78232Y46228D01*
X75692Y46228D02*
X75692Y42926D01*
X74676Y33020D02*
X74676Y31880D01*
X74168Y41402D02*
X74168Y33528D01*
X74676Y33020D01*
X75692Y42926D02*
X74168Y41402D01*
X74422Y60960D02*
X75184Y60960D01*
X75692Y61468D01*
X75692Y62992D01*
X39596Y66421D02*
X35941Y66421D01*
X35814Y66548D01*
X74168Y56896D02*
X74930Y56896D01*
X75438Y57404D01*
X75438Y58928D01*
X11557Y49971D02*
X9652Y51876D01*
X5080Y51876D01*
X2570Y50576D02*
X6952Y50576D01*
X8128Y49400D01*
X25333Y49971D02*
X33147Y57785D01*
X11557Y49971D02*
X25333Y49971D01*
X33147Y57785D02*
X37564Y57785D01*
X44196Y68834D02*
X44196Y78232D01*
X46228Y80264D01*
X44196Y68834D02*
X45339Y67691D01*
G54D15*
X15663Y39116D02*
X23114Y39116D01*
X26416Y35814D01*
X26416Y24892D02*
X29972Y21336D01*
X26416Y26162D02*
X26416Y24892D01*
X26416Y35814D02*
X26416Y26416D01*
X29972Y21336D02*
X31242Y21336D01*
G54D16*
X-1754Y-20254D02*
X-1754Y-8203D01*
X-1754Y-20254D02*
X7297Y-20254D01*
X88754Y-20254D02*
X79703Y-20254D01*
X88754Y-20254D02*
X88754Y-8203D01*
X88754Y100254D02*
X88754Y88203D01*
X88754Y100254D02*
X79703Y100254D01*
X-1754Y100254D02*
X7297Y100254D01*
X-1754Y100254D02*
X-1754Y88203D01*
X-6754Y-20254D02*
X-16754Y-20254D01*
X-11754Y-25254D02*
X-11754Y-15254D01*
X-15504Y-20254D02*
G75*
D01*
G02X-15504Y-20254I3750J0*
G01*
X93754Y-20254D02*
X103754Y-20254D01*
X98754Y-25254D02*
X98754Y-15254D01*
X95004Y-20254D02*
G75*
D01*
G02X95004Y-20254I3750J0*
G01*
X97504Y-20254D02*
G75*
D01*
G02X97504Y-20254I1250J0*
G01*
X-6754Y100254D02*
X-16754Y100254D01*
X-11754Y95254D02*
X-11754Y105254D01*
X-15504Y100254D02*
G75*
D01*
G02X-15504Y100254I3750J0*
G01*
X-14254Y100254D02*
G75*
D01*
G02X-14254Y100254I2500J0*
G01*
X-13004Y100254D02*
G75*
D01*
G02X-13004Y100254I1250J0*
G01*
G54D17*
X72768Y54864D03*
X75568Y54864D03*
X72768Y58928D03*
X75568Y58928D03*
X72768Y62992D03*
X75568Y62992D03*
X13592Y60452D03*
X10792Y60452D03*
X4696Y70612D03*
X7496Y70612D03*
X46860Y80264D03*
X49660Y80264D03*
X17904Y75184D03*
X20704Y75184D03*
X1648Y43180D03*
X4448Y43180D03*
X82172Y18796D03*
X79372Y18796D03*
X10284Y21336D03*
X13084Y21336D03*
G54D18*
X74549Y73364D03*
X74549Y67860D03*
X73279Y73364D03*
X73279Y67860D03*
X75819Y73364D03*
X77089Y73364D03*
X75819Y67860D03*
X77089Y67860D03*
G54D19*
X74539Y72856D02*
X74559Y72856D01*
X74559Y73872D01*
X74539Y73872D01*
X74539Y72856D01*D02*
X74539Y67352D02*
X74559Y67352D01*
X74559Y68368D01*
X74539Y68368D01*
X74539Y67352D01*D02*
X73269Y72856D02*
X73289Y72856D01*
X73289Y73872D01*
X73269Y73872D01*
X73269Y72856D01*D02*
X73269Y67352D02*
X73289Y67352D01*
X73289Y68368D01*
X73269Y68368D01*
X73269Y67352D01*D02*
X75809Y72856D02*
X75829Y72856D01*
X75829Y73872D01*
X75809Y73872D01*
X75809Y72856D01*D02*
X77079Y72856D02*
X77099Y72856D01*
X77099Y73872D01*
X77079Y73872D01*
X77079Y72856D01*D02*
X75809Y67352D02*
X75829Y67352D01*
X75829Y68368D01*
X75809Y68368D01*
X75809Y67352D01*D02*
X77079Y67352D02*
X77099Y67352D01*
X77099Y68368D01*
X77079Y68368D01*
X77079Y67352D01*D02*
X70908Y21453D02*
X71924Y21453D01*
X71924Y21473D01*
X70908Y21473D01*
X70908Y21453D01*D02*
X70908Y22723D02*
X71924Y22723D01*
X71924Y22743D01*
X70908Y22743D01*
X70908Y22723D01*D02*
X70908Y23993D02*
X71924Y23993D01*
X71924Y24013D01*
X70908Y24013D01*
X70908Y23993D01*D02*
X70908Y25263D02*
X71924Y25263D01*
X71924Y25283D01*
X70908Y25283D01*
X70908Y25263D01*D02*
X76412Y21453D02*
X77428Y21453D01*
X77428Y21473D01*
X76412Y21473D01*
X76412Y21453D01*D02*
X76412Y22723D02*
X77428Y22723D01*
X77428Y22743D01*
X76412Y22743D01*
X76412Y22723D01*D02*
X76412Y23993D02*
X77428Y23993D01*
X77428Y24013D01*
X76412Y24013D01*
X76412Y23993D01*D02*
X76412Y25263D02*
X77428Y25263D01*
X77428Y25283D01*
X76412Y25283D01*
X76412Y25263D01*D02*
X3620Y4054D02*
X5016Y4054D01*
X5016Y6466D01*
X3620Y6466D01*
X3620Y4054D01*D02*
X8192Y4054D02*
X9588Y4054D01*
X9588Y6466D01*
X8192Y6466D01*
X8192Y4054D01*D02*
X11980Y26279D02*
X12996Y26279D01*
X12996Y26299D01*
X11980Y26299D01*
X11980Y26279D01*D02*
X11980Y25009D02*
X12996Y25009D01*
X12996Y25029D01*
X11980Y25029D01*
X11980Y25009D01*D02*
X17484Y26279D02*
X18500Y26279D01*
X18500Y26299D01*
X17484Y26299D01*
X17484Y26279D01*D02*
X17484Y25009D02*
X18500Y25009D01*
X18500Y25029D01*
X17484Y25029D01*
X17484Y25009D01*D02*
X11980Y27549D02*
X12996Y27549D01*
X12996Y27569D01*
X11980Y27569D01*
X11980Y27549D01*D02*
X17484Y27549D02*
X18500Y27549D01*
X18500Y27569D01*
X17484Y27569D01*
X17484Y27549D01*D02*
X11980Y28819D02*
X12996Y28819D01*
X12996Y28839D01*
X11980Y28839D01*
X11980Y28819D01*D02*
X17484Y28819D02*
X18500Y28819D01*
X18500Y28839D01*
X17484Y28839D01*
X17484Y28819D01*D02*
G54D20*
X65532Y70228D03*
X65532Y73028D03*
X74676Y29080D03*
X74676Y31880D03*
X24384Y64640D03*
X24384Y67440D03*
X5080Y64900D03*
X5080Y62100D03*
X8636Y64900D03*
X8636Y62100D03*
X8128Y52200D03*
X8128Y49400D03*
X8636Y27308D03*
X8636Y24508D03*
X65532Y79124D03*
X65532Y76324D03*
G54D21*
X69088Y73476D03*
X69088Y75876D03*
G54D22*
X75692Y79018D03*
X75692Y86868D03*
X75692Y94718D03*
G54D23*
X9144Y34629D03*
X15663Y34629D03*
X9144Y39116D03*
X15663Y39116D03*
X39624Y34629D03*
X46143Y34629D03*
X39624Y39116D03*
X46143Y39116D03*
X70104Y34629D03*
X76623Y34629D03*
X70104Y39116D03*
X76623Y39116D03*
X39624Y16849D03*
X46143Y16849D03*
X39624Y21336D03*
X46143Y21336D03*
G54D24*
X71416Y21463D03*
X71416Y22733D03*
X71416Y24003D03*
X71416Y25273D03*
X76920Y21463D03*
X76920Y22733D03*
X76920Y24003D03*
X76920Y25273D03*
X12488Y26289D03*
X12488Y25019D03*
X17992Y26289D03*
X17992Y25019D03*
X12488Y27559D03*
X17992Y27559D03*
X12488Y28829D03*
X17992Y28829D03*
G54D25*
X39596Y58801D03*
X39596Y60071D03*
X48796Y58801D03*
X48796Y60071D03*
X39596Y61341D03*
X48796Y61341D03*
X39596Y62611D03*
X39596Y63881D03*
X48796Y62611D03*
X48796Y63881D03*
X39596Y65151D03*
X48796Y65151D03*
X39596Y66421D03*
X39596Y67691D03*
X48796Y66421D03*
X48796Y67691D03*
X39596Y70231D03*
X39596Y68961D03*
X48796Y70231D03*
X48796Y68961D03*
X39596Y71501D03*
X48796Y71501D03*
X39596Y72771D03*
X39596Y74041D03*
X48796Y72771D03*
X48796Y74041D03*
X39596Y75311D03*
X48796Y75311D03*
G54D26*
X4572Y89154D03*
X9652Y89154D03*
X7112Y86614D03*
X11176Y52578D03*
X16256Y52578D03*
X13716Y55118D03*
X18796Y52578D03*
X23876Y52578D03*
X21336Y55118D03*
X24892Y19558D03*
X19812Y19558D03*
X22352Y22098D03*
G54D27*
X33782Y63754D03*
X29972Y61722D03*
X31242Y65278D03*
X26162Y59436D03*
X8636Y67056D03*
X18288Y60960D03*
X22606Y75438D03*
X34036Y68834D03*
X36068Y59436D03*
X34290Y56134D03*
X50800Y56388D03*
X45974Y69088D03*
X68580Y58928D03*
X35814Y66548D03*
X74422Y60960D03*
X74168Y56896D03*
X78232Y57658D03*
X60198Y75692D03*
X52070Y81026D03*
X33020Y67056D03*
X58928Y29718D03*
X76962Y18542D03*
X5334Y10414D03*
X4234Y8605D02*
X8974Y8605D01*
X8974Y12329D01*
X4234Y12329D01*
X4234Y8605D01*D02*
X762Y13208D03*
X15240Y23368D03*
G54D28*
X5080Y58654D03*
X5080Y56154D03*
G54D29*
X14478Y63340D03*
X15748Y63340D03*
X18288Y63340D03*
X17018Y63340D03*
X19558Y63340D03*
X20828Y63340D03*
X22098Y63340D03*
X14478Y68740D03*
X15748Y68740D03*
X18288Y68740D03*
X17018Y68740D03*
X19558Y68740D03*
X20828Y68740D03*
X22098Y68740D03*
G54D30*
X57912Y52324D03*
X78232Y46228D03*
G54D31*
X57330Y51742D02*
X58494Y51742D01*
X58494Y52906D01*
X57330Y52906D01*
X57330Y51742D01*D02*
X77650Y45646D02*
X78814Y45646D01*
X78814Y46810D01*
X77650Y46810D01*
X77650Y45646D01*D02*
G54D32*
X57912Y54864D03*
X57912Y57404D03*
X57912Y59944D03*
X60452Y46228D03*
X62992Y46228D03*
X65532Y46228D03*
X68072Y46228D03*
X70612Y46228D03*
X73152Y46228D03*
X75692Y46228D03*
X15748Y3048D03*
G54D33*
X49650Y91506D03*
X49650Y93406D03*
X51950Y92456D03*
G54D34*
X11430Y95250D03*
X13970Y95250D03*
X16510Y95250D03*
X19050Y95250D03*
X21590Y95250D03*
X24130Y95250D03*
X36830Y95250D03*
X39370Y95250D03*
X41910Y95250D03*
X44450Y95250D03*
X46990Y95250D03*
X49530Y95250D03*
G54D35*
X80010Y23368D03*
G54D36*
X70104Y19418D03*
X70104Y27318D03*
G54D37*
X19050Y-6476D03*
X19050Y-11176D03*
X19050Y-15876D03*
X6350Y-13716D03*
X6350Y-8636D03*
G54D38*
X4318Y5260D03*
X8890Y5260D03*
G54D39*
X6604Y10467D03*
G54D40*
X13208Y3048D03*
G54D41*
X12573Y2413D02*
X13843Y2413D01*
X13843Y3683D01*
X12573Y3683D01*
X12573Y2413D01*D02*
G54D42*
X3048Y28358D03*
G54D43*
X3048Y23458D03*
G54D44*
X5080Y46676D03*
X5080Y47976D03*
X5080Y50576D03*
X5080Y49276D03*
X5080Y51876D03*
G54D45*
X84328Y23708D03*
X84328Y28108D03*
G54D46*
X43688Y-16764D03*

M02*
